<?xml version="1.0" encoding="UTF-8"?>
<svg width="700pt" height="700pt" version="1.1" viewBox="0 0 700 700" xmlns="http://www.w3.org/2000/svg" xmlns:xlink="http://www.w3.org/1999/xlink">
 <defs>
  <symbol id="v" overflow="visible">
   <path d="m18.766-1.125c-0.96875 0.5-1.9805 0.875-3.0312 1.125-1.043 0.25781-2.1367 0.39062-3.2812 0.39062-3.3984 0-6.0898-0.94531-8.0781-2.8438-1.9922-1.9062-2.9844-4.4844-2.9844-7.7344 0-3.2578 0.99219-5.8359 2.9844-7.7344 1.9883-1.9062 4.6797-2.8594 8.0781-2.8594 1.1445 0 2.2383 0.13281 3.2812 0.39062 1.0508 0.25 2.0625 0.625 3.0312 1.125v4.2188c-0.98047-0.65625-1.9453-1.1406-2.8906-1.4531-0.94922-0.3125-1.9492-0.46875-3-0.46875-1.875 0-3.3516 0.60547-4.4219 1.8125-1.0742 1.1992-1.6094 2.8555-1.6094 4.9688 0 2.1055 0.53516 3.7617 1.6094 4.9688 1.0703 1.1992 2.5469 1.7969 4.4219 1.7969 1.0508 0 2.0508-0.14844 3-0.45312 0.94531-0.3125 1.9102-0.80078 2.8906-1.4688z"/>
  </symbol>
  <symbol id="c" overflow="visible">
   <path d="m13.734-11.141c-0.4375-0.19531-0.87109-0.34375-1.2969-0.4375-0.41797-0.10156-0.83984-0.15625-1.2656-0.15625-1.2617 0-2.2305 0.40625-2.9062 1.2188-0.67969 0.80469-1.0156 1.9531-1.0156 3.4531v7.0625h-4.8906v-15.312h4.8906v2.5156c0.625-1 1.3438-1.7266 2.1562-2.1875 0.82031-0.46875 1.8008-0.70312 2.9375-0.70312 0.16406 0 0.34375 0.011719 0.53125 0.03125 0.19531 0.011719 0.47656 0.039062 0.84375 0.078125z"/>
  </symbol>
  <symbol id="b" overflow="visible">
   <path d="m17.641-7.7031v1.4062h-11.453c0.125 1.1484 0.53906 2.0078 1.25 2.5781 0.70703 0.57422 1.7031 0.85938 2.9844 0.85938 1.0312 0 2.082-0.14844 3.1562-0.45312 1.082-0.3125 2.1914-0.77344 3.3281-1.3906v3.7656c-1.1562 0.4375-2.3125 0.76562-3.4688 0.98438-1.1562 0.22656-2.3125 0.34375-3.4688 0.34375-2.7734 0-4.9297-0.70312-6.4688-2.1094-1.5312-1.4062-2.2969-3.3789-2.2969-5.9219 0-2.5 0.75391-4.4609 2.2656-5.8906 1.5078-1.4375 3.582-2.1562 6.2188-2.1562 2.4062 0 4.332 0.73047 5.7812 2.1875 1.4453 1.4492 2.1719 3.3828 2.1719 5.7969zm-5.0312-1.625c0-0.92578-0.27344-1.6719-0.8125-2.2344-0.54297-0.57031-1.25-0.85938-2.125-0.85938-0.94922 0-1.7188 0.26562-2.3125 0.79688s-0.96484 1.2969-1.1094 2.2969z"/>
  </symbol>
  <symbol id="m" overflow="visible">
   <path d="m9.2188-6.8906c-1.0234 0-1.793 0.17188-2.3125 0.51562-0.51172 0.34375-0.76562 0.85547-0.76562 1.5312 0 0.625 0.20703 1.1172 0.625 1.4688 0.41406 0.34375 0.98828 0.51562 1.7188 0.51562 0.92578 0 1.7031-0.32812 2.3281-0.98438 0.63281-0.66406 0.95312-1.4922 0.95312-2.4844v-0.5625zm7.4688-1.8438v8.7344h-4.9219v-2.2656c-0.65625 0.92969-1.3984 1.6055-2.2188 2.0312-0.82422 0.41406-1.8242 0.625-3 0.625-1.5859 0-2.8711-0.45703-3.8594-1.375-0.99219-0.92578-1.4844-2.1289-1.4844-3.6094 0-1.7891 0.61328-3.1016 1.8438-3.9375 1.2383-0.84375 3.1797-1.2656 5.8281-1.2656h2.8906v-0.39062c0-0.76953-0.30859-1.332-0.92188-1.6875-0.61719-0.36328-1.5703-0.54688-2.8594-0.54688-1.0547 0-2.0312 0.10547-2.9375 0.3125-0.89844 0.21094-1.7305 0.52344-2.5 0.9375v-3.7344c1.0391-0.25 2.0859-0.44141 3.1406-0.57812 1.0625-0.13281 2.125-0.20312 3.1875-0.20312 2.7578 0 4.75 0.54688 5.9688 1.6406 1.2266 1.0859 1.8438 2.8555 1.8438 5.3125z"/>
  </symbol>
  <symbol id="f" overflow="visible">
   <path d="m7.7031-19.656v4.3438h5.0469v3.5h-5.0469v6.5c0 0.71094 0.14062 1.1875 0.42188 1.4375s0.83594 0.375 1.6719 0.375h2.5156v3.5h-4.1875c-1.9375 0-3.3125-0.39844-4.125-1.2031-0.80469-0.8125-1.2031-2.1797-1.2031-4.1094v-6.5h-2.4219v-3.5h2.4219v-4.3438z"/>
  </symbol>
  <symbol id="e" overflow="visible">
   <path d="m12.766-13.078v-8.2031h4.9219v21.281h-4.9219v-2.2188c-0.66797 0.90625-1.4062 1.5703-2.2188 1.9844s-1.7578 0.625-2.8281 0.625c-1.8867 0-3.4336-0.75-4.6406-2.25-1.2109-1.5-1.8125-3.4258-1.8125-5.7812 0-2.3633 0.60156-4.2969 1.8125-5.7969 1.207-1.5 2.7539-2.25 4.6406-2.25 1.0625 0 2 0.21484 2.8125 0.64062 0.82031 0.42969 1.5664 1.0859 2.2344 1.9688zm-3.2188 9.9219c1.0391 0 1.8359-0.37891 2.3906-1.1406 0.55078-0.76953 0.82812-1.8828 0.82812-3.3438 0-1.457-0.27734-2.5664-0.82812-3.3281-0.55469-0.76953-1.3516-1.1562-2.3906-1.1562-1.043 0-1.8398 0.38672-2.3906 1.1562-0.55469 0.76172-0.82812 1.8711-0.82812 3.3281 0 1.4609 0.27344 2.5742 0.82812 3.3438 0.55078 0.76172 1.3477 1.1406 2.3906 1.1406z"/>
  </symbol>
  <symbol id="l" overflow="visible">
   <path d="m10.5-3.1562c1.0508 0 1.8516-0.37891 2.4062-1.1406 0.55078-0.76953 0.82812-1.8828 0.82812-3.3438 0-1.457-0.27734-2.5664-0.82812-3.3281-0.55469-0.76953-1.3555-1.1562-2.4062-1.1562-1.0547 0-1.8594 0.38672-2.4219 1.1562-0.55469 0.77344-0.82812 1.8828-0.82812 3.3281 0 1.4492 0.27344 2.5586 0.82812 3.3281 0.5625 0.77344 1.3672 1.1562 2.4219 1.1562zm-3.25-9.9219c0.67578-0.88281 1.4219-1.5391 2.2344-1.9688 0.82031-0.42578 1.7656-0.64062 2.8281-0.64062 1.8945 0 3.4453 0.75 4.6562 2.25 1.207 1.5 1.8125 3.4336 1.8125 5.7969 0 2.3555-0.60547 4.2812-1.8125 5.7812-1.2109 1.5-2.7617 2.25-4.6562 2.25-1.0625 0-2.0078-0.21094-2.8281-0.625-0.8125-0.42578-1.5586-1.0859-2.2344-1.9844v2.2188h-4.8906v-21.281h4.8906z"/>
  </symbol>
  <symbol id="k" overflow="visible">
   <path d="m0.34375-15.312h4.8906l4.125 10.391 3.5-10.391h4.8906l-6.4375 16.766c-0.64844 1.6953-1.4023 2.8828-2.2656 3.5625-0.86719 0.6875-2 1.0312-3.4062 1.0312h-2.8438v-3.2188h1.5312c0.83203 0 1.4375-0.13672 1.8125-0.40625 0.38281-0.26172 0.67969-0.73047 0.89062-1.4062l0.14062-0.42188z"/>
  </symbol>
  <symbol id="j" overflow="visible">
   <path d="m10.047-11.359c1.1016 0 1.8945-0.20312 2.375-0.60938 0.47656-0.41406 0.71875-1.0938 0.71875-2.0312 0-0.92578-0.24219-1.5859-0.71875-1.9844-0.48047-0.40625-1.2734-0.60938-2.375-0.60938h-2.2188v5.2344zm-2.2188 3.6406v7.7188h-5.25v-20.406h8.0312c2.6875 0 4.6562 0.45312 5.9062 1.3594 1.2578 0.89844 1.8906 2.3203 1.8906 4.2656 0 1.3555-0.32812 2.4648-0.98438 3.3281-0.64844 0.86719-1.625 1.5-2.9375 1.9062 0.71875 0.16797 1.3594 0.54297 1.9219 1.125 0.57031 0.57422 1.1484 1.4492 1.7344 2.625l2.8594 5.7969h-5.6094l-2.4844-5.0781c-0.5-1.0195-1.0117-1.7109-1.5312-2.0781-0.51172-0.375-1.1953-0.5625-2.0469-0.5625z"/>
  </symbol>
  <symbol id="a" overflow="visible">
   <path d="m9.6406-12.188c-1.0859 0-1.9141 0.39062-2.4844 1.1719-0.57422 0.78125-0.85938 1.9062-0.85938 3.375s0.28516 2.5938 0.85938 3.375c0.57031 0.77344 1.3984 1.1562 2.4844 1.1562 1.0625 0 1.875-0.38281 2.4375-1.1562 0.57031-0.78125 0.85938-1.9062 0.85938-3.375s-0.28906-2.5938-0.85938-3.375c-0.5625-0.78125-1.375-1.1719-2.4375-1.1719zm0-3.5c2.6328 0 4.6914 0.71484 6.1719 2.1406 1.4766 1.418 2.2188 3.3867 2.2188 5.9062 0 2.5117-0.74219 4.4805-2.2188 5.9062-1.4805 1.418-3.5391 2.125-6.1719 2.125-2.6484 0-4.7148-0.70703-6.2031-2.125-1.4922-1.4258-2.2344-3.3945-2.2344-5.9062 0-2.5195 0.74219-4.4883 2.2344-5.9062 1.4883-1.4258 3.5547-2.1406 6.2031-2.1406z"/>
  </symbol>
  <symbol id="d" overflow="visible">
   <path d="m2.3594-15.312h4.8906v15.312h-4.8906zm0-5.9688h4.8906v4h-4.8906z"/>
  </symbol>
  <symbol id="u" overflow="visible">
   <path d="m12.766-2.5938c-0.66797 0.88672-1.4062 1.543-2.2188 1.9688-0.8125 0.41797-1.7578 0.625-2.8281 0.625-1.8672 0-3.4062-0.73438-4.625-2.2031-1.2188-1.4766-1.8281-3.3516-1.8281-5.625 0-2.2891 0.60938-4.1641 1.8281-5.625 1.2188-1.4688 2.7578-2.2031 4.625-2.2031 1.0703 0 2.0156 0.21484 2.8281 0.64062 0.8125 0.41797 1.5508 1.0742 2.2188 1.9688v-2.2656h4.9219v13.766c0 2.457-0.77734 4.3359-2.3281 5.6406-1.5547 1.3008-3.8086 1.9531-6.7656 1.9531-0.94922 0-1.8711-0.074219-2.7656-0.21875-0.89844-0.14844-1.7969-0.37109-2.7031-0.67188v-3.8125c0.86328 0.48828 1.7031 0.85156 2.5156 1.0938 0.82031 0.23828 1.6484 0.35938 2.4844 0.35938 1.6016 0 2.7734-0.35156 3.5156-1.0469 0.75-0.69922 1.125-1.7969 1.125-3.2969zm-3.2188-9.5312c-1.0117 0-1.8047 0.375-2.375 1.125-0.5625 0.74219-0.84375 1.7969-0.84375 3.1719 0 1.3984 0.26953 2.4609 0.8125 3.1875 0.55078 0.71875 1.3516 1.0781 2.4062 1.0781 1.0195 0 1.8125-0.36719 2.375-1.1094 0.5625-0.75 0.84375-1.8008 0.84375-3.1562 0-1.375-0.28125-2.4297-0.84375-3.1719-0.5625-0.75-1.3555-1.125-2.375-1.125z"/>
  </symbol>
  <symbol id="t" overflow="visible">
   <path d="m0.14062-20.406h5.2812l5.4219 15.062 5.4062-15.062h5.2812l-7.5625 20.406h-6.2656z"/>
  </symbol>
  <symbol id="i" overflow="visible">
   <path d="m17.75-9.3281v9.3281h-4.9219v-7.1406c0-1.3203-0.03125-2.2344-0.09375-2.7344s-0.16797-0.86719-0.3125-1.1094c-0.1875-0.3125-0.44922-0.55469-0.78125-0.73438-0.32422-0.17578-0.69531-0.26562-1.1094-0.26562-1.0234 0-1.8242 0.39844-2.4062 1.1875-0.58594 0.78125-0.875 1.8711-0.875 3.2656v7.5312h-4.8906v-15.312h4.8906v2.2344c0.73828-0.88281 1.5195-1.5391 2.3438-1.9688 0.83203-0.42578 1.75-0.64062 2.75-0.64062 1.7695 0 3.1133 0.54688 4.0312 1.6406 0.91406 1.0859 1.375 2.6562 1.375 4.7188z"/>
  </symbol>
  <symbol id="h" overflow="visible">
   <path d="m14.719-14.828v3.9844c-0.65625-0.45703-1.3242-0.79688-2-1.0156-0.66797-0.21875-1.3594-0.32812-2.0781-0.32812-1.3672 0-2.4336 0.40234-3.2031 1.2031-0.76172 0.79297-1.1406 1.9062-1.1406 3.3438 0 1.4297 0.37891 2.543 1.1406 3.3438 0.76953 0.79297 1.8359 1.1875 3.2031 1.1875 0.75781 0 1.4844-0.10938 2.1719-0.32812 0.6875-0.22656 1.3203-0.56641 1.9062-1.0156v4c-0.76172 0.28125-1.5391 0.48828-2.3281 0.625-0.78125 0.14453-1.5742 0.21875-2.375 0.21875-2.7617 0-4.9219-0.70703-6.4844-2.125-1.5547-1.4141-2.3281-3.3828-2.3281-5.9062 0-2.5312 0.77344-4.5039 2.3281-5.9219 1.5625-1.4141 3.7227-2.125 6.4844-2.125 0.80078 0 1.5938 0.074219 2.375 0.21875 0.78125 0.13672 1.5547 0.35156 2.3281 0.64062z"/>
  </symbol>
  <symbol id="g" overflow="visible">
   <path d="m17.75-9.3281v9.3281h-4.9219v-7.1094c0-1.3438-0.03125-2.2656-0.09375-2.7656s-0.16797-0.86719-0.3125-1.1094c-0.1875-0.3125-0.44922-0.55469-0.78125-0.73438-0.32422-0.17578-0.69531-0.26562-1.1094-0.26562-1.0234 0-1.8242 0.39844-2.4062 1.1875-0.58594 0.78125-0.875 1.8711-0.875 3.2656v7.5312h-4.8906v-21.281h4.8906v8.2031c0.73828-0.88281 1.5195-1.5391 2.3438-1.9688 0.83203-0.42578 1.75-0.64062 2.75-0.64062 1.7695 0 3.1133 0.54688 4.0312 1.6406 0.91406 1.0859 1.375 2.6562 1.375 4.7188z"/>
  </symbol>
  <symbol id="s" overflow="visible">
   <path d="m12.422-21.281v3.2188h-2.7031c-0.6875 0-1.1719 0.125-1.4531 0.375-0.27344 0.25-0.40625 0.6875-0.40625 1.3125v1.0625h4.1875v3.5h-4.1875v11.812h-4.8906v-11.812h-2.4375v-3.5h2.4375v-1.0625c0-1.6641 0.46094-2.8984 1.3906-3.7031 0.92578-0.80078 2.3672-1.2031 4.3281-1.2031z"/>
  </symbol>
  <symbol id="r" overflow="visible">
   <path d="m16.547-12.766c0.61328-0.94531 1.3477-1.6719 2.2031-2.1719 0.85156-0.5 1.7891-0.75 2.8125-0.75 1.7578 0 3.0977 0.54688 4.0156 1.6406 0.92578 1.0859 1.3906 2.6562 1.3906 4.7188v9.3281h-4.9219v-7.9844-0.35938c0.007813-0.13281 0.015625-0.32031 0.015625-0.5625 0-1.082-0.16406-1.8633-0.48438-2.3438-0.3125-0.48828-0.82422-0.73438-1.5312-0.73438-0.92969 0-1.6484 0.38672-2.1562 1.1562-0.51172 0.76172-0.77344 1.8672-0.78125 3.3125v7.5156h-4.9219v-7.9844c0-1.6953-0.14844-2.7852-0.4375-3.2656-0.29297-0.48828-0.8125-0.73438-1.5625-0.73438-0.9375 0-1.6641 0.38672-2.1719 1.1562-0.51172 0.76172-0.76562 1.8594-0.76562 3.2969v7.5312h-4.9219v-15.312h4.9219v2.2344c0.60156-0.86328 1.2891-1.5156 2.0625-1.9531 0.78125-0.4375 1.6406-0.65625 2.5781-0.65625 1.0625 0 2 0.25781 2.8125 0.76562 0.8125 0.51172 1.4258 1.2305 1.8438 2.1562z"/>
  </symbol>
  <symbol id="q" overflow="visible">
   <path d="m2.5781-20.406h5.875l7.4219 14v-14h4.9844v20.406h-5.875l-7.4219-14v14h-4.9844z"/>
  </symbol>
  <symbol id="p" overflow="visible">
   <path d="m2.1875-5.9688v-9.3438h4.9219v1.5312c0 0.83594-0.007813 1.875-0.015625 3.125-0.011719 1.25-0.015625 2.0859-0.015625 2.5 0 1.2422 0.03125 2.1328 0.09375 2.6719 0.070313 0.54297 0.17969 0.93359 0.32812 1.1719 0.20703 0.32422 0.47266 0.57422 0.79688 0.75 0.32031 0.16797 0.69141 0.25 1.1094 0.25 1.0195 0 1.8203-0.39062 2.4062-1.1719 0.58203-0.78125 0.875-1.8672 0.875-3.2656v-7.5625h4.8906v15.312h-4.8906v-2.2188c-0.74219 0.89844-1.5234 1.5586-2.3438 1.9844-0.82422 0.41406-1.7344 0.625-2.7344 0.625-1.7617 0-3.1055-0.53906-4.0312-1.625-0.92969-1.082-1.3906-2.6602-1.3906-4.7344z"/>
  </symbol>
  <symbol id="o" overflow="visible">
   <path d="m2.5781-20.406h8.7344c2.5938 0 4.582 0.57812 5.9688 1.7344 1.3945 1.1484 2.0938 2.7891 2.0938 4.9219 0 2.1367-0.69922 3.7812-2.0938 4.9375-1.3867 1.1562-3.375 1.7344-5.9688 1.7344h-3.4844v7.0781h-5.25zm5.25 3.8125v5.7031h2.9219c1.0195 0 1.8047-0.25 2.3594-0.75 0.5625-0.5 0.84375-1.2031 0.84375-2.1094 0-0.91406-0.28125-1.6172-0.84375-2.1094-0.55469-0.48828-1.3398-0.73438-2.3594-0.73438z"/>
  </symbol>
  <symbol id="n" overflow="visible">
   <path d="m2.3594-15.312h4.8906v15.031c0 2.0508-0.49609 3.6172-1.4844 4.7031-0.98047 1.082-2.4062 1.625-4.2812 1.625h-2.4219v-3.2188h0.85938c0.92578 0 1.5625-0.21094 1.9062-0.625 0.35156-0.41797 0.53125-1.2461 0.53125-2.4844zm0-5.9688h4.8906v4h-4.8906z"/>
  </symbol>
 </defs>
 <g>
  <path d="m576.57 299.25-0.17969-0.71094-0.41406-0.62109c-8.25-12.383-20.551-19.102-35.926-19.801 1.6172-24.742-15.172-24.523-15.172-24.523 28.719-17.617 7.5703-48.082 7.5703-48.082 1.4844 25.672-17.398 19.051-17.398 19.051-19.84-5.543-20.926-30.465-20.926-30.465-1.3828-16.855-8.2773-24.457-8.2773-24.457-13.328-13.125-24.18-8.7812-30.32-3.8711 1.3672-16.805-0.12891-55.848-36.949-87.793 0 0-24.422-27.086-68.578-14.508 0 0-31.535 6.7773-31.461-17.59 0 0-3.875 17 4.7422 27.652-2.5977 0.27344-5.9688 1.6445-9.4453 5.8203 0 0-9.4453 18.84-24.824 10.953 0 0-14.504-4.3906-11.027-21.801 0 0-25.445 18.473-0.53906 34.629 0 0-23.441-8.668-34.945 7.0742 0 0-5.9453 5.4805-9.0156 19.609 0 0-10.332 25.73-36.727 3.6797 0 0-3.1523 11.266 5.0898 20.57 0 0-38.746 44.695-55.574 14.242 0 0 8.9883 32.504 35.684 30.027 0 0-2.9922 9.8438 2.418 18.336 5.4219 8.5-10.785 28.203-18.301 27.492 0 0-9.1289 3.1992-13.738-8.1211 0 0 1.4883 19.453 20.055 16.398 0 0-10.59 14.043 0.12891 24.414-0.69922-0.10547-1.4102-0.19141-2.1328-0.28516-20.293-2.3867-36.332 4.3281-46.379 19.426l-0.41406 0.60547-0.17188 0.71875c-0.35156 1.4062-8.4375 34.371 10.691 59.695 13.055 17.281 35.348 26.488 66.258 27.355l0.24609-8.7031c-28.105-0.78906-48.133-8.8086-59.516-23.852-15.227-20.082-10.383-47.02-9.4023-51.664 8.2031-11.82 20.797-16.867 37.457-14.957 6.9648 0.79688 13.281 2.6836 17.754 4.3164 0.20703 3.7812 2.0039 7.8555 6.8867 11.672 13.176 10.289-0.34766 30.516-5.4102 34.027 2.9297-0.50391 9.0781-0.64453 11.008 6.4336 0 0 1.9414 6.3008-2.5273 13.855 0 0-7.7188 6.7969 4.6719 16.531 0 0 9.832 5.4258 5.6797 13.121 0 0-8.7305 23.367 13.027 29.457 0 0-6.6758-8.5-0.94531-15.895 0 0 23.375-18.277 16.402-37.633 0 0-3.2695-9.1406-11.977-15.23 0 0 14.801 3.9219 8.707-23.496 0 0-3.2383 11.395-10.438 6.9648 0 0-5.8789-2.8516-2.2852-11.66 0 0 7.5664-26.465 3.8867-34.883 0 0-1.3906-9.3789-10.309-12.645 0 0 20.668 5.4414 26.105-16.543 0 0-3.293-0.39844-6.1641-2.6953 0 0-3.7852-70.141 63.426-73.578-7.1836 10.129-25.867 13.621-25.867 13.621 0 12.293 25.172 18.277 25.172 18.277 43.914 4.2266 60.367-14.234 65.684-34.367 20.422 6.957 32.547-0.92969 39.73-12.285 3.1367 7.8398 7.5195 13.406 7.5195 13.406 14.527 18.156 32.48 11.648 32.48 11.648-4.1992 1.0547-6.5312-7.4648-6.5312-7.4648 1.1484-10.562 15.098 13.211 15.098 13.211 19.02 29.676 18.02 52.695 18.02 52.695 1.0234 12.215-10.266 13.578-10.266 13.578 5.4375 21.98 26.105 16.52 26.105 16.52-8.9258 3.2812-10.316 12.66-10.316 12.66-3.668 8.4219 3.8906 34.883 3.8906 34.883 3.5898 8.793-2.2852 11.641-2.2852 11.641-7.2031 4.4297-10.445-6.9492-10.445-6.9492-6.0859 27.406 8.707 23.488 8.707 23.488-8.707 6.0938-11.973 15.23-11.973 15.23-6.9766 19.359 16.402 37.645 16.402 37.645 5.7305 7.3789-0.95312 15.895-0.95312 15.895 21.762-6.1055 13.035-29.461 13.035-29.461-4.168-7.6875 5.668-13.133 5.668-13.133 12.395-9.7109 4.6758-16.531 4.6758-16.531-4.4805-7.543-2.5312-13.832-2.5312-13.832 1.9375-7.1055 8.082-6.9609 11.016-6.4414-5.0625-3.5117-18.582-23.742-5.4023-34.031 6.1719-4.8164 7.4141-10.074 6.7461-14.609 10.543-4.3125 41.703-14.324 58.223 9.4961 0.99219 4.6523 5.8125 31.566-9.4023 51.66-11.387 15.031-31.41 23.062-59.512 23.852l0.24219 8.6914c30.918-0.86328 53.199-10.062 66.258-27.355 19.164-25.332 11.074-58.297 10.727-59.703zm-131.18-139.98 1.1914 1.9766-1.1914-0.82812z"/>
  <path d="m301.93 293.26c0 8.0898-6.5586 14.648-14.648 14.648-8.0938 0-14.652-6.5586-14.652-14.648 0-8.0898 6.5586-14.652 14.652-14.652 8.0898 0 14.648 6.5625 14.648 14.652"/>
  <path d="m421.79 293.26c0 8.0938-6.5625 14.652-14.656 14.652s-14.656-6.5586-14.656-14.652 6.5625-14.656 14.656-14.656 14.656 6.5625 14.656 14.656"/>
  <path d="m366.71 325.15c0-7.3477-7.5039-13.324-16.715-13.324-9.2188 0-16.723 5.9766-16.723 13.324 0 7.3359 7.5039 13.301 16.723 13.301s16.715-5.9648 16.715-13.301zm-27.707 0c0-4.1211 5.0352-7.5898 10.992-7.5898s10.98 3.4648 10.98 7.5898c0 4.1055-5.0195 7.582-10.98 7.582-5.9531 0-10.992-3.4727-10.992-7.582z"/>
  <path d="m421.23 249.47c1.9258-1.9375 1.9258-5.0508 0-6.9844l-11.895-11.895c-1.9336-1.9336-5.0508-1.9336-6.9844 0-1.9219 1.9219-1.9219 5.0391 0 6.9727l11.906 11.906c1.9219 1.9336 5.0469 1.9336 6.9727 0z"/>
  <path d="m285.74 249.47 11.898-11.906c1.9336-1.9336 1.9336-5.0508 0-6.9727-1.9336-1.9336-5.0508-1.9336-6.9766 0l-11.895 11.895c-1.9258 1.9336-1.9258 5.0469 0 6.9844 1.9336 1.9336 5.0469 1.9336 6.9727 0z"/>
  <path d="m188.41 335.21c-0.96875 0.16797-1.5859 0.375-1.5859 0.375 0.25781 0.30469 0.83203 0.14844 1.5859-0.375z"/>
  <path d="m510.3 341.62s-0.61719-0.20313-1.5859-0.35938c0.75781 0.51953 1.3164 0.67188 1.5859 0.35938z"/>
  <path d="m459.71 404.54-108.53 52.852-108.54-52.852-7.2461-20.641c-1.4492 3.1367-3.3086 5.9922-5.2266 8.5l6.4023 18.211 42.902 20.895c-6.957 16.508-6.9883 30.363-0.085938 41.137 9.7266 15.199 30.496 19.629 40.875 20.91-2.4961 4.3008-5.0742 9.0312-7.7578 14.223l-3.1289 6.0742 6.832 0.19531c0.089844 0 2.3281 0.0625 5.9766 0.0625 7.1406 0 20.949-0.25781 33.227-1.9805 16.742-2.3477 25.48-6.5977 27.48-13.344 0.60937-2.0703 0.52734-4.082-0.0625-5.9922 11-1.7539 28.918-6.6641 37.762-20.473 6.7305-10.516 6.8594-23.934 0.41016-39.906l44.766-21.805 4.0469-11.504c-1.9102-2.4258-3.8008-5.207-5.3086-8.2656zm-99.473 73.527c-11.07 5.6172-22.512 12.246-31.129 17.438 13.977-23.43 21.488-26.359 24.336-26.359 3.4219 0 5.6641 5.1289 6.793 8.9219zm-73.609-10.07c-5.2266-8.1758-5.0078-19.191 0.59375-32.723l57.559 28.027c-5.9375 3.625-12.371 10.91-19.539 22.07-5.957-0.41797-29.43-3.0039-38.613-17.375zm88.027 28.344c-1.0234 3.4336-14.016 8.4336-45.32 9.1094 8.8633-5.4336 22.508-13.484 35.312-19.988 4.9453 3.3867 7.6172 6.0312 8.9414 7.9258l0.011718 0.34766h0.22266c0.79297 1.2227 0.98438 2.1016 0.83203 2.6055zm38.715-28.68c-8.1094 12.695-27.324 16.207-35.828 17.137-1.2656-1.2539-2.6602-2.4453-4.0898-3.5742 5.5117-2.5078 10.59-4.5117 14.684-5.5547l-2.1406-8.332c-5.0195 1.3008-11.25 3.793-17.902 6.8945-1.5586-4.5977-4.2617-9.4414-8.4102-11.945l53.582-26.102c5.1289 12.98 5.168 23.559 0.10547 31.477z"/>
 </g>
</svg>
