<?xml version="1.0" encoding="UTF-8"?>
<svg width="700pt" height="700pt" version="1.1" viewBox="0 0 700 700" xmlns="http://www.w3.org/2000/svg" xmlns:xlink="http://www.w3.org/1999/xlink">
 <defs>
  <symbol id="w" overflow="visible">
   <path d="m18.766-1.125c-0.96875 0.5-1.9805 0.875-3.0312 1.125-1.043 0.25781-2.1367 0.39062-3.2812 0.39062-3.3984 0-6.0898-0.94531-8.0781-2.8438-1.9922-1.9062-2.9844-4.4844-2.9844-7.7344 0-3.2578 0.99219-5.8359 2.9844-7.7344 1.9883-1.9062 4.6797-2.8594 8.0781-2.8594 1.1445 0 2.2383 0.13281 3.2812 0.39062 1.0508 0.25 2.0625 0.625 3.0312 1.125v4.2188c-0.98047-0.65625-1.9453-1.1406-2.8906-1.4531-0.94922-0.3125-1.9492-0.46875-3-0.46875-1.875 0-3.3516 0.60547-4.4219 1.8125-1.0742 1.1992-1.6094 2.8555-1.6094 4.9688 0 2.1055 0.53516 3.7617 1.6094 4.9688 1.0703 1.1992 2.5469 1.7969 4.4219 1.7969 1.0508 0 2.0508-0.14844 3-0.45312 0.94531-0.3125 1.9102-0.80078 2.8906-1.4688z"/>
  </symbol>
  <symbol id="b" overflow="visible">
   <path d="m13.734-11.141c-0.4375-0.19531-0.87109-0.34375-1.2969-0.4375-0.41797-0.10156-0.83984-0.15625-1.2656-0.15625-1.2617 0-2.2305 0.40625-2.9062 1.2188-0.67969 0.80469-1.0156 1.9531-1.0156 3.4531v7.0625h-4.8906v-15.312h4.8906v2.5156c0.625-1 1.3438-1.7266 2.1562-2.1875 0.82031-0.46875 1.8008-0.70312 2.9375-0.70312 0.16406 0 0.34375 0.011719 0.53125 0.03125 0.19531 0.011719 0.47656 0.039062 0.84375 0.078125z"/>
  </symbol>
  <symbol id="a" overflow="visible">
   <path d="m17.641-7.7031v1.4062h-11.453c0.125 1.1484 0.53906 2.0078 1.25 2.5781 0.70703 0.57422 1.7031 0.85938 2.9844 0.85938 1.0312 0 2.082-0.14844 3.1562-0.45312 1.082-0.3125 2.1914-0.77344 3.3281-1.3906v3.7656c-1.1562 0.4375-2.3125 0.76562-3.4688 0.98438-1.1562 0.22656-2.3125 0.34375-3.4688 0.34375-2.7734 0-4.9297-0.70312-6.4688-2.1094-1.5312-1.4062-2.2969-3.3789-2.2969-5.9219 0-2.5 0.75391-4.4609 2.2656-5.8906 1.5078-1.4375 3.582-2.1562 6.2188-2.1562 2.4062 0 4.332 0.73047 5.7812 2.1875 1.4453 1.4492 2.1719 3.3828 2.1719 5.7969zm-5.0312-1.625c0-0.92578-0.27344-1.6719-0.8125-2.2344-0.54297-0.57031-1.25-0.85938-2.125-0.85938-0.94922 0-1.7188 0.26562-2.3125 0.79688s-0.96484 1.2969-1.1094 2.2969z"/>
  </symbol>
  <symbol id="f" overflow="visible">
   <path d="m9.2188-6.8906c-1.0234 0-1.793 0.17188-2.3125 0.51562-0.51172 0.34375-0.76562 0.85547-0.76562 1.5312 0 0.625 0.20703 1.1172 0.625 1.4688 0.41406 0.34375 0.98828 0.51562 1.7188 0.51562 0.92578 0 1.7031-0.32812 2.3281-0.98438 0.63281-0.66406 0.95312-1.4922 0.95312-2.4844v-0.5625zm7.4688-1.8438v8.7344h-4.9219v-2.2656c-0.65625 0.92969-1.3984 1.6055-2.2188 2.0312-0.82422 0.41406-1.8242 0.625-3 0.625-1.5859 0-2.8711-0.45703-3.8594-1.375-0.99219-0.92578-1.4844-2.1289-1.4844-3.6094 0-1.7891 0.61328-3.1016 1.8438-3.9375 1.2383-0.84375 3.1797-1.2656 5.8281-1.2656h2.8906v-0.39062c0-0.76953-0.30859-1.332-0.92188-1.6875-0.61719-0.36328-1.5703-0.54688-2.8594-0.54688-1.0547 0-2.0312 0.10547-2.9375 0.3125-0.89844 0.21094-1.7305 0.52344-2.5 0.9375v-3.7344c1.0391-0.25 2.0859-0.44141 3.1406-0.57812 1.0625-0.13281 2.125-0.20312 3.1875-0.20312 2.7578 0 4.75 0.54688 5.9688 1.6406 1.2266 1.0859 1.8438 2.8555 1.8438 5.3125z"/>
  </symbol>
  <symbol id="d" overflow="visible">
   <path d="m7.7031-19.656v4.3438h5.0469v3.5h-5.0469v6.5c0 0.71094 0.14062 1.1875 0.42188 1.4375s0.83594 0.375 1.6719 0.375h2.5156v3.5h-4.1875c-1.9375 0-3.3125-0.39844-4.125-1.2031-0.80469-0.8125-1.2031-2.1797-1.2031-4.1094v-6.5h-2.4219v-3.5h2.4219v-4.3438z"/>
  </symbol>
  <symbol id="c" overflow="visible">
   <path d="m12.766-13.078v-8.2031h4.9219v21.281h-4.9219v-2.2188c-0.66797 0.90625-1.4062 1.5703-2.2188 1.9844s-1.7578 0.625-2.8281 0.625c-1.8867 0-3.4336-0.75-4.6406-2.25-1.2109-1.5-1.8125-3.4258-1.8125-5.7812 0-2.3633 0.60156-4.2969 1.8125-5.7969 1.207-1.5 2.7539-2.25 4.6406-2.25 1.0625 0 2 0.21484 2.8125 0.64062 0.82031 0.42969 1.5664 1.0859 2.2344 1.9688zm-3.2188 9.9219c1.0391 0 1.8359-0.37891 2.3906-1.1406 0.55078-0.76953 0.82812-1.8828 0.82812-3.3438 0-1.457-0.27734-2.5664-0.82812-3.3281-0.55469-0.76953-1.3516-1.1562-2.3906-1.1562-1.043 0-1.8398 0.38672-2.3906 1.1562-0.55469 0.76172-0.82812 1.8711-0.82812 3.3281 0 1.4609 0.27344 2.5742 0.82812 3.3438 0.55078 0.76172 1.3477 1.1406 2.3906 1.1406z"/>
  </symbol>
  <symbol id="k" overflow="visible">
   <path d="m10.5-3.1562c1.0508 0 1.8516-0.37891 2.4062-1.1406 0.55078-0.76953 0.82812-1.8828 0.82812-3.3438 0-1.457-0.27734-2.5664-0.82812-3.3281-0.55469-0.76953-1.3555-1.1562-2.4062-1.1562-1.0547 0-1.8594 0.38672-2.4219 1.1562-0.55469 0.77344-0.82812 1.8828-0.82812 3.3281 0 1.4492 0.27344 2.5586 0.82812 3.3281 0.5625 0.77344 1.3672 1.1562 2.4219 1.1562zm-3.25-9.9219c0.67578-0.88281 1.4219-1.5391 2.2344-1.9688 0.82031-0.42578 1.7656-0.64062 2.8281-0.64062 1.8945 0 3.4453 0.75 4.6562 2.25 1.207 1.5 1.8125 3.4336 1.8125 5.7969 0 2.3555-0.60547 4.2812-1.8125 5.7812-1.2109 1.5-2.7617 2.25-4.6562 2.25-1.0625 0-2.0078-0.21094-2.8281-0.625-0.8125-0.42578-1.5586-1.0859-2.2344-1.9844v2.2188h-4.8906v-21.281h4.8906z"/>
  </symbol>
  <symbol id="j" overflow="visible">
   <path d="m0.34375-15.312h4.8906l4.125 10.391 3.5-10.391h4.8906l-6.4375 16.766c-0.64844 1.6953-1.4023 2.8828-2.2656 3.5625-0.86719 0.6875-2 1.0312-3.4062 1.0312h-2.8438v-3.2188h1.5312c0.83203 0 1.4375-0.13672 1.8125-0.40625 0.38281-0.26172 0.67969-0.73047 0.89062-1.4062l0.14062-0.42188z"/>
  </symbol>
  <symbol id="i" overflow="visible">
   <path d="m2.5781-20.406h5.25v7.7656h7.7656v-7.7656h5.2656v20.406h-5.2656v-8.6562h-7.7656v8.6562h-5.25z"/>
  </symbol>
  <symbol id="h" overflow="visible">
   <path d="m14.312-14.828v3.7188c-1.043-0.4375-2.0547-0.76562-3.0312-0.98438-0.98047-0.21875-1.9023-0.32812-2.7656-0.32812-0.92969 0-1.6211 0.11719-2.0781 0.34375-0.44922 0.23047-0.67188 0.58984-0.67188 1.0781 0 0.38672 0.17188 0.68359 0.51562 0.89062 0.34375 0.21094 0.95703 0.36719 1.8438 0.46875l0.85938 0.125c2.5078 0.32422 4.1953 0.85156 5.0625 1.5781 0.86328 0.73047 1.2969 1.8711 1.2969 3.4219 0 1.6367-0.60547 2.8672-1.8125 3.6875-1.1992 0.8125-2.9922 1.2188-5.375 1.2188-1.0234 0-2.0742-0.078125-3.1562-0.23438-1.0742-0.15625-2.1797-0.39453-3.3125-0.71875v-3.7188c0.96875 0.48047 1.9609 0.83984 2.9844 1.0781 1.0312 0.23047 2.0781 0.34375 3.1406 0.34375 0.95703 0 1.6758-0.12891 2.1562-0.39062 0.47656-0.26953 0.71875-0.66406 0.71875-1.1875 0-0.4375-0.16797-0.75781-0.5-0.96875-0.33594-0.21875-0.99609-0.38281-1.9844-0.5l-0.85938-0.10938c-2.1797-0.26953-3.7031-0.77344-4.5781-1.5156-0.875-0.73828-1.3125-1.8594-1.3125-3.3594 0-1.625 0.55078-2.8281 1.6562-3.6094 1.1133-0.78906 2.8203-1.1875 5.125-1.1875 0.89453 0 1.8359 0.074219 2.8281 0.21875 1 0.13672 2.082 0.35156 3.25 0.64062z"/>
  </symbol>
  <symbol id="v" overflow="visible">
   <path d="m11.891-16.969c-1.6055 0-2.8516 0.59375-3.7344 1.7812-0.875 1.1875-1.3125 2.8555-1.3125 5 0 2.1484 0.4375 3.8125 1.3125 5 0.88281 1.1797 2.1289 1.7656 3.7344 1.7656 1.6133 0 2.8633-0.58594 3.75-1.7656 0.88281-1.1875 1.3281-2.8516 1.3281-5 0-2.1445-0.44531-3.8125-1.3281-5-0.88672-1.1875-2.1367-1.7812-3.75-1.7812zm0-3.8125c3.2812 0 5.8477 0.9375 7.7031 2.8125 1.8633 1.875 2.7969 4.4688 2.7969 7.7812 0 3.3047-0.93359 5.8906-2.7969 7.7656-1.8555 1.875-4.4219 2.8125-7.7031 2.8125-3.2734 0-5.8398-0.9375-7.7031-2.8125-1.8672-1.875-2.7969-4.4609-2.7969-7.7656 0-3.3125 0.92969-5.9062 2.7969-7.7812 1.8633-1.875 4.4297-2.8125 7.7031-2.8125z"/>
  </symbol>
  <symbol id="g" overflow="visible">
   <path d="m12.422-21.281v3.2188h-2.7031c-0.6875 0-1.1719 0.125-1.4531 0.375-0.27344 0.25-0.40625 0.6875-0.40625 1.3125v1.0625h4.1875v3.5h-4.1875v11.812h-4.8906v-11.812h-2.4375v-3.5h2.4375v-1.0625c0-1.6641 0.46094-2.8984 1.3906-3.7031 0.92578-0.80078 2.3672-1.2031 4.3281-1.2031z"/>
  </symbol>
  <symbol id="u" overflow="visible">
   <path d="m10.75-12.516c0.82031 0 1.4453-0.17969 1.875-0.54688 0.4375-0.36328 0.65625-0.89844 0.65625-1.6094 0-0.69531-0.21875-1.2266-0.65625-1.5938-0.42969-0.375-1.0547-0.5625-1.875-0.5625h-2.9219v4.3125zm0.17188 8.9375c1.0625 0 1.8594-0.22266 2.3906-0.67188 0.53125-0.44531 0.79688-1.125 0.79688-2.0312 0-0.88281-0.26562-1.5469-0.79688-1.9844-0.52344-0.4375-1.3203-0.65625-2.3906-0.65625h-3.0938v5.3438zm4.8906-7.3438c1.1328 0.32422 2.0078 0.92969 2.625 1.8125 0.625 0.88672 0.9375 1.9688 0.9375 3.25 0 1.9688-0.66797 3.4375-2 4.4062-1.3359 0.96875-3.3555 1.4531-6.0625 1.4531h-8.7344v-20.406h7.8906c2.832 0 4.8828 0.42969 6.1562 1.2812 1.2812 0.85547 1.9219 2.2266 1.9219 4.1094 0 1-0.23438 1.8516-0.70312 2.5469-0.46875 0.6875-1.1484 1.2031-2.0312 1.5469z"/>
  </symbol>
  <symbol id="t" overflow="visible">
   <path d="m2.3594-15.312h4.8906v15.312h-4.8906zm0-5.9688h4.8906v4h-4.8906z"/>
  </symbol>
  <symbol id="e" overflow="visible">
   <path d="m9.6406-12.188c-1.0859 0-1.9141 0.39062-2.4844 1.1719-0.57422 0.78125-0.85938 1.9062-0.85938 3.375s0.28516 2.5938 0.85938 3.375c0.57031 0.77344 1.3984 1.1562 2.4844 1.1562 1.0625 0 1.875-0.38281 2.4375-1.1562 0.57031-0.78125 0.85938-1.9062 0.85938-3.375s-0.28906-2.5938-0.85938-3.375c-0.5625-0.78125-1.375-1.1719-2.4375-1.1719zm0-3.5c2.6328 0 4.6914 0.71484 6.1719 2.1406 1.4766 1.418 2.2188 3.3867 2.2188 5.9062 0 2.5117-0.74219 4.4805-2.2188 5.9062-1.4805 1.418-3.5391 2.125-6.1719 2.125-2.6484 0-4.7148-0.70703-6.2031-2.125-1.4922-1.4258-2.2344-3.3945-2.2344-5.9062 0-2.5195 0.74219-4.4883 2.2344-5.9062 1.4883-1.4258 3.5547-2.1406 6.2031-2.1406z"/>
  </symbol>
  <symbol id="s" overflow="visible">
   <path d="m16.547-12.766c0.61328-0.94531 1.3477-1.6719 2.2031-2.1719 0.85156-0.5 1.7891-0.75 2.8125-0.75 1.7578 0 3.0977 0.54688 4.0156 1.6406 0.92578 1.0859 1.3906 2.6562 1.3906 4.7188v9.3281h-4.9219v-7.9844-0.35938c0.007813-0.13281 0.015625-0.32031 0.015625-0.5625 0-1.082-0.16406-1.8633-0.48438-2.3438-0.3125-0.48828-0.82422-0.73438-1.5312-0.73438-0.92969 0-1.6484 0.38672-2.1562 1.1562-0.51172 0.76172-0.77344 1.8672-0.78125 3.3125v7.5156h-4.9219v-7.9844c0-1.6953-0.14844-2.7852-0.4375-3.2656-0.29297-0.48828-0.8125-0.73438-1.5625-0.73438-0.9375 0-1.6641 0.38672-2.1719 1.1562-0.51172 0.76172-0.76562 1.8594-0.76562 3.2969v7.5312h-4.9219v-15.312h4.9219v2.2344c0.60156-0.86328 1.2891-1.5156 2.0625-1.9531 0.78125-0.4375 1.6406-0.65625 2.5781-0.65625 1.0625 0 2 0.25781 2.8125 0.76562 0.8125 0.51172 1.4258 1.2305 1.8438 2.1562z"/>
  </symbol>
  <symbol id="r" overflow="visible">
   <path d="m17.75-9.3281v9.3281h-4.9219v-7.1094c0-1.3438-0.03125-2.2656-0.09375-2.7656s-0.16797-0.86719-0.3125-1.1094c-0.1875-0.3125-0.44922-0.55469-0.78125-0.73438-0.32422-0.17578-0.69531-0.26562-1.1094-0.26562-1.0234 0-1.8242 0.39844-2.4062 1.1875-0.58594 0.78125-0.875 1.8711-0.875 3.2656v7.5312h-4.8906v-21.281h4.8906v8.2031c0.73828-0.88281 1.5195-1.5391 2.3438-1.9688 0.83203-0.42578 1.75-0.64062 2.75-0.64062 1.7695 0 3.1133 0.54688 4.0312 1.6406 0.91406 1.0859 1.375 2.6562 1.375 4.7188z"/>
  </symbol>
  <symbol id="q" overflow="visible">
   <path d="m2.5781-20.406h5.875l7.4219 14v-14h4.9844v20.406h-5.875l-7.4219-14v14h-4.9844z"/>
  </symbol>
  <symbol id="p" overflow="visible">
   <path d="m2.1875-5.9688v-9.3438h4.9219v1.5312c0 0.83594-0.007813 1.875-0.015625 3.125-0.011719 1.25-0.015625 2.0859-0.015625 2.5 0 1.2422 0.03125 2.1328 0.09375 2.6719 0.070313 0.54297 0.17969 0.93359 0.32812 1.1719 0.20703 0.32422 0.47266 0.57422 0.79688 0.75 0.32031 0.16797 0.69141 0.25 1.1094 0.25 1.0195 0 1.8203-0.39062 2.4062-1.1719 0.58203-0.78125 0.875-1.8672 0.875-3.2656v-7.5625h4.8906v15.312h-4.8906v-2.2188c-0.74219 0.89844-1.5234 1.5586-2.3438 1.9844-0.82422 0.41406-1.7344 0.625-2.7344 0.625-1.7617 0-3.1055-0.53906-4.0312-1.625-0.92969-1.082-1.3906-2.6602-1.3906-4.7344z"/>
  </symbol>
  <symbol id="o" overflow="visible">
   <path d="m17.75-9.3281v9.3281h-4.9219v-7.1406c0-1.3203-0.03125-2.2344-0.09375-2.7344s-0.16797-0.86719-0.3125-1.1094c-0.1875-0.3125-0.44922-0.55469-0.78125-0.73438-0.32422-0.17578-0.69531-0.26562-1.1094-0.26562-1.0234 0-1.8242 0.39844-2.4062 1.1875-0.58594 0.78125-0.875 1.8711-0.875 3.2656v7.5312h-4.8906v-15.312h4.8906v2.2344c0.73828-0.88281 1.5195-1.5391 2.3438-1.9688 0.83203-0.42578 1.75-0.64062 2.75-0.64062 1.7695 0 3.1133 0.54688 4.0312 1.6406 0.91406 1.0859 1.375 2.6562 1.375 4.7188z"/>
  </symbol>
  <symbol id="n" overflow="visible">
   <path d="m2.5781-20.406h8.7344c2.5938 0 4.582 0.57812 5.9688 1.7344 1.3945 1.1484 2.0938 2.7891 2.0938 4.9219 0 2.1367-0.69922 3.7812-2.0938 4.9375-1.3867 1.1562-3.375 1.7344-5.9688 1.7344h-3.4844v7.0781h-5.25zm5.25 3.8125v5.7031h2.9219c1.0195 0 1.8047-0.25 2.3594-0.75 0.5625-0.5 0.84375-1.2031 0.84375-2.1094 0-0.91406-0.28125-1.6172-0.84375-2.1094-0.55469-0.48828-1.3398-0.73438-2.3594-0.73438z"/>
  </symbol>
  <symbol id="m" overflow="visible">
   <path d="m2.3594-15.312h4.8906v15.031c0 2.0508-0.49609 3.6172-1.4844 4.7031-0.98047 1.082-2.4062 1.625-4.2812 1.625h-2.4219v-3.2188h0.85938c0.92578 0 1.5625-0.21094 1.9062-0.625 0.35156-0.41797 0.53125-1.2461 0.53125-2.4844zm0-5.9688h4.8906v4h-4.8906z"/>
  </symbol>
  <symbol id="l" overflow="visible">
   <path d="m14.719-14.828v3.9844c-0.65625-0.45703-1.3242-0.79688-2-1.0156-0.66797-0.21875-1.3594-0.32812-2.0781-0.32812-1.3672 0-2.4336 0.40234-3.2031 1.2031-0.76172 0.79297-1.1406 1.9062-1.1406 3.3438 0 1.4297 0.37891 2.543 1.1406 3.3438 0.76953 0.79297 1.8359 1.1875 3.2031 1.1875 0.75781 0 1.4844-0.10938 2.1719-0.32812 0.6875-0.22656 1.3203-0.56641 1.9062-1.0156v4c-0.76172 0.28125-1.5391 0.48828-2.3281 0.625-0.78125 0.14453-1.5742 0.21875-2.375 0.21875-2.7617 0-4.9219-0.70703-6.4844-2.125-1.5547-1.4141-2.3281-3.3828-2.3281-5.9062 0-2.5312 0.77344-4.5039 2.3281-5.9219 1.5625-1.4141 3.7227-2.125 6.4844-2.125 0.80078 0 1.5938 0.074219 2.375 0.21875 0.78125 0.13672 1.5547 0.35156 2.3281 0.64062z"/>
  </symbol>
 </defs>
 <g>
  <path d="m614.04 308.8c-2.6172-9.7773-9.1953-18.324-18.559-24.09-19.16-11.496-43.027-7.3477-56.332 9.5117h-30.586c-0.375-7.043-2.4141-12.324-2.5977-12.789-1.6719-4.1914-6.4258-6.2344-10.617-4.5625-4.1914 1.6719-6.2344 6.4258-4.5625 10.617 0.054688 0.13672 5.375 13.844-4.1992 21.551-3.5156 2.832-4.0703 7.9727-1.2422 11.488 1.6172 2.0078 3.9844 3.0469 6.3711 3.0469 1.7969 0 3.6094-0.58984 5.1172-1.8047 2.5039-2.0156 4.1758-2.8594 5.7734-5.1133l44.625-0.12891c3.5781 0 8.0586-1.7461 10.082-5.6445 3.7539-6.3711 10.125-10.023 17.496-10.023 11.133 0 20.188 9.0547 20.188 20.188 0 8.668-5.3281 16.188-13.203 19.012-8.0078-9.6445-19.777-15.125-32.684-15.125-15.398 0-29.586 8.4062-37.098 22.066-2.6914 5.3828-0.85547 11.82 4.3672 15.301 0.125 0.082031 0.25391 0.16016 0.39062 0.22656 3.625 1.8125 8 1.7656 10.977-0.10547 2.1367-1.1562 3.1406-3.082 3.8711-4.543 3.7578-6.3633 10.125-10.012 17.492-10.012 5.6562 0 10.484 1.9609 14.355 5.832 1.6641 1.6641 3.25 3.832 4.2656 5.8203 1.082 2.7539 1.5625 5.3945 1.5625 8.5391v1.1094c-0.58203 7.0586-4.4141 13.332-10.145 16.461-1.8672 1.1172-3.8086 1.7148-5.8398 2.1797l-5.3984-5.3984c-2.293-2.293-5.1055-3.7031-7.6953-4.9922-5.7891-3.2148-12.496-4.8438-19.941-4.8438-15.398 0-29.586 8.4062-37.098 22.066-2.6953 5.3867-0.85547 11.82 4.3711 15.301 0.125 0.082031 0.25391 0.16016 0.38672 0.22656 3.625 1.8125 8 1.7617 10.973-0.10547 1.3828-0.74609 2.2539-1.8086 2.9609-2.668 0.27344-0.33203 0.5625-0.6875 0.91406-1.043 0.21875-0.21875 0.41016-0.46484 0.56641-0.73438 3.75-6.4219 10.145-10.105 17.547-10.105 5.6562 0 10.484 1.9609 14.355 5.832 1.6641 1.6641 3.2539 3.832 4.2656 5.8203 1.082 2.75 1.5625 5.3906 1.5625 8.5391v1.1094c-0.58594 7.0586-4.4141 13.332-10.145 16.461-1.8672 1.1172-3.8086 1.7188-5.8398 2.1836l-5.3945-5.3945c-2.3008-2.3008-5.1172-3.7109-7.6992-4.9961-5.7852-3.2188-12.496-4.8477-19.941-4.8477-15.398 0-29.586 8.4062-37.094 22.066-2.6953 5.3828-0.85938 11.82 4.3672 15.301 0.125 0.082031 0.25391 0.15625 0.38672 0.22656 1.457 0.73047 3.2734 1.6367 5.3867 1.6367 3.7422 0 7.3164-1.9023 9.8008-5.2148 0.082031-0.10938 0.16016-0.22656 0.23047-0.34766 3.75-6.4219 10.145-10.105 17.547-10.105 5.6562 0 10.484 1.9609 14.355 5.832 1.6641 1.6641 3.2539 3.832 4.2656 5.8203 1.082 2.75 1.5625 5.3906 1.5625 8.5391v1.1094c-0.58594 7.0586-4.4141 13.332-10.145 16.461-2.8945 1.7344-6.0625 2.6172-9.4141 2.6172h-28.207l-278.3 0.625c-41.547 0-75.344-33.801-75.344-75.344 0-35.121 23.801-65.086 57.883-72.906 2.7422-0.48828 5.1328-2.0508 6.7461-4.4102 1.5312-2.2383 2.1719-4.9141 1.8086-7.5703l0.019531-95.777h111.14v55.289c0 14.637 11.504 24.293 18.207 27.641 2.1641 1.1641 4.2852 2.0469 6.2969 2.7148 0.58984 1.6875 0.77734 2.582 1.1523 4.7617 0.6875 3.9766 4.1406 6.7852 8.043 6.7852 0.46094 0 0.92969-0.039063 1.3984-0.12109 4.4492-0.76953 7.4297-4.9961 6.6641-9.4414-0.62109-3.5859-1.0391-5.3125-2.457-9.1016-1.4609-3.9023 1.3477-12.207 3.707-16.598 2.1484-3.9609 0.68359-8.918-3.2773-11.074-3.9648-2.1602-8.9258-0.69531-11.082 3.2695-0.37891 0.69922-1.9062 3.6172-3.332 7.6367-2.8359-2.6211-4.8281-2.6211-4.8281-7.7266v-54.035h16.516c5.0156 0 9.0781-4.0664 9.0781-9.0781v-112.01c0-5.0156-4.0664-9.0781-9.0781-9.0781h-15.543v-37.227c0-5.0156-4.0664-9.0781-9.0781-9.0781-5.0156 0-9.0781 4.0664-9.0781 9.0781v37.227l-120.49-0.003906v-37.227c0-5.0156-4.0664-9.0781-9.0781-9.0781-5.0156 0-9.0781 4.0664-9.0781 9.0781v37.227h-15.543c-5.0156 0-9.0781 4.0664-9.0781 9.0781l-0.003906 112.01c0 5.0156 4.0664 9.0781 9.0781 9.0781h17.434v88.379c-17.797 6.0547-33.305 16.984-44.992 31.746-13.832 17.785-21.449 39.5-21.449 61.148 0 53.844 43.805 97.652 97.66 97.652l302.11-0.625h4.3906c23.43 0 42.492-19.344 42.492-43.121 0-2.2891 0-4.4883-0.52344-6.9062 12.82-7.0664 25.594-22.488 25.594-41.984 0-1.9102-0.19141-3.9141-0.59766-6.1445 17.617-5.4219 30.059-22.055 30.059-40.867 0-2.8555-0.32422-5.3477-0.73828-7.6992 20.148-8.3438 30.586-29.938 24.43-51.555zm-466.79-192.03h169.73v93.848h-169.73z"/>
  <path d="m353.42 331.21c-3.0898 11.262 3.6211 24.113 4.3945 25.543 1.4805 2.7266 4.2891 4.2773 7.1875 4.2773 1.3164 0 2.6523-0.32031 3.8906-0.99219 3.9688-2.1523 5.4375-7.1133 3.2852-11.082-1.3906-2.5625-4.0742-9.5-3-13.422 1.1953-4.3516-1.3672-8.8477-5.7188-10.043-4.3477-1.1992-8.8438 1.3633-10.039 5.7188z"/>
  <path d="m267.89 361.05c-1.8086 11.543 6.3047 23.559 7.2383 24.891 1.5898 2.2734 4.125 3.4883 6.707 3.4883 1.6172 0 3.25-0.47656 4.6758-1.4727 3.6992-2.5859 4.6016-7.6797 2.0156-11.379-1.668-2.3867-5.1172-8.9766-4.4883-12.996 0.69922-4.457-2.3516-8.6406-6.8086-9.3398-4.457-0.6875-8.6406 2.3516-9.3398 6.8086z"/>
  <path d="m400.11 416.8c4.4961-0.41016 7.8047-4.3906 7.3945-8.8828-0.66406-7.2344 0.035157-17.211 1.957-19.734 2.7344-3.5898 2.0391-8.7188-1.5508-11.453-3.5859-2.7305-8.7148-2.0391-11.453 1.5508-6.6953 8.793-5.6953 26.051-5.2305 31.129 0.38672 4.2422 3.9531 7.4258 8.1289 7.4258 0.25 0 0.5-0.011719 0.75391-0.035156z"/>
  <path d="m326.87 329.65c-4.0586-1.9688-8.9492-0.27344-10.918 3.7891-5.0625 10.445-4.3555 23.688-4.2578 25.164 0.28516 4.3203 3.875 7.625 8.1445 7.625 0.17578 0 0.35156-0.003906 0.52734-0.019531 4.4961-0.28516 7.9141-4.168 7.6367-8.6641-0.17188-2.8398-0.035156-11.422 2.6562-16.977 1.9688-4.0586 0.27344-8.9492-3.7891-10.918z"/>
  <path d="m347.52 325.96c1.1133 0 2.2461-0.23047 3.3242-0.71094 4.1211-1.8398 5.9727-6.6719 4.1328-10.793-4.3477-9.7461 0.80859-25.402 3.1641-30.609 1.8672-4.1016 0.058593-8.9414-4.043-10.812-4.1016-1.8789-8.9531-0.070312-10.828 4.0352-1.1836 2.5938-11.34 25.852-3.2188 44.047 1.3594 3.0391 4.3438 4.8438 7.4688 4.8438z"/>
  <path d="m377.66 315.94 0.77344-0.74219c1.6211-1.5586 2.3047-3.7578 2.2617-6.0078-0.023437-1.3086 0.47656-2.9961 2.0664-5.0938 8.3516-11.012 3.2344-23.516-0.64062-28.586-2.7422-3.5859-7.8711-4.2734-11.453-1.5352-3.5859 2.7383-4.2734 7.8672-1.5352 11.453 0.035156 0.046874 3.6133 4.8242 0.60547 8.7891-4.6562 6.1367-5.8203 12.016-5.293 16.965 0.6875 6.4492 8.5391 9.2539 13.215 4.7578z"/>
  <path d="m318.25 394.65c4.0898-1.9062 5.8633-6.7656 3.957-10.855-0.40625-0.875-4.1719-8.7148-10.711-14.32-2.9805-2.5508-4.582-8.457-4.9102-10.336-0.74609-4.4336-4.9375-7.4141-9.3867-6.7031-4.4531 0.73438-7.4688 4.9414-6.7305 9.3945 0.21875 1.3281 2.375 13.184 10.398 20.059 3.25 2.7852 5.8242 7.3203 6.5273 8.8047 1.3867 2.9766 4.3359 4.7227 7.4141 4.7227 1.1523 0 2.3242-0.24609 3.4414-0.76562z"/>
  <path d="m331.39 419.58c-0.26953-2.0859-0.30859-5.0664 0.37891-9.0977 0.71094-4.1719-1.5859-8.4492-5.6484-9.6445-4.7422-1.3945-9.5273 1.6523-10.375 6.3945-1.0547 5.9062-1.0586 10.719-0.55078 14.559 0.82812 6.2578 8.3438 9.0547 13.18 5 0.058594-0.050781 0.11719-0.097656 0.17578-0.14844 2.0742-1.7344 3.1875-4.3867 2.8398-7.0625z"/>
  <path d="m348.19 444.83c0.83203 0.26953 1.6797 0.39844 2.5078 0.39844 3.4492 0 6.6562-2.1992 7.7773-5.6562 0.66406-2.043 3.0742-8.2266 6.2344-12.254 5.8398-7.4531 7.5508-12.645 9.1797-21.461 0.82031-4.4375-2.1133-8.6992-6.5508-9.5195-4.4336-0.82422-8.6992 2.1133-9.5195 6.5508-1.3516 7.3203-2.3594 9.7344-5.9766 14.352-5.543 7.0703-8.5977 16.297-8.9258 17.328-1.3789 4.2891 0.98438 8.8789 5.2734 10.262z"/>
  <path d="m422.7 416.07c3.0234 0 5.9297-1.6875 7.3477-4.5859 8.7773-17.961 5.0039-33.352 4.8359-33.996-1.1172-4.3711-5.5664-7.0117-9.9375-5.8984-4.3711 1.1172-7.0156 5.5664-5.8984 9.9375 0.023437 0.10156 2.3867 10.359-3.6836 22.781-1.9805 4.0547-0.30078 8.9492 3.7539 10.93 1.1523 0.56641 2.375 0.83203 3.582 0.83203z"/>
  <path d="m450.68 352.02c0.32422 1.0547 0.33203 4.6445-3.0195 10.867-3.4258 6.3594-4.4727 11.926-4.4062 16.441 0.089844 6.3789 7.3789 10.012 12.648 6.4141 0.070312-0.046875 0.13672-0.09375 0.20703-0.14062 2.2461-1.5312 3.4805-4.082 3.5234-6.7969 0.03125-2.0117 0.57813-4.7578 2.418-8.1719 9.7266-18.055 2.8555-27.16 1.3828-28.801-3.0156-3.3516-8.1836-3.6289-11.543-0.61328-3.1172 2.8047-3.5742 7.4609-1.2109 10.801z"/>
  <path d="m293.2 438.95c1.6094 1.7109 3.7812 2.5781 5.957 2.5781 2.0078 0 4.0156-0.73438 5.5938-2.2188 4.0039-3.7617 8.5391-13.648 0.14844-26.855-1.1836-1.8633-1.543-3.4492-1.5078-4.7188 0.070312-2.5391-0.90625-4.9844-2.8359-6.6367-5.082-4.3438-13.023-1.0625-13.426 5.6094-0.26562 4.3516 0.69531 9.3477 3.9766 14.512 2.4453 3.8477 2.3047 6.0156 2.0078 6.6367-2.8516 3.1211-2.8594 7.9609 0.085937 11.094z"/>
  <path d="m496.57 341.36c3.3125-2.7344 4.3242-7.6055 1.9062-11.156-2.7227-4-8.207-4.7578-11.895-1.7891-8.9688 7.2188-12.41 15.211-13.562 21.594-0.33984 2.4844-0.55469 4.5508-0.52344 6.3711 0.097656 5.7891 6.4453 9.3594 11.539 6.6094 0.054688-0.027344 0.10547-0.058594 0.16016-0.085938 2.582-1.4023 4.2617-4.168 4.0469-7.1016-0.48828-6.7461 3.9609-10.836 8.3281-14.441z"/>
  <path d="m408.7 369.8c1.1367 0.53906 2.332 0.79688 3.5117 0.79688 3.0508 0 5.9805-1.7148 7.3789-4.6562 8.6914-18.215-3.4727-32.773-11.121-37.926-3.7188-2.5078-8.7305-1.5273-11.273 2.1719-2.5391 3.6992-1.5898 8.7734 2.0859 11.344 1.7344 1.2148 10.152 7.75 5.5586 17.371-1.9414 4.0781-0.21484 8.957 3.8594 10.898z"/>
  <path d="m384.98 391.29c2.2305-3.9062 0.87109-8.8906-3.0234-11.141-2.0078-1.1602-7.9609-5.5-8.9219-10.051-0.93359-4.418-5.2773-7.2383-9.6836-6.3047-4.4141 0.93359-7.2383 5.2695-6.3047 9.6836 2.6523 12.547 15.395 20.066 16.836 20.883 1.2695 0.71484 2.6445 1.0547 4 1.0547 2.832 0 5.5859-1.4844 7.0977-4.125z"/>
  <path d="m296.73 344.45c0.58984 0.12891 1.1719 0.19141 1.75 0.19141 3.7578 0 7.1406-2.6094 7.9766-6.4297 0.55859-2.5586 1.3398-11.805-12.059-23.383-3.4141-2.9492-8.5742-2.5703-11.523 0.83984-2.9531 3.4141-2.5742 8.5781 0.83984 11.527 5.5625 4.8047 6.4844 7.8711 6.6211 8.5234-0.37891 4.0508 2.3203 7.8398 6.3945 8.7305z"/>
  <path d="m378.04 331.8c-3.7266 2.5195-4.707 7.5938-2.1992 11.332 2.4961 3.7227 5.1016 10.566 3.3359 12.414-0.6875 0.71875-1.3164 1.4688-1.8711 2.2344-2.6562 3.6484-1.8516 8.7617 1.793 11.418 1.4531 1.0586 3.1367 1.5664 4.8047 1.5664 2.5234 0 5.0156-1.1641 6.6133-3.3594 0.13281-0.18359 0.29688-0.375 0.47656-0.5625 11.801-12.324-0.21484-30.82-1.625-32.887-2.543-3.7227-7.5977-4.6797-11.328-2.1562z"/>
  <path d="m441.2 318.32c-3.6719-2.6211-8.7773-1.7773-11.398 1.8984-8.6523 12.102-4.4727 26.406-0.63672 32.953 1.5234 2.5977 4.2539 4.043 7.0586 4.043 1.4023 0 2.8242-0.36328 4.125-1.1211 3.8945-2.2812 5.2031-7.2852 2.9219-11.18-0.050781-0.085937-4.8359-8.6602-0.16797-15.188 2.6211-3.6797 1.7695-8.7812-1.9023-11.406z"/>
  <path d="m441.95 426.79c2.0625 0 4.1328-0.77734 5.7227-2.3359 0.37109-0.36328 0.77344-0.71875 1.1992-1.0625 3.6953-2.9727 6.4336-6.8242 8.1484-11.441 1.5703-4.2305-0.58594-8.9336-4.8164-10.504-4.2383-1.5664-8.9336 0.58984-10.504 4.8164-0.68359 1.8438-1.6914 3.2812-3.082 4.4023-0.84766 0.68359-1.6484 1.3945-2.3828 2.1172-3.2227 3.1602-3.2734 8.332-0.11328 11.555 1.5938 1.6328 3.7109 2.4531 5.8281 2.4531z"/>
  <path d="m439.56 305.64c-0.48438 4.4883 2.7617 8.5195 7.25 9 0.29688 0.035156 0.59375 0.046875 0.88672 0.046875 4.1211 0 7.6641-3.1055 8.1133-7.2969 1.4883-13.793-4.625-28.242-4.8828-28.848-1.7773-4.1406-6.5703-6.0586-10.711-4.2852-4.1445 1.7656-6.0742 6.5664-4.3164 10.715 0.042968 0.10938 4.6836 11.191 3.6602 20.668z"/>
  <path d="m472.36 331.84c1.6328-3.0117 3.1719-6.7656 4.3906-11.43 1.3086-5.0195-1.1758-9.9883-5.4648-11.141l-0.09375-0.027344c-4.3789-1.1758-8.9453 2.1016-10.301 7.2188-0.71875 2.707-1.543 4.6992-2.3086 6.1406-1.3516 2.5469-1.6953 5.5508-0.85938 8.1875 0.023438 0.078125 0.050782 0.15625 0.074219 0.23828 2.2266 7.0977 10.871 7.6172 14.562 0.8125z"/>
  <path d="m463.77 286.67c0.42578 2.7031 0.53125 3.3477 0.55078 7.0273 0.027344 4.4961 3.6797 8.125 8.168 8.125h0.050781c4.5117-0.027343 8.1523-3.707 8.125-8.2188-0.027344-4.7305-0.23828-6.2383-0.75391-9.4883-0.11328-0.69922-0.23828-1.5117-0.38672-2.5078-0.66406-4.4648-4.8008-7.5508-9.2852-6.8828-4.4648 0.66406-7.5469 4.8203-6.8828 9.2852 0.16016 1.0586 0.29688 1.918 0.41406 2.6602z"/>
  <path d="m413.12 307.13c-0.80078 1.6133-1.7109 3.4375-2.457 5.7969-1.3672 4.3008 1.0156 8.8945 5.3164 10.262 0.82031 0.26172 1.6562 0.38281 2.4727 0.38281 3.4648 0 6.6836-2.2227 7.7852-5.7031 0.36719-1.1562 0.875-2.1797 1.5156-3.4688 1.7969-3.6172 4.0312-8.1172 3.9961-16.809-0.019531-4.5039-3.6719-8.1367-8.1719-8.1367h-0.035156c-4.5117 0.019531-8.1562 3.6914-8.1367 8.207 0.023438 4.8164-0.89453 6.668-2.2852 9.4688z"/>
  <path d="m378.36 445.16c0.26172 4.3359 3.8594 7.6836 8.1523 7.6836 0.16406 0 0.32812-0.003906 0.49609-0.015625 4.5039-0.26953 7.9375-4.1406 7.668-8.6484-0.32813-5.4688-1.6445-8.3438-2.6055-10.445-0.79297-1.7344-1.3672-2.9883-0.83984-9.1641 0.38281-4.4961-2.9492-8.4531-7.4453-8.8398-4.5039-0.42578-8.457 2.9492-8.8398 7.4453-0.82812 9.6953 0.47266 13.453 2.2617 17.363 0.65234 1.4219 1.0078 2.1992 1.1523 4.6211z"/>
  <path d="m397.7 323.57c1.1211 0 2.2617-0.23047 3.3516-0.72266 4.1133-1.8516 5.9492-6.6914 4.0938-10.809-2.8711-6.3711 4.707-17.574 8.8242-22.008 3.0781-3.293 2.9102-8.4531-0.375-11.539-3.2891-3.0859-8.4609-2.9258-11.551 0.36328-2.0586 2.1914-19.887 21.945-11.797 39.895 1.3594 3.0312 4.3359 4.8203 7.4531 4.8203z"/>
  <path d="m333.91 345.38c-0.99219 3.0664-3.6328 11.211-0.46094 23.875 0.92969 3.7109 4.2617 6.1875 7.9219 6.1875 0.65625 0 1.3242-0.078125 1.9922-0.24609 4.3789-1.0977 7.0391-5.5312 5.9414-9.9102-2.0312-8.1172-0.5-12.848 0.15625-14.867 0.375-1.1523 0.83594-2.5859 0.64453-4.4688-0.46484-4.4883-4.4844-7.7539-8.9727-7.2852-3.6914 0.38281-6.5508 3.1641-7.1953 6.6367z"/>
  <path d="m402.14 440.64c0.14453 0.35547 0.46484 1.6055 0.66016 3.7695 0.37891 4.25 3.9453 7.4453 8.1328 7.4453 0.24219 0 0.48828-0.011719 0.73438-0.03125 4.4961-0.40234 7.8164-4.3711 7.4141-8.8672-0.30469-3.418-0.90625-6.2539-1.7852-8.4336-0.83594-2.0664-1.5078-4.1133-2-6.0781-1.0977-4.3789-5.5391-7.0312-9.9141-5.9375-4.3789 1.0977-7.0352 5.5391-5.9375 9.9141 0.67188 2.6953 1.5781 5.4609 2.6953 8.2188z"/>
  <path d="m342.18 412.24c0.73828 0.20703 1.4805 0.30469 2.2109 0.30469 3.5703 0 6.8516-2.3594 7.8633-5.9688 1.3789-4.918 0.64453-11.691-2.1875-20.129-1.4375-4.2773-6.0664-6.5898-10.348-5.1484-4.2773 1.4375-6.582 6.0703-5.1484 10.348 2.1328 6.3594 2.1172 9.8125 1.9453 10.527-1.2109 4.3438 1.3242 8.8516 5.6641 10.066z"/>

 </g>
</svg>
