<?xml version="1.0" encoding="UTF-8"?>
<svg width="700pt" height="700pt" version="1.1" viewBox="0 0 700 700" xmlns="http://www.w3.org/2000/svg" xmlns:xlink="http://www.w3.org/1999/xlink">
 <defs>
  <symbol id="p" overflow="visible">
   <path d="m31.266-1.875c-1.6172 0.84375-3.2969 1.4766-5.0469 1.8906-1.7422 0.42578-3.5586 0.64062-5.4531 0.64062-5.668 0-10.156-1.582-13.469-4.75-3.3125-3.1641-4.9688-7.4609-4.9688-12.891 0-5.4375 1.6562-9.7383 4.9688-12.906 3.3125-3.1641 7.8008-4.75 13.469-4.75 1.8945 0 3.7109 0.21484 5.4531 0.64062 1.75 0.42969 3.4297 1.0586 5.0469 1.8906v7.0469c-1.625-1.1133-3.2305-1.9258-4.8125-2.4375-1.5742-0.51953-3.2344-0.78125-4.9844-0.78125-3.1367 0-5.6016 1.0078-7.3906 3.0156-1.793 2-2.6875 4.7617-2.6875 8.2812 0 3.5117 0.89453 6.2734 2.6875 8.2812 1.7891 2 4.2539 3 7.3906 3 1.75 0 3.4102-0.25391 4.9844-0.76562 1.582-0.51953 3.1875-1.332 4.8125-2.4375z"/>
  </symbol>
  <symbol id="i" overflow="visible">
   <path d="m22.875-18.578c-0.71094-0.33203-1.418-0.57812-2.125-0.73438-0.71094-0.15625-1.418-0.23438-2.125-0.23438-2.1055 0-3.7266 0.67188-4.8594 2.0156-1.125 1.3438-1.6875 3.2656-1.6875 5.7656v11.766h-8.1562v-25.531h8.1562v4.2031c1.0508-1.6758 2.2539-2.8945 3.6094-3.6562 1.3633-0.76953 2.9922-1.1562 4.8906-1.1562 0.26953 0 0.56641 0.011719 0.89062 0.03125 0.32031 0.023437 0.78516 0.074219 1.3906 0.15625z"/>
  </symbol>
  <symbol id="b" overflow="visible">
   <path d="m29.391-12.828v2.3281h-19.062c0.19531 1.9062 0.88281 3.3398 2.0625 4.2969 1.1875 0.96094 2.8438 1.4375 4.9688 1.4375 1.7188 0 3.4766-0.25391 5.2812-0.76562 1.8008-0.50781 3.6484-1.2812 5.5469-2.3125v6.2969c-1.9297 0.73047-3.8594 1.2773-5.7969 1.6406-1.9297 0.375-3.8555 0.5625-5.7812 0.5625-4.6172 0-8.2031-1.1719-10.766-3.5156s-3.8438-5.6328-3.8438-9.875c0-4.1641 1.2539-7.4414 3.7656-9.8281 2.5195-2.3828 5.9844-3.5781 10.391-3.5781 4.0078 0 7.2188 1.2109 9.625 3.625 2.4062 2.418 3.6094 5.6484 3.6094 9.6875zm-8.375-2.7188c0-1.5391-0.45312-2.7852-1.3594-3.7344-0.90625-0.95703-2.0898-1.4375-3.5469-1.4375-1.5859 0-2.8711 0.44922-3.8594 1.3438-0.98047 0.88672-1.5898 2.1641-1.8281 3.8281z"/>
  </symbol>
  <symbol id="a" overflow="visible">
   <path d="m15.359-11.484c-1.6992 0-2.9805 0.29297-3.8438 0.875-0.85547 0.57422-1.2812 1.4219-1.2812 2.5469 0 1.0312 0.34375 1.8398 1.0312 2.4219 0.69531 0.58594 1.6602 0.875 2.8906 0.875 1.5312 0 2.8164-0.54688 3.8594-1.6406 1.0508-1.1016 1.5781-2.4844 1.5781-4.1406v-0.9375zm12.469-3.0781v14.562h-8.2344v-3.7812c-1.0938 1.5547-2.3242 2.6836-3.6875 3.3906-1.3672 0.69531-3.0273 1.0469-4.9844 1.0469-2.6484 0-4.7969-0.76953-6.4531-2.3125-1.6484-1.5391-2.4688-3.5391-2.4688-6 0-2.9883 1.0312-5.1797 3.0938-6.5781 2.0625-1.4062 5.2969-2.1094 9.7031-2.1094h4.7969v-0.64062c0-1.2891-0.51172-2.2344-1.5312-2.8281-1.0117-0.60156-2.5938-0.90625-4.75-0.90625-1.75 0-3.3828 0.17969-4.8906 0.53125-1.5 0.34375-2.8984 0.86719-4.1875 1.5625v-6.2188c1.75-0.42578 3.5039-0.75 5.2656-0.96875 1.7578-0.21875 3.5234-0.32812 5.2969-0.32812 4.5938 0 7.9102 0.91406 9.9531 2.7344 2.0508 1.8125 3.0781 4.7617 3.0781 8.8438z"/>
  </symbol>
  <symbol id="h" overflow="visible">
   <path d="m12.828-32.766v7.2344h8.4062v5.8438h-8.4062v10.828c0 1.1797 0.23438 1.9805 0.70312 2.4062 0.47656 0.41797 1.4141 0.625 2.8125 0.625h4.1875v5.8281h-7c-3.2188 0-5.5-0.67188-6.8438-2.0156s-2.0156-3.625-2.0156-6.8438v-10.828h-4.0625v-5.8438h4.0625v-7.2344z"/>
  </symbol>
  <symbol id="g" overflow="visible">
   <path d="m21.281-21.781v-13.672h8.2031v35.453h-8.2031v-3.6875c-1.125 1.5-2.3672 2.6016-3.7188 3.2969-1.3438 0.69531-2.9062 1.0469-4.6875 1.0469-3.1484 0-5.7305-1.25-7.75-3.75-2.0234-2.5-3.0312-5.7109-3.0312-9.6406 0-3.9375 1.0078-7.1562 3.0312-9.6562 2.0195-2.5 4.6016-3.75 7.75-3.75 1.7578 0 3.3164 0.35547 4.6719 1.0625 1.3633 0.71094 2.6094 1.8086 3.7344 3.2969zm-5.375 16.516c1.75 0 3.082-0.63281 4-1.9062 0.91406-1.2812 1.375-3.1328 1.375-5.5625 0-2.4375-0.46094-4.2891-1.375-5.5625-0.91797-1.2812-2.25-1.9219-4-1.9219-1.7305 0-3.0586 0.64062-3.9844 1.9219-0.91797 1.2734-1.375 3.125-1.375 5.5625 0 2.4297 0.45703 4.2812 1.375 5.5625 0.92578 1.2734 2.2539 1.9062 3.9844 1.9062z"/>
  </symbol>
  <symbol id="f" overflow="visible">
   <path d="m17.5-5.2656c1.75 0 3.082-0.63281 4-1.9062 0.91406-1.2812 1.375-3.1328 1.375-5.5625 0-2.4375-0.46094-4.2891-1.375-5.5625-0.91797-1.2812-2.25-1.9219-4-1.9219s-3.0938 0.64844-4.0312 1.9375c-0.92969 1.2812-1.3906 3.1328-1.3906 5.5469 0 2.418 0.46094 4.2656 1.3906 5.5469 0.9375 1.2812 2.2812 1.9219 4.0312 1.9219zm-5.4219-16.516c1.125-1.4883 2.3672-2.5859 3.7344-3.2969 1.3633-0.70703 2.9375-1.0625 4.7188-1.0625 3.1445 0 5.7266 1.25 7.75 3.75 2.0195 2.5 3.0312 5.7188 3.0312 9.6562 0 3.9297-1.0117 7.1406-3.0312 9.6406-2.0234 2.5-4.6055 3.75-7.75 3.75-1.7812 0-3.3555-0.35156-4.7188-1.0469-1.3672-0.70703-2.6094-1.8047-3.7344-3.2969v3.6875h-8.1562v-35.453h8.1562z"/>
  </symbol>
  <symbol id="e" overflow="visible">
   <path d="m0.5625-25.531h8.1719l6.8594 17.328 5.8281-17.328h8.1562l-10.734 27.953c-1.0742 2.832-2.3281 4.8164-3.7656 5.9531-1.4375 1.1328-3.3359 1.7031-5.6875 1.7031h-4.7188v-5.3594h2.5469c1.3828 0 2.3906-0.22656 3.0156-0.67188 0.63281-0.4375 1.1289-1.2266 1.4844-2.3594l0.21875-0.70312z"/>
  </symbol>
  <symbol id="d" overflow="visible">
   <path d="m27.969-32.953v7.2031c-1.875-0.83203-3.7031-1.4609-5.4844-1.8906-1.7734-0.42578-3.4492-0.64062-5.0312-0.64062-2.0938 0-3.6484 0.29297-4.6562 0.875-1 0.57422-1.5 1.4688-1.5 2.6875 0 0.90625 0.33594 1.6172 1.0156 2.125 0.67578 0.51172 1.9062 0.94922 3.6875 1.3125l3.7344 0.75c3.7812 0.76172 6.4688 1.918 8.0625 3.4688 1.6016 1.543 2.4062 3.7461 2.4062 6.6094 0 3.75-1.1172 6.543-3.3438 8.375-2.2305 1.8242-5.6328 2.7344-10.203 2.7344-2.1562 0-4.3242-0.20312-6.5-0.60938-2.168-0.40625-4.3398-1.0156-6.5156-1.8281v-7.4062c2.1758 1.1562 4.2734 2.0273 6.2969 2.6094 2.0312 0.58594 3.9883 0.875 5.875 0.875 1.9141 0 3.3789-0.31641 4.3906-0.95312 1.0195-0.63281 1.5312-1.5469 1.5312-2.7344 0-1.0625-0.34375-1.8789-1.0312-2.4531-0.6875-0.58203-2.0703-1.1016-4.1406-1.5625l-3.3906-0.75c-3.4062-0.72656-5.8984-1.8906-7.4688-3.4844-1.5742-1.5938-2.3594-3.7422-2.3594-6.4531 0-3.3828 1.0938-5.9883 3.2812-7.8125 2.1875-1.8203 5.332-2.7344 9.4375-2.7344 1.875 0 3.7969 0.14062 5.7656 0.42188 1.9766 0.28125 4.0234 0.70312 6.1406 1.2656z"/>
  </symbol>
  <symbol id="o" overflow="visible">
   <path d="m27.578-21.281c1.0312-1.582 2.2539-2.7852 3.6719-3.6094 1.4258-0.83203 2.9883-1.25 4.6875-1.25 2.9375 0 5.1719 0.90625 6.7031 2.7188 1.5312 1.8047 2.2969 4.4297 2.2969 7.875v15.547h-8.2031v-13.312c0.019531-0.19531 0.03125-0.39844 0.03125-0.60938 0.007813-0.21875 0.015625-0.51953 0.015625-0.90625 0-1.8125-0.26562-3.125-0.79688-3.9375s-1.3906-1.2188-2.5781-1.2188c-1.5547 0-2.75 0.64062-3.5938 1.9219-0.84375 1.2734-1.2773 3.1172-1.2969 5.5312v12.531h-8.2031v-13.312c0-2.8203-0.24609-4.6406-0.73438-5.4531-0.49219-0.8125-1.3555-1.2188-2.5938-1.2188-1.5742 0-2.7891 0.64062-3.6406 1.9219-0.84375 1.2812-1.2656 3.1172-1.2656 5.5v12.562h-8.2031v-25.531h8.2031v3.75c1-1.4453 2.1484-2.5352 3.4531-3.2656 1.3008-0.72656 2.7344-1.0938 4.2969-1.0938 1.7578 0 3.3164 0.42969 4.6719 1.2812 1.3516 0.84375 2.3789 2.0391 3.0781 3.5781z"/>
  </symbol>
  <symbol id="c" overflow="visible">
   <path d="m23.859-24.719v6.1875c-1.75-0.72656-3.4375-1.2734-5.0625-1.6406-1.625-0.36328-3.1562-0.54688-4.5938-0.54688-1.5547 0-2.7109 0.19922-3.4688 0.59375-0.75 0.38672-1.125 0.98047-1.125 1.7812 0 0.65625 0.28516 1.1641 0.85938 1.5156 0.57031 0.34375 1.5938 0.60156 3.0625 0.76562l1.4375 0.20312c4.1758 0.53125 6.9844 1.4062 8.4219 2.625 1.4453 1.2109 2.1719 3.1172 2.1719 5.7188 0 2.7188-1.0078 4.7617-3.0156 6.125-2 1.3672-4.9922 2.0469-8.9688 2.0469-1.6875 0-3.4336-0.13672-5.2344-0.40625-1.793-0.25781-3.6406-0.65625-5.5469-1.1875v-6.2031c1.625 0.79297 3.2891 1.3867 5 1.7812 1.7188 0.39844 3.457 0.59375 5.2188 0.59375 1.5938 0 2.7891-0.21875 3.5938-0.65625 0.8125-0.4375 1.2188-1.0938 1.2188-1.9688 0-0.72656-0.28125-1.2695-0.84375-1.625-0.55469-0.35156-1.6562-0.62891-3.3125-0.82812l-1.4375-0.1875c-3.625-0.44531-6.168-1.2852-7.625-2.5156-1.4609-1.2383-2.1875-3.1094-2.1875-5.6094 0-2.707 0.92188-4.7109 2.7656-6.0156 1.8516-1.3125 4.6953-1.9688 8.5312-1.9688 1.5 0 3.0781 0.11719 4.7344 0.34375 1.6562 0.23047 3.457 0.58984 5.4062 1.0781z"/>
  </symbol>
  <symbol id="n" overflow="visible">
   <path d="m29.578-15.547v15.547h-8.2031v-11.844c0-2.2383-0.054688-3.7734-0.15625-4.6094-0.09375-0.83203-0.26172-1.4453-0.5-1.8438-0.32422-0.53125-0.76172-0.94141-1.3125-1.2344-0.54297-0.30078-1.1641-0.45312-1.8594-0.45312-1.6992 0-3.0391 0.65625-4.0156 1.9688-0.96875 1.3125-1.4531 3.1328-1.4531 5.4531v12.562h-8.1562v-35.453h8.1562v13.672c1.2266-1.4883 2.5352-2.5859 3.9219-3.2969 1.3828-0.70703 2.9102-1.0625 4.5781-1.0625 2.9453 0 5.1797 0.90625 6.7031 2.7188 1.5312 1.8047 2.2969 4.4297 2.2969 7.875z"/>
  </symbol>
  <symbol id="m" overflow="visible">
   <path d="m3.9219-25.531h8.1562v25.531h-8.1562zm0-9.9219h8.1562v6.6406h-8.1562z"/>
  </symbol>
  <symbol id="l" overflow="visible">
   <path d="m24.547-24.719v6.6406c-1.1172-0.75781-2.2305-1.3203-3.3438-1.6875-1.1172-0.36328-2.2734-0.54688-3.4688-0.54688-2.2812 0-4.0586 0.66797-5.3281 2-1.2734 1.3359-1.9062 3.1953-1.9062 5.5781 0 2.3867 0.63281 4.2461 1.9062 5.5781 1.2695 1.3242 3.0469 1.9844 5.3281 1.9844 1.2695 0 2.4766-0.1875 3.625-0.5625 1.1445-0.38281 2.207-0.94531 3.1875-1.6875v6.6719c-1.2812 0.46875-2.5781 0.81641-3.8906 1.0469-1.3125 0.23828-2.6328 0.35938-3.9531 0.35938-4.6055 0-8.2109-1.1758-10.812-3.5312-2.5938-2.3633-3.8906-5.6484-3.8906-9.8594 0-4.207 1.2969-7.4922 3.8906-9.8594 2.6016-2.3633 6.207-3.5469 10.812-3.5469 1.332 0 2.6484 0.12109 3.9531 0.35938 1.3008 0.23047 2.5977 0.58594 3.8906 1.0625z"/>
  </symbol>
  <symbol id="k" overflow="visible">
   <path d="m16.062-20.312c-1.8047 0-3.1836 0.65234-4.1406 1.9531-0.94922 1.3047-1.4219 3.1797-1.4219 5.625 0 2.4492 0.47266 4.3242 1.4219 5.625 0.95703 1.293 2.3359 1.9375 4.1406 1.9375 1.7812 0 3.1406-0.64453 4.0781-1.9375 0.94531-1.3008 1.4219-3.1758 1.4219-5.625 0-2.4453-0.47656-4.3203-1.4219-5.625-0.9375-1.3008-2.2969-1.9531-4.0781-1.9531zm0-5.8281c4.3945 0 7.8281 1.1875 10.297 3.5625 2.4688 2.3672 3.7031 5.6484 3.7031 9.8438 0 4.1875-1.2344 7.4688-3.7031 9.8438-2.4688 2.3672-5.9023 3.5469-10.297 3.5469-4.4062 0-7.8555-1.1797-10.344-3.5469-2.4805-2.375-3.7188-5.6562-3.7188-9.8438 0-4.1953 1.2383-7.4766 3.7188-9.8438 2.4883-2.375 5.9375-3.5625 10.344-3.5625z"/>
  </symbol>
  <symbol id="j" overflow="visible">
   <path d="m29.578-15.547v15.547h-8.2031v-11.891c0-2.207-0.054688-3.7266-0.15625-4.5625-0.09375-0.83203-0.26172-1.4453-0.5-1.8438-0.32422-0.53125-0.76172-0.94141-1.3125-1.2344-0.54297-0.30078-1.1641-0.45312-1.8594-0.45312-1.6992 0-3.0391 0.65625-4.0156 1.9688-0.96875 1.3125-1.4531 3.1328-1.4531 5.4531v12.562h-8.1562v-25.531h8.1562v3.75c1.2266-1.4883 2.5352-2.5859 3.9219-3.2969 1.3828-0.70703 2.9102-1.0625 4.5781-1.0625 2.9453 0 5.1797 0.90625 6.7031 2.7188 1.5312 1.8047 2.2969 4.4297 2.2969 7.875z"/>
  </symbol>
 </defs>
 <g>
  <path d="m307.35 274.59c-7.1875-9.6133-26.133-31.918-46.016-31.918-19.879 0-38.828 22.309-46.012 31.922v-0.003906c-2.0625 2.4922-1.8594 6.1523 0.46484 8.4023 8.7734 9.332 26.414 25.012 45.547 25.012 19.133 0 36.773-15.68 45.547-25.012 2.3008-2.2617 2.5-5.8984 0.46875-8.4023zm0 0c-7.1875-9.6133-26.133-31.918-46.016-31.918-19.879 0-38.828 22.309-46.012 31.922v-0.003906c-2.0625 2.4922-1.8594 6.1523 0.46484 8.4023 8.7734 9.332 26.414 25.012 45.547 25.012 19.133 0 36.773-15.68 45.547-25.012 2.3008-2.2617 2.5-5.8984 0.46875-8.4023zm0 0c-7.1875-9.6133-26.133-31.918-46.016-31.918-19.879 0-38.828 22.309-46.012 31.922v-0.003906c-2.0625 2.4922-1.8594 6.1523 0.46484 8.4023 8.7734 9.332 26.414 25.012 45.547 25.012 19.133 0 36.773-15.68 45.547-25.012 2.3008-2.2617 2.5-5.8984 0.46875-8.4023zm-208.51-73.824c-0.625 4.6055-0.90625 9.2539-0.83984 13.906 0 0.74609 4.668 74.387 58.238 122.27 2.2383-25.551-1.7305-51.262-11.57-74.945-11.355-23.07-26.895-43.832-45.828-61.227zm208.51 73.828c-7.1875-9.6172-26.133-31.922-46.016-31.922-19.879 0-38.828 22.309-46.012 31.922v-0.003906c-2.0625 2.4922-1.8594 6.1523 0.46484 8.4023 8.7734 9.332 26.414 25.012 45.547 25.012 19.133 0 36.773-15.68 45.547-25.012 2.3008-2.2617 2.5-5.8984 0.46875-8.4023zm0 0c-7.1875-9.6172-26.133-31.922-46.016-31.922-19.879 0-38.828 22.309-46.012 31.922v-0.003906c-2.0625 2.4922-1.8594 6.1523 0.46484 8.4023 8.7734 9.332 26.414 25.012 45.547 25.012 19.133 0 36.773-15.68 45.547-25.012 2.3008-2.2617 2.5-5.8984 0.46875-8.4023zm0 0c-7.1875-9.6172-26.133-31.922-46.016-31.922-19.879 0-38.828 22.309-46.012 31.922v-0.003906c-2.0625 2.4922-1.8594 6.1523 0.46484 8.4023 8.7734 9.332 26.414 25.012 45.547 25.012 19.133 0 36.773-15.68 45.547-25.012 2.3008-2.2617 2.5-5.8984 0.46875-8.4023zm0 0c-7.1875-9.6172-26.133-31.922-46.016-31.922-19.879 0-38.828 22.309-46.012 31.922v-0.003906c-2.0625 2.4922-1.8594 6.1523 0.46484 8.4023 8.7734 9.332 26.414 25.012 45.547 25.012 19.133 0 36.773-15.68 45.547-25.012 2.3008-2.2617 2.5-5.8984 0.46875-8.4023zm177.33 0c-7.1875-9.6172-26.133-31.922-46.012-31.922-10.395 0.86719-20.191 5.207-27.816 12.32-6.7461 5.8633-12.848 12.434-18.199 19.598-2.0625 2.4922-1.8594 6.1523 0.46875 8.4023 8.7734 9.332 26.414 25.012 45.547 25.012 19.133 0 36.773-15.68 45.547-25.012 2.3242-2.25 2.5273-5.9102 0.46484-8.4023zm-177.33 0c-7.1875-9.6172-26.133-31.922-46.016-31.922-19.879 0-38.828 22.309-46.012 31.922v-0.003906c-2.0625 2.4922-1.8594 6.1523 0.46484 8.4023 8.7734 9.332 26.414 25.012 45.547 25.012 19.133 0 36.773-15.68 45.547-25.012 2.3008-2.2617 2.5-5.8984 0.46875-8.4023zm177.33 0c-7.1875-9.6172-26.133-31.922-46.012-31.922-10.395 0.86719-20.191 5.207-27.816 12.32-6.7461 5.8633-12.848 12.434-18.199 19.598-2.0625 2.4922-1.8594 6.1523 0.46875 8.4023 8.7734 9.332 26.414 25.012 45.547 25.012 19.133 0 36.773-15.68 45.547-25.012 2.3242-2.25 2.5273-5.9102 0.46484-8.4023zm-177.33 0c-7.1875-9.6172-26.133-31.922-46.016-31.922-19.879 0-38.828 22.309-46.012 31.922v-0.003906c-2.0625 2.4922-1.8594 6.1523 0.46484 8.4023 8.7734 9.332 26.414 25.012 45.547 25.012 19.133 0 36.773-15.68 45.547-25.012 2.3008-2.2617 2.5-5.8984 0.46875-8.4023zm131.32-31.922c-10.395 0.86719-20.191 5.207-27.816 12.32-6.7461 5.8633-12.848 12.434-18.199 19.598-2.0625 2.4922-1.8594 6.1523 0.46875 8.4023 8.7734 9.332 26.414 25.012 45.547 25.012 19.133 0 36.773-15.68 45.547-25.012 2.3242-2.25 2.5273-5.9102 0.46484-8.4023-7.1875-9.6133-26.133-31.918-46.012-31.918zm-35.746 194.5-46.199-6.7188h-0.003906c-4.4531-0.65234-8.9805-0.65234-13.438 0l-46.293 6.7188c-2.2383 0.32812-4.5195 0.23438-6.7227-0.27734l-6.9062-1.4922 16.332 17.828 0.003906-0.003907c1.5742 1.7109 2.8125 3.707 3.6367 5.8789l5.9727 15.68 29.398-5.1328h0.003906c7.4766-1.2422 15.109-1.2422 22.586 0l29.398 5.1328 5.9766-15.586c0.80469-2.2109 2.0391-4.2422 3.6406-5.9727l16.332-17.828-7 1.4922v0.003906c-2.1953 0.5625-4.4844 0.65625-6.7188 0.27734zm-96.043-154.18c2.3008-2.2617 2.5-5.8984 0.46875-8.4023-7.1875-9.6133-26.133-31.918-46.016-31.918-19.879 0-38.828 22.309-46.012 31.922v-0.003906c-2.0625 2.4922-1.8594 6.1523 0.46484 8.4023 8.7734 9.332 26.414 25.012 45.547 25.012 19.133 0 36.773-15.68 45.547-25.012zm267.4-81.105 0.003906-0.003906c-12.426 2.1641-25.004 3.3203-37.613 3.4531-4.8438 0.015625-8.8945-3.668-9.3359-8.4922-7.1875-79.801-37.801-124.04-71.586-148.68 5.0625 6.5039 8.8359 13.918 11.105 21.84l0.375 1.4922c2.1094 7.9102 6.4102 15.062 12.414 20.629 12.426 11.641 19.543 27.863 19.691 44.891v4.1094c0 5.1523-4.1758 9.332-9.332 9.332s-9.332-4.1797-9.332-9.332v-4.1094c-0.070313-11.906-5.1094-23.242-13.906-31.266-8.4766-8.0273-14.578-18.23-17.641-29.492l-0.375-1.3984v-0.003907c-2.8789-10.395-9.4062-19.406-18.387-25.387l-40.039-26.879 2.1484 9.8008h-0.003906c2.0273 9.3477 8.4141 17.156 17.176 21 14.441 6.6758 24.77 19.922 27.719 35.559l4.0117 22.867h0.003906c0.92969 5.043 3.1875 9.7422 6.5312 13.629l21.465 27.441 0.003906-0.003906c3.1562 4.082 2.4492 9.9453-1.5898 13.16-1.6641 1.2656-3.6953 1.9531-5.7852 1.9609-2.8711 0.011719-5.5898-1.2969-7.375-3.5469l-21.188-27.16h0.003906c-5.3906-6.3828-8.9961-14.078-10.453-22.305l-3.9219-22.773c-1.9414-9.6992-8.4375-17.867-17.453-21.934-13.984-6.375-24.148-18.965-27.441-33.973l-3.7344-17.828c-3.6406-0.1875-6.9062-0.28125-9.707-0.28125-0.74609 7.4648-1.3086 15.121-1.3086 22.961l-0.089844 3.3594c-0.09375 17.828 0.55859 30.055 10.734 37.148 1.4922 1.0273 3.0781 2.0547 4.668 2.9883v-0.003906c5.1133 2.9492 9.793 6.5938 13.906 10.828 7.5664 9.6523 11.379 21.723 10.734 33.973-0.66016 8.0742 1.5898 16.121 6.3438 22.68 1.7461 1.7773 2.707 4.1758 2.6719 6.668-0.035156 2.4883-1.0625 4.8594-2.8555 6.5859-1.7148 1.6953-4.0312 2.6367-6.4414 2.6133-2.5312 0.035156-4.9648-0.98047-6.7188-2.8008-8.1211-9.6484-12.262-22.031-11.574-34.625 0.58203-8-1.5547-15.957-6.0664-22.586-2.9492-2.9883-6.3125-5.5352-9.9883-7.5625-1.7734-1.1211-3.5469-2.2422-5.3203-3.4531-3.6289-2.5742-6.8164-5.7266-9.4258-9.332-2.6094 3.6055-5.7969 6.7578-9.4258 9.332-1.7734 1.2109-3.5469 2.332-5.3203 3.4531-3.6758 2.0273-7.0391 4.5742-9.9883 7.5625-4.5117 6.6289-6.6484 14.586-6.0664 22.586 0.6875 12.594-3.4531 24.977-11.574 34.625-1.7539 1.8203-4.1875 2.8359-6.7188 2.8008-2.4102 0.023438-4.7266-0.91797-6.4414-2.6133-1.793-1.7266-2.8203-4.0977-2.8555-6.5859-0.035156-2.4922 0.92578-4.8906 2.6719-6.668 4.7539-6.5586 7.0039-14.605 6.3438-22.68-0.64453-12.25 3.168-24.32 10.734-33.973 4.1133-4.2344 8.793-7.8789 13.906-10.828 1.5859-0.93359 3.1719-1.9609 4.668-2.9883 10.172-7.0938 10.828-19.32 10.734-37.148l-0.09375-3.3594c0-7.8398-0.55859-15.492-1.3086-22.961-2.8008 0-6.0664 0.09375-9.707 0.28125l-3.7344 17.828 0.003906 0.003906c-3.293 15.008-13.457 27.598-27.441 33.973-9.0156 4.0664-15.512 12.234-17.453 21.934l-4.0117 22.867v-0.003906c-1.4375 8.3281-5.1172 16.102-10.641 22.496l-20.906 26.879c-1.7852 2.25-4.5039 3.5586-7.375 3.5469-2.0898-0.007812-4.1211-0.69531-5.7852-1.9609-4.0391-3.2148-4.7461-9.0781-1.5898-13.16l21.188-27.066c3.4844-3.9609 5.8086-8.8047 6.7227-14l4.1055-22.867c2.9492-15.637 13.277-28.883 27.719-35.559 8.7617-3.8438 15.148-11.652 17.176-21l2.1484-9.8008-39.949 26.879c-9.0547 5.9648-15.625 15.023-18.48 25.48l-0.375 1.3086c-3.0625 11.262-9.1641 21.465-17.641 29.492-8.7969 8.0234-13.836 19.359-13.906 31.266v4.1094c0 5.1523-4.1758 9.332-9.332 9.332s-9.332-4.1797-9.332-9.332v-4.1094c0.14844-17.027 7.2656-33.25 19.691-44.891 6.0039-5.5664 10.305-12.719 12.414-20.629l0.375-1.3984c2.25-7.9609 6.0234-15.406 11.105-21.934-33.785 24.547-64.398 68.879-71.586 148.68-0.44141 4.8242-4.4922 8.5078-9.3359 8.4922-12.609-0.13281-25.188-1.2891-37.613-3.4531 14.969 15.441 27.211 33.301 36.215 52.828 12.961 31.371 16.746 65.773 10.918 99.215 3.2656 9.9883 21.746 62.719 60.574 86.055v-0.003906c2.3789 1.4609 4.0117 3.875 4.4805 6.6289 0.55859 3.4531 14.465 85.773 112.09 94.734 97.625-8.9609 111.54-91.281 112.09-94.734 0.44531-2.7617 2.082-5.1875 4.4805-6.6289 39.012-23.426 57.309-75.973 60.574-86.055v0.003906c-5.8281-33.441-2.043-67.844 10.918-99.215 9.0039-19.527 21.246-37.387 36.215-52.828zm-193.57 6.1562c14.352-13.715 33.441-21.371 53.293-21.371s38.941 7.6562 53.293 21.371c3.6406 3.668 3.6406 9.5859 0 13.254-3.6797 3.6094-9.5742 3.6094-13.254 0-11.004-9.9453-25.211-15.605-40.039-15.961-14.844 0.27344-29.078 5.9492-40.039 15.961-1.7578 1.7695-4.1445 2.7656-6.6367 2.7734-2.4922 0.003906-4.8828-0.98438-6.6445-2.7461-1.7617-1.7617-2.75-4.1523-2.7461-6.6445 0.007812-2.4922 1.0039-4.8789 2.7734-6.6367zm-168 0c14.562-13.387 33.516-20.988 53.293-21.371 19.777 0.38281 38.73 7.9844 53.293 21.371 3.6406 3.668 3.6406 9.5859 0 13.254-3.6797 3.6094-9.5742 3.6094-13.254 0-11.004-9.9453-25.211-15.605-40.039-15.961-14.844 0.27344-29.078 5.9492-40.039 15.961-1.7578 1.7695-4.1445 2.7656-6.6367 2.7734-2.4922 0.003906-4.8828-0.98438-6.6445-2.7461-1.7617-1.7617-2.75-4.1523-2.7461-6.6445 0.007812-2.4922 1.0039-4.8789 2.7734-6.6367zm-10.453 87.734c-4.1445-4.2773-6.6094-9.9023-6.9531-15.848-0.34375-5.9453 1.4609-11.812 5.0859-16.539 11.012-14.652 33.602-39.387 60.945-39.387 27.348 0 49.934 24.734 60.945 39.387h0.003906c3.6211 4.7266 5.4297 10.594 5.0859 16.539-0.34375 5.9453-2.8125 11.57-6.9531 15.848-13.254 14.094-34.254 30.895-59.082 30.895-24.824 0-45.824-16.801-59.078-30.895zm247.98 130.48-36.121 39.574-5.9727 15.586h0.003907c-1.5508 4.0625-4.4688 7.457-8.25 9.6016-3.7812 2.1484-8.1914 2.9102-12.473 2.1562l-29.398-5.1328c-5.3125-0.93359-10.742-0.93359-16.055 0l-29.398 5.1328c-1.082 0.18359-2.1719 0.27734-3.2656 0.28125-3.7891 0.003906-7.4883-1.1445-10.609-3.2969-3.1172-2.1484-5.5039-5.1992-6.8477-8.7422l-5.9727-15.586-36.121-39.574h0.003907c-2.7422-2.9961-3.2266-7.4258-1.1992-10.945 2.0234-3.5195 6.0977-5.3203 10.062-4.457l35.746 7.8398 46.199-6.7188h0.003907c6.25-0.93359 12.602-0.93359 18.852 0l46.199 6.7188 35.746-7.8398h0.003906c3.9648-0.86328 8.0391 0.9375 10.062 4.457 2.0273 3.5195 1.543 7.9492-1.1992 10.945zm37.055-83.625v-0.003906c-14.562 13.387-33.516 20.988-53.293 21.375-8.7383-0.0625-17.398-1.6719-25.574-4.7617-0.23047 4.3047-2.0586 8.3672-5.1328 11.387-8.6836 6.2812-18.844 10.203-29.492 11.387-5.25 0.9375-10.402 2.3438-15.402 4.2031-2.6094 1.293-5.4844 1.9648-8.3984 1.957-2.9414-0.003906-5.8477-0.67188-8.4922-1.957-4.9609-1.875-10.086-3.2812-15.309-4.2031-10.648-1.1836-20.809-5.1055-29.492-11.387-3.0742-3.0195-4.9023-7.082-5.1328-11.387-8.1758 3.0898-16.836 4.6992-25.574 4.7617-19.777-0.38672-38.73-7.9883-53.293-21.375-3.6328-3.6641-3.6211-9.5742 0.027344-13.227 3.6484-3.6484 9.5625-3.6602 13.227-0.023438 11.012 9.9297 25.215 15.59 40.039 15.957 14.844-0.26953 29.078-5.9453 40.039-15.957 1.7578-1.7695 4.1445-2.7695 6.6367-2.7734 2.4922-0.003906 4.8828 0.98438 6.6445 2.7461 1.7617 1.7617 2.75 4.1523 2.7461 6.6445-0.007812 2.4922-1.0039 4.8789-2.7734 6.6328-4.4883 3.9961-7.7031 9.2188-9.2383 15.027 6.3906 3.0039 13.18 5.0781 20.16 6.1602 6.6797 1.1758 13.219 3.0508 19.504 5.6016 6.5078-2.4727 13.223-4.3477 20.066-5.6016 7.0547-1.0391 13.895-3.2148 20.254-6.4375-1.7422-5.6602-4.9648-10.75-9.332-14.75-3.6406-3.668-3.6406-9.582 0-13.25 1.7734-1.7266 4.1484-2.6992 6.625-2.707 0.1875 0 0.375 0.09375 0.55859 0.09375h0.003906c0.98828 0.03125 1.9648 0.21875 2.8906 0.55859 0.53516 0.28906 1.0352 0.63281 1.4961 1.0273 0.59766 0.27344 1.1641 0.61719 1.6797 1.0273 11.012 9.9297 25.215 15.59 40.039 15.957 14.844-0.26953 29.078-5.9453 40.039-15.957 1.7578-1.7695 4.1445-2.7695 6.6367-2.7734 2.4922-0.003906 4.8828 0.98438 6.6445 2.7461 1.7617 1.7617 2.75 4.1523 2.7461 6.6445-0.007812 2.4922-1.0039 4.8789-2.7734 6.6328zm10.453-46.852c-13.254 14.09-34.254 30.891-59.078 30.891-24.828 0-45.828-16.801-59.078-30.895h-0.003906c-4.1406-4.2773-6.6094-9.9023-6.9531-15.848-0.34375-5.9453 1.4648-11.812 5.0859-16.539 11.016-14.652 33.602-39.387 60.949-39.387 27.348 0 49.934 24.734 60.945 39.387 3.625 4.7266 5.4297 10.594 5.0859 16.539-0.34375 5.9453-2.8086 11.57-6.9531 15.848zm-190.4-21.188c-7.1875-9.6172-26.133-31.922-46.016-31.922-19.879 0-38.828 22.309-46.012 31.922v-0.003906c-2.0625 2.4922-1.8594 6.1523 0.46484 8.4023 8.7734 9.332 26.414 25.012 45.547 25.012 19.133 0 36.773-15.68 45.547-25.012 2.3008-2.2617 2.5-5.8984 0.46875-8.4023zm177.33 0c-7.1875-9.6172-26.133-31.922-46.012-31.922-10.395 0.86719-20.191 5.207-27.816 12.32-6.7461 5.8633-12.848 12.434-18.199 19.598-2.0625 2.4922-1.8594 6.1523 0.46875 8.4023 8.7734 9.332 26.414 25.012 45.547 25.012 19.133 0 36.773-15.68 45.547-25.012 2.3242-2.25 2.5273-5.9102 0.46484-8.4023zm-177.33 0c-7.1875-9.6172-26.133-31.922-46.016-31.922-19.879 0-38.828 22.309-46.012 31.922v-0.003906c-2.0625 2.4922-1.8594 6.1523 0.46484 8.4023 8.7734 9.332 26.414 25.012 45.547 25.012 19.133 0 36.773-15.68 45.547-25.012 2.3008-2.2617 2.5-5.8984 0.46875-8.4023zm177.33 0c-7.1875-9.6172-26.133-31.922-46.012-31.922-10.395 0.86719-20.191 5.207-27.816 12.32-6.7461 5.8633-12.848 12.434-18.199 19.598-2.0625 2.4922-1.8594 6.1523 0.46875 8.4023 8.7734 9.332 26.414 25.012 45.547 25.012 19.133 0 36.773-15.68 45.547-25.012 2.3242-2.25 2.5273-5.9102 0.46484-8.4023zm-177.33 0c-7.1875-9.6172-26.133-31.922-46.016-31.922-19.879 0-38.828 22.309-46.012 31.922v-0.003906c-2.0625 2.4922-1.8594 6.1523 0.46484 8.4023 8.7734 9.332 26.414 25.012 45.547 25.012 19.133 0 36.773-15.68 45.547-25.012 2.3008-2.2617 2.5-5.8984 0.46875-8.4023zm177.33 0c-7.1875-9.6172-26.133-31.922-46.012-31.922-10.395 0.86719-20.191 5.207-27.816 12.32-6.7461 5.8633-12.848 12.434-18.199 19.598-2.0625 2.4922-1.8594 6.1523 0.46875 8.4023 8.7734 9.332 26.414 25.012 45.547 25.012 19.133 0 36.773-15.68 45.547-25.012 2.3242-2.25 2.5273-5.9102 0.46484-8.4023zm-75.039 162.3c-2.1953 0.5625-4.4844 0.65625-6.7188 0.27734l-46.199-6.7188h-0.003906c-4.4531-0.65234-8.9805-0.65234-13.438 0l-46.293 6.7188c-2.2383 0.32812-4.5195 0.23438-6.7227-0.27734l-6.9062-1.4922 16.332 17.828 0.003906-0.003907c1.5742 1.7109 2.8125 3.707 3.6367 5.8789l5.9727 15.68 29.398-5.1328h0.003906c7.4766-1.2422 15.109-1.2422 22.586 0l29.398 5.1328 5.9766-15.586c0.80469-2.2109 2.0391-4.2422 3.6406-5.9727l16.332-17.828zm-102.29-162.31c-7.1875-9.6133-26.133-31.918-46.016-31.918-19.879 0-38.828 22.309-46.012 31.922v-0.003906c-2.0625 2.4922-1.8594 6.1523 0.46484 8.4023 8.7734 9.332 26.414 25.012 45.547 25.012 19.133 0 36.773-15.68 45.547-25.012 2.3008-2.2617 2.5-5.8984 0.46875-8.4023zm177.33 0c-7.1875-9.6133-26.133-31.918-46.012-31.918-10.395 0.86719-20.191 5.207-27.816 12.32-6.7461 5.8633-12.848 12.434-18.199 19.598-2.0625 2.4922-1.8594 6.1523 0.46875 8.4023 8.7734 9.332 26.414 25.012 45.547 25.012 19.133 0 36.773-15.68 45.547-25.012 2.3242-2.25 2.5273-5.9102 0.46484-8.4023zm-177.33 0c-7.1875-9.6133-26.133-31.918-46.016-31.918-19.879 0-38.828 22.309-46.012 31.922v-0.003906c-2.0625 2.4922-1.8594 6.1523 0.46484 8.4023 8.7734 9.332 26.414 25.012 45.547 25.012 19.133 0 36.773-15.68 45.547-25.012 2.3008-2.2617 2.5-5.8984 0.46875-8.4023zm177.33 0c-7.1875-9.6133-26.133-31.918-46.012-31.918-10.395 0.86719-20.191 5.207-27.816 12.32-6.7461 5.8633-12.848 12.434-18.199 19.598-2.0625 2.4922-1.8594 6.1523 0.46875 8.4023 8.7734 9.332 26.414 25.012 45.547 25.012 19.133 0 36.773-15.68 45.547-25.012 2.3242-2.25 2.5273-5.9102 0.46484-8.4023zm-177.33 0c-7.1875-9.6133-26.133-31.918-46.016-31.918-19.879 0-38.828 22.309-46.012 31.922v-0.003906c-2.0625 2.4922-1.8594 6.1523 0.46484 8.4023 8.7734 9.332 26.414 25.012 45.547 25.012 19.133 0 36.773-15.68 45.547-25.012 2.3008-2.2617 2.5-5.8984 0.46875-8.4023zm131.32-31.918c-10.395 0.86719-20.191 5.207-27.816 12.32-6.7461 5.8633-12.848 12.434-18.199 19.598-2.0625 2.4922-1.8594 6.1523 0.46875 8.4023 8.7734 9.332 26.414 25.012 45.547 25.012 19.133 0 36.773-15.68 45.547-25.012 2.3242-2.25 2.5273-5.9102 0.46484-8.4023-7.1875-9.6133-26.133-31.918-46.012-31.918zm-35.746 194.5-46.199-6.7188h-0.003906c-4.4531-0.65234-8.9805-0.65234-13.438 0l-46.293 6.7188c-2.2383 0.32812-4.5195 0.23438-6.7227-0.27734l-6.9062-1.4922 16.332 17.828 0.003906-0.003907c1.5742 1.7109 2.8125 3.707 3.6367 5.8789l5.9727 15.68 29.398-5.1328h0.003906c7.4766-1.2422 15.109-1.2422 22.586 0l29.398 5.1328 5.9766-15.586c0.80469-2.2109 2.0391-4.2422 3.6406-5.9727l16.332-17.828-7 1.4922v0.003906c-2.1953 0.5625-4.4844 0.65625-6.7188 0.27734zm-96.043-154.18c2.3008-2.2617 2.5-5.8984 0.46875-8.4023-7.1875-9.6133-26.133-31.918-46.016-31.918-19.879 0-38.828 22.309-46.012 31.922v-0.003906c-2.0625 2.4922-1.8594 6.1523 0.46484 8.4023 8.7734 9.332 26.414 25.012 45.547 25.012 19.133 0 36.773-15.68 45.547-25.012zm267.4-81.105 0.003906-0.003906c-12.426 2.1641-25.004 3.3203-37.613 3.4531-4.8438 0.015625-8.8945-3.668-9.3359-8.4922-7.1875-79.801-37.801-124.04-71.586-148.68 5.0625 6.5039 8.8359 13.918 11.105 21.84l0.375 1.4922c2.1094 7.9102 6.4102 15.062 12.414 20.629 12.426 11.641 19.543 27.863 19.691 44.891v4.1094c0 5.1523-4.1758 9.332-9.332 9.332s-9.332-4.1797-9.332-9.332v-4.1094c-0.070313-11.906-5.1094-23.242-13.906-31.266-8.4766-8.0273-14.578-18.23-17.641-29.492l-0.375-1.3984v-0.003907c-2.8789-10.395-9.4062-19.406-18.387-25.387l-40.039-26.879 2.1484 9.8008h-0.003906c2.0273 9.3477 8.4141 17.156 17.176 21 14.441 6.6758 24.77 19.922 27.719 35.559l4.0117 22.867h0.003906c0.92969 5.043 3.1875 9.7422 6.5312 13.629l21.465 27.441 0.003906-0.003906c3.1562 4.082 2.4492 9.9453-1.5898 13.16-1.6641 1.2656-3.6953 1.9531-5.7852 1.9609-2.8711 0.011719-5.5898-1.2969-7.375-3.5469l-21.188-27.16h0.003906c-5.3906-6.3828-8.9961-14.078-10.453-22.305l-3.9219-22.773c-1.9414-9.6992-8.4375-17.867-17.453-21.934-13.984-6.375-24.148-18.965-27.441-33.973l-3.7344-17.828c-3.6406-0.1875-6.9062-0.28125-9.707-0.28125-0.74609 7.4648-1.3086 15.121-1.3086 22.961l-0.089844 3.3594c-0.09375 17.828 0.55859 30.055 10.734 37.148 1.4922 1.0273 3.0781 2.0547 4.668 2.9883v-0.003906c5.1133 2.9492 9.793 6.5938 13.906 10.828 7.5664 9.6523 11.379 21.723 10.734 33.973-0.66016 8.0742 1.5898 16.121 6.3438 22.68 1.7461 1.7773 2.707 4.1758 2.6719 6.668-0.035156 2.4883-1.0625 4.8594-2.8555 6.5859-1.7148 1.6953-4.0312 2.6367-6.4414 2.6133-2.5312 0.035156-4.9648-0.98047-6.7188-2.8008-8.1211-9.6484-12.262-22.031-11.574-34.625 0.58203-8-1.5547-15.957-6.0664-22.586-2.9492-2.9883-6.3125-5.5352-9.9883-7.5625-1.7734-1.1211-3.5469-2.2422-5.3203-3.4531-3.6289-2.5742-6.8164-5.7266-9.4258-9.332-2.6094 3.6055-5.7969 6.7578-9.4258 9.332-1.7734 1.2109-3.5469 2.332-5.3203 3.4531-3.6758 2.0273-7.0391 4.5742-9.9883 7.5625-4.5117 6.6289-6.6484 14.586-6.0664 22.586 0.6875 12.594-3.4531 24.977-11.574 34.625-1.7539 1.8203-4.1875 2.8359-6.7188 2.8008-2.4102 0.023438-4.7266-0.91797-6.4414-2.6133-1.793-1.7266-2.8203-4.0977-2.8555-6.5859-0.035156-2.4922 0.92578-4.8906 2.6719-6.668 4.7539-6.5586 7.0039-14.605 6.3438-22.68-0.64453-12.25 3.168-24.32 10.734-33.973 4.1133-4.2344 8.793-7.8789 13.906-10.828 1.5859-0.93359 3.1719-1.9609 4.668-2.9883 10.172-7.0938 10.828-19.32 10.734-37.148l-0.09375-3.3594c0-7.8398-0.55859-15.492-1.3086-22.961-2.8008 0-6.0664 0.09375-9.707 0.28125l-3.7344 17.828 0.003906 0.003906c-3.293 15.008-13.457 27.598-27.441 33.973-9.0156 4.0664-15.512 12.234-17.453 21.934l-4.0117 22.867v-0.003906c-1.4375 8.3281-5.1172 16.102-10.641 22.496l-20.906 26.879c-1.7852 2.25-4.5039 3.5586-7.375 3.5469-2.0898-0.007812-4.1211-0.69531-5.7852-1.9609-4.0391-3.2148-4.7461-9.0781-1.5898-13.16l21.188-27.066c3.4844-3.9609 5.8086-8.8047 6.7227-14l4.1055-22.867c2.9492-15.637 13.277-28.883 27.719-35.559 8.7617-3.8438 15.148-11.652 17.176-21l2.1484-9.8008-39.949 26.879c-9.0547 5.9648-15.625 15.023-18.48 25.48l-0.375 1.3086c-3.0625 11.262-9.1641 21.465-17.641 29.492-8.7969 8.0234-13.836 19.359-13.906 31.266v4.1094c0 5.1523-4.1758 9.332-9.332 9.332s-9.332-4.1797-9.332-9.332v-4.1094c0.14844-17.027 7.2656-33.25 19.691-44.891 6.0039-5.5664 10.305-12.719 12.414-20.629l0.375-1.3984c2.25-7.9609 6.0234-15.406 11.105-21.934-33.785 24.547-64.398 68.879-71.586 148.68-0.44141 4.8242-4.4922 8.5078-9.3359 8.4922-12.609-0.13281-25.188-1.2891-37.613-3.4531 14.969 15.441 27.211 33.301 36.215 52.828 12.961 31.371 16.746 65.773 10.918 99.215 3.2656 9.9883 21.746 62.719 60.574 86.055v-0.003906c2.3789 1.4609 4.0117 3.875 4.4805 6.6289 0.55859 3.4531 14.465 85.773 112.09 94.734 97.625-8.9609 111.54-91.281 112.09-94.734 0.44531-2.7617 2.082-5.1875 4.4805-6.6289 39.012-23.426 57.309-75.973 60.574-86.055v0.003906c-5.8281-33.441-2.043-67.844 10.918-99.215 9.0039-19.527 21.246-37.387 36.215-52.828zm-193.57 6.1562c14.352-13.715 33.441-21.371 53.293-21.371s38.941 7.6562 53.293 21.371c3.6406 3.668 3.6406 9.5859 0 13.254-3.6797 3.6094-9.5742 3.6094-13.254 0-11.004-9.9453-25.211-15.605-40.039-15.961-14.844 0.27344-29.078 5.9492-40.039 15.961-1.7578 1.7695-4.1445 2.7656-6.6367 2.7734-2.4922 0.003906-4.8828-0.98438-6.6445-2.7461-1.7617-1.7617-2.75-4.1523-2.7461-6.6445 0.007812-2.4922 1.0039-4.8789 2.7734-6.6367zm-168 0c14.562-13.387 33.516-20.988 53.293-21.371 19.777 0.38281 38.73 7.9844 53.293 21.371 3.6406 3.668 3.6406 9.5859 0 13.254-3.6797 3.6094-9.5742 3.6094-13.254 0-11.004-9.9453-25.211-15.605-40.039-15.961-14.844 0.27344-29.078 5.9492-40.039 15.961-1.7578 1.7695-4.1445 2.7656-6.6367 2.7734-2.4922 0.003906-4.8828-0.98438-6.6445-2.7461-1.7617-1.7617-2.75-4.1523-2.7461-6.6445 0.007812-2.4922 1.0039-4.8789 2.7734-6.6367zm-10.453 87.734c-4.1445-4.2773-6.6094-9.9023-6.9531-15.848-0.34375-5.9453 1.4609-11.812 5.0859-16.539 11.012-14.652 33.602-39.387 60.945-39.387 27.348 0 49.934 24.734 60.945 39.387h0.003906c3.6211 4.7266 5.4297 10.594 5.0859 16.539-0.34375 5.9453-2.8125 11.57-6.9531 15.848-13.254 14.094-34.254 30.895-59.082 30.895-24.824 0-45.824-16.801-59.078-30.895zm247.98 130.48-36.121 39.574-5.9727 15.586h0.003907c-1.5508 4.0625-4.4688 7.457-8.25 9.6016-3.7812 2.1484-8.1914 2.9102-12.473 2.1562l-29.398-5.1328c-5.3125-0.93359-10.742-0.93359-16.055 0l-29.398 5.1328c-1.082 0.18359-2.1719 0.27734-3.2656 0.28125-3.7891 0.003906-7.4883-1.1445-10.609-3.2969-3.1172-2.1484-5.5039-5.1992-6.8477-8.7422l-5.9727-15.586-36.121-39.574h0.003907c-2.7422-2.9961-3.2266-7.4258-1.1992-10.945 2.0234-3.5195 6.0977-5.3203 10.062-4.457l35.746 7.8398 46.199-6.7188h0.003907c6.25-0.93359 12.602-0.93359 18.852 0l46.199 6.7188 35.746-7.8398h0.003906c3.9648-0.86328 8.0391 0.9375 10.062 4.457 2.0273 3.5195 1.543 7.9492-1.1992 10.945zm37.055-83.625v-0.003906c-14.562 13.387-33.516 20.988-53.293 21.375-8.7383-0.0625-17.398-1.6719-25.574-4.7617-0.23047 4.3047-2.0586 8.3672-5.1328 11.387-8.6836 6.2812-18.844 10.203-29.492 11.387-5.25 0.9375-10.402 2.3438-15.402 4.2031-2.6094 1.293-5.4844 1.9648-8.3984 1.957-2.9414-0.003906-5.8477-0.67188-8.4922-1.957-4.9609-1.875-10.086-3.2812-15.309-4.2031-10.648-1.1836-20.809-5.1055-29.492-11.387-3.0742-3.0195-4.9023-7.082-5.1328-11.387-8.1758 3.0898-16.836 4.6992-25.574 4.7617-19.777-0.38672-38.73-7.9883-53.293-21.375-3.6328-3.6641-3.6211-9.5742 0.027344-13.227 3.6484-3.6484 9.5625-3.6602 13.227-0.023438 11.012 9.9297 25.215 15.59 40.039 15.957 14.844-0.26953 29.078-5.9453 40.039-15.957 1.7578-1.7695 4.1445-2.7695 6.6367-2.7734 2.4922-0.003906 4.8828 0.98438 6.6445 2.7461 1.7617 1.7617 2.75 4.1523 2.7461 6.6445-0.007812 2.4922-1.0039 4.8789-2.7734 6.6328-4.4883 3.9961-7.7031 9.2188-9.2383 15.027 6.3906 3.0039 13.18 5.0781 20.16 6.1602 6.6797 1.1758 13.219 3.0508 19.504 5.6016 6.5078-2.4727 13.223-4.3477 20.066-5.6016 7.0547-1.0391 13.895-3.2148 20.254-6.4375-1.7422-5.6602-4.9648-10.75-9.332-14.75-3.6406-3.668-3.6406-9.582 0-13.25 1.7734-1.7266 4.1484-2.6992 6.625-2.707 0.1875 0 0.375 0.09375 0.55859 0.09375h0.003906c0.98828 0.03125 1.9648 0.21875 2.8906 0.55859 0.53516 0.28906 1.0352 0.63281 1.4961 1.0273 0.59766 0.27344 1.1641 0.61719 1.6797 1.0273 11.012 9.9297 25.215 15.59 40.039 15.957 14.844-0.26953 29.078-5.9453 40.039-15.957 1.7578-1.7695 4.1445-2.7695 6.6367-2.7734 2.4922-0.003906 4.8828 0.98438 6.6445 2.7461 1.7617 1.7617 2.75 4.1523 2.7461 6.6445-0.007812 2.4922-1.0039 4.8789-2.7734 6.6328zm10.453-46.852c-13.254 14.09-34.254 30.891-59.078 30.891-24.828 0-45.828-16.801-59.078-30.895h-0.003906c-4.1406-4.2773-6.6094-9.9023-6.9531-15.848-0.34375-5.9453 1.4648-11.812 5.0859-16.539 11.016-14.652 33.602-39.387 60.949-39.387 27.348 0 49.934 24.734 60.945 39.387 3.625 4.7266 5.4297 10.594 5.0859 16.539-0.34375 5.9453-2.8086 11.57-6.9531 15.848zm-190.4-21.188c-7.1875-9.6172-26.133-31.922-46.016-31.922-19.879 0-38.828 22.309-46.012 31.922v-0.003906c-2.0625 2.4922-1.8594 6.1523 0.46484 8.4023 8.7734 9.332 26.414 25.012 45.547 25.012 19.133 0 36.773-15.68 45.547-25.012 2.3008-2.2617 2.5-5.8984 0.46875-8.4023zm177.33 0c-7.1875-9.6172-26.133-31.922-46.012-31.922-10.395 0.86719-20.191 5.207-27.816 12.32-6.7461 5.8633-12.848 12.434-18.199 19.598-2.0625 2.4922-1.8594 6.1523 0.46875 8.4023 8.7734 9.332 26.414 25.012 45.547 25.012 19.133 0 36.773-15.68 45.547-25.012 2.3242-2.25 2.5273-5.9102 0.46484-8.4023zm-177.33 0c-7.1875-9.6172-26.133-31.922-46.016-31.922-19.879 0-38.828 22.309-46.012 31.922v-0.003906c-2.0625 2.4922-1.8594 6.1523 0.46484 8.4023 8.7734 9.332 26.414 25.012 45.547 25.012 19.133 0 36.773-15.68 45.547-25.012 2.3008-2.2617 2.5-5.8984 0.46875-8.4023zm177.33 0c-7.1875-9.6172-26.133-31.922-46.012-31.922-10.395 0.86719-20.191 5.207-27.816 12.32-6.7461 5.8633-12.848 12.434-18.199 19.598-2.0625 2.4922-1.8594 6.1523 0.46875 8.4023 8.7734 9.332 26.414 25.012 45.547 25.012 19.133 0 36.773-15.68 45.547-25.012 2.3242-2.25 2.5273-5.9102 0.46484-8.4023zm0 0c-7.1875-9.6172-26.133-31.922-46.012-31.922-10.395 0.86719-20.191 5.207-27.816 12.32-6.7461 5.8633-12.848 12.434-18.199 19.598-2.0625 2.4922-1.8594 6.1523 0.46875 8.4023 8.7734 9.332 26.414 25.012 45.547 25.012 19.133 0 36.773-15.68 45.547-25.012 2.3242-2.25 2.5273-5.9102 0.46484-8.4023zm-75.039 162.3c-2.1953 0.5625-4.4844 0.65625-6.7188 0.27734l-46.199-6.7188h-0.003906c-4.4531-0.65234-8.9805-0.65234-13.438 0l-46.293 6.7188c-2.2383 0.32812-4.5195 0.23438-6.7227-0.27734l-6.9062-1.4922 16.332 17.828 0.003906-0.003907c1.5742 1.7109 2.8125 3.707 3.6367 5.8789l5.9727 15.68 29.398-5.1328h0.003906c7.4766-1.2422 15.109-1.2422 22.586 0l29.398 5.1328 5.9766-15.586c0.80469-2.2109 2.0391-4.2422 3.6406-5.9727l16.332-17.828zm-102.29-162.31c-7.1875-9.6133-26.133-31.918-46.016-31.918-19.879 0-38.828 22.309-46.012 31.922v-0.003906c-2.0625 2.4922-1.8594 6.1523 0.46484 8.4023 8.7734 9.332 26.414 25.012 45.547 25.012 19.133 0 36.773-15.68 45.547-25.012 2.3008-2.2617 2.5-5.8984 0.46875-8.4023zm131.32-31.918c-10.395 0.86719-20.191 5.207-27.816 12.32-6.7461 5.8633-12.848 12.434-18.199 19.598-2.0625 2.4922-1.8594 6.1523 0.46875 8.4023 8.7734 9.332 26.414 25.012 45.547 25.012 19.133 0 36.773-15.68 45.547-25.012 2.3242-2.25 2.5273-5.9102 0.46484-8.4023-7.1875-9.6133-26.133-31.918-46.012-31.918zm-35.746 194.5-46.199-6.7188h-0.003906c-4.4531-0.65234-8.9805-0.65234-13.438 0l-46.293 6.7188c-2.2383 0.32812-4.5195 0.23438-6.7227-0.27734l-6.9062-1.4922 16.332 17.828 0.003906-0.003907c1.5742 1.7109 2.8125 3.707 3.6367 5.8789l5.9727 15.68 29.398-5.1328h0.003906c7.4766-1.2422 15.109-1.2422 22.586 0l29.398 5.1328 5.9766-15.586c0.80469-2.2109 2.0391-4.2422 3.6406-5.9727l16.332-17.828-7 1.4922v0.003906c-2.1953 0.5625-4.4844 0.65625-6.7188 0.27734zm-96.043-154.18c2.3008-2.2617 2.5-5.8984 0.46875-8.4023-7.1875-9.6133-26.133-31.918-46.016-31.918-19.879 0-38.828 22.309-46.012 31.922v-0.003906c-2.0625 2.4922-1.8594 6.1523 0.46484 8.4023 8.7734 9.332 26.414 25.012 45.547 25.012 19.133 0 36.773-15.68 45.547-25.012zm267.4-81.105 0.003906-0.003906c-12.426 2.1641-25.004 3.3203-37.613 3.4531-4.8438 0.015625-8.8945-3.668-9.3359-8.4922-7.1875-79.801-37.801-124.04-71.586-148.68 5.0625 6.5039 8.8359 13.918 11.105 21.84l0.375 1.4922c2.1094 7.9102 6.4102 15.062 12.414 20.629 12.426 11.641 19.543 27.863 19.691 44.891v4.1094c0 5.1523-4.1758 9.332-9.332 9.332s-9.332-4.1797-9.332-9.332v-4.1094c-0.070313-11.906-5.1094-23.242-13.906-31.266-8.4766-8.0273-14.578-18.23-17.641-29.492l-0.375-1.3984v-0.003907c-2.8789-10.395-9.4062-19.406-18.387-25.387l-40.039-26.879 2.1484 9.8008h-0.003906c2.0273 9.3477 8.4141 17.156 17.176 21 14.441 6.6758 24.77 19.922 27.719 35.559l4.0117 22.867h0.003906c0.92969 5.043 3.1875 9.7422 6.5312 13.629l21.465 27.441 0.003906-0.003906c3.1562 4.082 2.4492 9.9453-1.5898 13.16-1.6641 1.2656-3.6953 1.9531-5.7852 1.9609-2.8711 0.011719-5.5898-1.2969-7.375-3.5469l-21.188-27.16h0.003906c-5.3906-6.3828-8.9961-14.078-10.453-22.305l-3.9219-22.773c-1.9414-9.6992-8.4375-17.867-17.453-21.934-13.984-6.375-24.148-18.965-27.441-33.973l-3.7344-17.828c-3.6406-0.1875-6.9062-0.28125-9.707-0.28125-0.74609 7.4648-1.3086 15.121-1.3086 22.961l-0.089844 3.3594c-0.09375 17.828 0.55859 30.055 10.734 37.148 1.4922 1.0273 3.0781 2.0547 4.668 2.9883v-0.003906c5.1133 2.9492 9.793 6.5938 13.906 10.828 7.5664 9.6523 11.379 21.723 10.734 33.973-0.66016 8.0742 1.5898 16.121 6.3438 22.68 1.7461 1.7773 2.707 4.1758 2.6719 6.668-0.035156 2.4883-1.0625 4.8594-2.8555 6.5859-1.7148 1.6953-4.0312 2.6367-6.4414 2.6133-2.5312 0.035156-4.9648-0.98047-6.7188-2.8008-8.1211-9.6484-12.262-22.031-11.574-34.625 0.58203-8-1.5547-15.957-6.0664-22.586-2.9492-2.9883-6.3125-5.5352-9.9883-7.5625-1.7734-1.1211-3.5469-2.2422-5.3203-3.4531-3.6289-2.5742-6.8164-5.7266-9.4258-9.332-2.6094 3.6055-5.7969 6.7578-9.4258 9.332-1.7734 1.2109-3.5469 2.332-5.3203 3.4531-3.6758 2.0273-7.0391 4.5742-9.9883 7.5625-4.5117 6.6289-6.6484 14.586-6.0664 22.586 0.6875 12.594-3.4531 24.977-11.574 34.625-1.7539 1.8203-4.1875 2.8359-6.7188 2.8008-2.4102 0.023438-4.7266-0.91797-6.4414-2.6133-1.793-1.7266-2.8203-4.0977-2.8555-6.5859-0.035156-2.4922 0.92578-4.8906 2.6719-6.668 4.7539-6.5586 7.0039-14.605 6.3438-22.68-0.64453-12.25 3.168-24.32 10.734-33.973 4.1133-4.2344 8.793-7.8789 13.906-10.828 1.5859-0.93359 3.1719-1.9609 4.668-2.9883 10.172-7.0938 10.828-19.32 10.734-37.148l-0.09375-3.3594c0-7.8398-0.55859-15.492-1.3086-22.961-2.8008 0-6.0664 0.09375-9.707 0.28125l-3.7344 17.828 0.003906 0.003906c-3.293 15.008-13.457 27.598-27.441 33.973-9.0156 4.0664-15.512 12.234-17.453 21.934l-4.0117 22.867v-0.003906c-1.4375 8.3281-5.1172 16.102-10.641 22.496l-20.906 26.879c-1.7852 2.25-4.5039 3.5586-7.375 3.5469-2.0898-0.007812-4.1211-0.69531-5.7852-1.9609-4.0391-3.2148-4.7461-9.0781-1.5898-13.16l21.188-27.066c3.4844-3.9609 5.8086-8.8047 6.7227-14l4.1055-22.867c2.9492-15.637 13.277-28.883 27.719-35.559 8.7617-3.8438 15.148-11.652 17.176-21l2.1484-9.8008-39.949 26.879c-9.0547 5.9648-15.625 15.023-18.48 25.48l-0.375 1.3086c-3.0625 11.262-9.1641 21.465-17.641 29.492-8.7969 8.0234-13.836 19.359-13.906 31.266v4.1094c0 5.1523-4.1758 9.332-9.332 9.332s-9.332-4.1797-9.332-9.332v-4.1094c0.14844-17.027 7.2656-33.25 19.691-44.891 6.0039-5.5664 10.305-12.719 12.414-20.629l0.375-1.3984c2.25-7.9609 6.0234-15.406 11.105-21.934-33.785 24.547-64.398 68.879-71.586 148.68-0.44141 4.8242-4.4922 8.5078-9.3359 8.4922-12.609-0.13281-25.188-1.2891-37.613-3.4531 14.969 15.441 27.211 33.301 36.215 52.828 12.961 31.371 16.746 65.773 10.918 99.215 3.2656 9.9883 21.746 62.719 60.574 86.055v-0.003906c2.3789 1.4609 4.0117 3.875 4.4805 6.6289 0.55859 3.4531 14.465 85.773 112.09 94.734 97.625-8.9609 111.54-91.281 112.09-94.734 0.44531-2.7617 2.082-5.1875 4.4805-6.6289 39.012-23.426 57.309-75.973 60.574-86.055v0.003906c-5.8281-33.441-2.043-67.844 10.918-99.215 9.0039-19.527 21.246-37.387 36.215-52.828zm-193.57 6.1562c14.352-13.715 33.441-21.371 53.293-21.371s38.941 7.6562 53.293 21.371c3.6406 3.668 3.6406 9.5859 0 13.254-3.6797 3.6094-9.5742 3.6094-13.254 0-11.004-9.9453-25.211-15.605-40.039-15.961-14.844 0.27344-29.078 5.9492-40.039 15.961-1.7578 1.7695-4.1445 2.7656-6.6367 2.7734-2.4922 0.003906-4.8828-0.98438-6.6445-2.7461-1.7617-1.7617-2.75-4.1523-2.7461-6.6445 0.007812-2.4922 1.0039-4.8789 2.7734-6.6367zm-168 0c14.562-13.387 33.516-20.988 53.293-21.371 19.777 0.38281 38.73 7.9844 53.293 21.371 3.6406 3.668 3.6406 9.5859 0 13.254-3.6797 3.6094-9.5742 3.6094-13.254 0-11.004-9.9453-25.211-15.605-40.039-15.961-14.844 0.27344-29.078 5.9492-40.039 15.961-1.7578 1.7695-4.1445 2.7656-6.6367 2.7734-2.4922 0.003906-4.8828-0.98438-6.6445-2.7461-1.7617-1.7617-2.75-4.1523-2.7461-6.6445 0.007812-2.4922 1.0039-4.8789 2.7734-6.6367zm-10.453 87.734c-4.1445-4.2773-6.6094-9.9023-6.9531-15.848-0.34375-5.9453 1.4609-11.812 5.0859-16.539 11.012-14.652 33.602-39.387 60.945-39.387 27.348 0 49.934 24.734 60.945 39.387h0.003906c3.6211 4.7266 5.4297 10.594 5.0859 16.539-0.34375 5.9453-2.8125 11.57-6.9531 15.848-13.254 14.094-34.254 30.895-59.082 30.895-24.824 0-45.824-16.801-59.078-30.895zm247.98 130.48-36.121 39.574-5.9727 15.586h0.003907c-1.5508 4.0625-4.4688 7.457-8.25 9.6016-3.7812 2.1484-8.1914 2.9102-12.473 2.1562l-29.398-5.1328c-5.3125-0.93359-10.742-0.93359-16.055 0l-29.398 5.1328c-1.082 0.18359-2.1719 0.27734-3.2656 0.28125-3.7891 0.003906-7.4883-1.1445-10.609-3.2969-3.1172-2.1484-5.5039-5.1992-6.8477-8.7422l-5.9727-15.586-36.121-39.574h0.003907c-2.7422-2.9961-3.2266-7.4258-1.1992-10.945 2.0234-3.5195 6.0977-5.3203 10.062-4.457l35.746 7.8398 46.199-6.7188h0.003907c6.25-0.93359 12.602-0.93359 18.852 0l46.199 6.7188 35.746-7.8398h0.003906c3.9648-0.86328 8.0391 0.9375 10.062 4.457 2.0273 3.5195 1.543 7.9492-1.1992 10.945zm37.055-83.625v-0.003906c-14.562 13.387-33.516 20.988-53.293 21.375-8.7383-0.0625-17.398-1.6719-25.574-4.7617-0.23047 4.3047-2.0586 8.3672-5.1328 11.387-8.6836 6.2812-18.844 10.203-29.492 11.387-5.25 0.9375-10.402 2.3438-15.402 4.2031-2.6094 1.293-5.4844 1.9648-8.3984 1.957-2.9414-0.003906-5.8477-0.67188-8.4922-1.957-4.9609-1.875-10.086-3.2812-15.309-4.2031-10.648-1.1836-20.809-5.1055-29.492-11.387-3.0742-3.0195-4.9023-7.082-5.1328-11.387-8.1758 3.0898-16.836 4.6992-25.574 4.7617-19.777-0.38672-38.73-7.9883-53.293-21.375-3.6328-3.6641-3.6211-9.5742 0.027344-13.227 3.6484-3.6484 9.5625-3.6602 13.227-0.023438 11.012 9.9297 25.215 15.59 40.039 15.957 14.844-0.26953 29.078-5.9453 40.039-15.957 1.7578-1.7695 4.1445-2.7695 6.6367-2.7734 2.4922-0.003906 4.8828 0.98438 6.6445 2.7461 1.7617 1.7617 2.75 4.1523 2.7461 6.6445-0.007812 2.4922-1.0039 4.8789-2.7734 6.6328-4.4883 3.9961-7.7031 9.2188-9.2383 15.027 6.3906 3.0039 13.18 5.0781 20.16 6.1602 6.6797 1.1758 13.219 3.0508 19.504 5.6016 6.5078-2.4727 13.223-4.3477 20.066-5.6016 7.0547-1.0391 13.895-3.2148 20.254-6.4375-1.7422-5.6602-4.9648-10.75-9.332-14.75-3.6406-3.668-3.6406-9.582 0-13.25 1.7734-1.7266 4.1484-2.6992 6.625-2.707 0.1875 0 0.375 0.09375 0.55859 0.09375h0.003906c0.98828 0.03125 1.9648 0.21875 2.8906 0.55859 0.53516 0.28906 1.0352 0.63281 1.4961 1.0273 0.59766 0.27344 1.1641 0.61719 1.6797 1.0273 11.012 9.9297 25.215 15.59 40.039 15.957 14.844-0.26953 29.078-5.9453 40.039-15.957 1.7578-1.7695 4.1445-2.7695 6.6367-2.7734 2.4922-0.003906 4.8828 0.98438 6.6445 2.7461 1.7617 1.7617 2.75 4.1523 2.7461 6.6445-0.007812 2.4922-1.0039 4.8789-2.7734 6.6328zm10.453-46.852c-13.254 14.09-34.254 30.891-59.078 30.891-24.828 0-45.828-16.801-59.078-30.895h-0.003906c-4.1406-4.2773-6.6094-9.9023-6.9531-15.848-0.34375-5.9453 1.4648-11.812 5.0859-16.539 11.016-14.652 33.602-39.387 60.949-39.387 27.348 0 49.934 24.734 60.945 39.387 3.625 4.7266 5.4297 10.594 5.0859 16.539-0.34375 5.9453-2.8086 11.57-6.9531 15.848zm-13.066-21.188c-7.1875-9.6172-26.133-31.922-46.012-31.922-10.395 0.86719-20.191 5.207-27.816 12.32-6.7461 5.8633-12.848 12.434-18.199 19.598-2.0625 2.4922-1.8594 6.1523 0.46875 8.4023 8.7734 9.332 26.414 25.012 45.547 25.012 19.133 0 36.773-15.68 45.547-25.012 2.3242-2.25 2.5273-5.9102 0.46484-8.4023zm116.48-73.828c-18.934 17.395-34.473 38.156-45.828 61.227-9.8398 23.684-13.809 49.395-11.57 74.945 53.57-47.879 58.238-121.52 58.238-122.27 0.066406-4.6523-0.21484-9.3008-0.83984-13.906zm-162.49 41.906c-10.395 0.86719-20.191 5.207-27.816 12.32-6.7461 5.8633-12.848 12.434-18.199 19.598-2.0625 2.4922-1.8594 6.1523 0.46875 8.4023 8.7734 9.332 26.414 25.012 45.547 25.012 19.133 0 36.773-15.68 45.547-25.012 2.3242-2.25 2.5273-5.9102 0.46484-8.4023-7.1875-9.6133-26.133-31.918-46.012-31.918zm135.61-40.785v-0.003906c-12.426 2.1641-25.004 3.3203-37.613 3.4531-4.8438 0.015625-8.8945-3.668-9.3359-8.4922-7.1875-79.801-37.801-124.04-71.586-148.68 5.0625 6.5039 8.8359 13.918 11.105 21.84l0.375 1.4922c2.1094 7.9102 6.4102 15.062 12.414 20.629 12.426 11.641 19.543 27.863 19.691 44.891v4.1094c0 5.1523-4.1758 9.332-9.332 9.332s-9.332-4.1797-9.332-9.332v-4.1094c-0.070313-11.906-5.1094-23.242-13.906-31.266-8.4766-8.0273-14.578-18.23-17.641-29.492l-0.375-1.3984v-0.003907c-2.8789-10.395-9.4062-19.406-18.387-25.387l-40.039-26.879 2.1484 9.8008h-0.003906c2.0273 9.3477 8.4141 17.156 17.176 21 14.441 6.6758 24.77 19.922 27.719 35.559l4.0117 22.867h0.003906c0.92969 5.043 3.1875 9.7422 6.5312 13.629l21.465 27.441 0.003906-0.003906c3.1562 4.082 2.4492 9.9453-1.5898 13.16-1.6641 1.2656-3.6953 1.9531-5.7852 1.9609-2.8711 0.011719-5.5898-1.2969-7.375-3.5469l-21.188-27.16h0.003906c-5.3906-6.3828-8.9961-14.078-10.453-22.305l-3.9219-22.773c-1.9414-9.6992-8.4375-17.867-17.453-21.934-13.984-6.375-24.148-18.965-27.441-33.973l-3.7344-17.828c-3.6406-0.1875-6.9062-0.28125-9.707-0.28125-0.74609 7.4648-1.3086 15.121-1.3086 22.961l-0.089844 3.3594c-0.09375 17.828 0.55859 30.055 10.734 37.148 1.4922 1.0273 3.0781 2.0547 4.668 2.9883v-0.003906c5.1133 2.9492 9.793 6.5938 13.906 10.828 7.5664 9.6523 11.379 21.723 10.734 33.973-0.66016 8.0742 1.5898 16.121 6.3438 22.68 1.7461 1.7773 2.707 4.1758 2.6719 6.668-0.035156 2.4883-1.0625 4.8594-2.8555 6.5859-1.7148 1.6953-4.0312 2.6367-6.4414 2.6133-2.5312 0.035156-4.9648-0.98047-6.7188-2.8008-8.1211-9.6484-12.262-22.031-11.574-34.625 0.58203-8-1.5547-15.957-6.0664-22.586-2.9492-2.9883-6.3125-5.5352-9.9883-7.5625-1.7734-1.1211-3.5469-2.2422-5.3203-3.4531-3.6289-2.5742-6.8164-5.7266-9.4258-9.332-2.6094 3.6055-5.7969 6.7578-9.4258 9.332-1.7734 1.2109-3.5469 2.332-5.3203 3.4531-3.6758 2.0273-7.0391 4.5742-9.9883 7.5625-4.5117 6.6289-6.6484 14.586-6.0664 22.586 0.6875 12.594-3.4531 24.977-11.574 34.625-1.7539 1.8203-4.1875 2.8359-6.7188 2.8008-2.4102 0.023438-4.7266-0.91797-6.4414-2.6133-1.793-1.7266-2.8203-4.0977-2.8555-6.5859-0.035156-2.4922 0.92578-4.8906 2.6719-6.668 4.7539-6.5586 7.0039-14.605 6.3438-22.68-0.64453-12.25 3.168-24.32 10.734-33.973 4.1133-4.2344 8.793-7.8789 13.906-10.828 1.5859-0.93359 3.1719-1.9609 4.668-2.9883 10.172-7.0938 10.828-19.32 10.734-37.148l-0.09375-3.3594c0-7.8398-0.55859-15.492-1.3086-22.961-2.8008 0-6.0664 0.09375-9.707 0.28125l-3.7344 17.828 0.003906 0.003906c-3.293 15.008-13.457 27.598-27.441 33.973-9.0156 4.0664-15.512 12.234-17.453 21.934l-4.0117 22.867v-0.003906c-1.4375 8.3281-5.1172 16.102-10.641 22.496l-20.906 26.879c-1.7852 2.25-4.5039 3.5586-7.375 3.5469-2.0898-0.007812-4.1211-0.69531-5.7852-1.9609-4.0391-3.2148-4.7461-9.0781-1.5898-13.16l21.188-27.066c3.4844-3.9609 5.8086-8.8047 6.7227-14l4.1055-22.867c2.9492-15.637 13.277-28.883 27.719-35.559 8.7617-3.8438 15.148-11.652 17.176-21l2.1484-9.8008-39.949 26.879c-9.0547 5.9648-15.625 15.023-18.48 25.48l-0.375 1.3086c-3.0625 11.262-9.1641 21.465-17.641 29.492-8.7969 8.0234-13.836 19.359-13.906 31.266v4.1094c0 5.1523-4.1758 9.332-9.332 9.332s-9.332-4.1797-9.332-9.332v-4.1094c0.14844-17.027 7.2656-33.25 19.691-44.891 6.0039-5.5664 10.305-12.719 12.414-20.629l0.375-1.3984c2.25-7.9609 6.0234-15.406 11.105-21.934-33.785 24.547-64.398 68.879-71.586 148.68-0.44141 4.8242-4.4922 8.5078-9.3359 8.4922-12.609-0.13281-25.188-1.2891-37.613-3.4531 14.969 15.441 27.211 33.301 36.215 52.828 12.961 31.371 16.746 65.773 10.918 99.215 3.2656 9.9883 21.746 62.719 60.574 86.055v-0.003906c2.3789 1.4609 4.0117 3.875 4.4805 6.6289 0.55859 3.4531 14.465 85.773 112.09 94.734 97.625-8.9609 111.54-91.281 112.09-94.734 0.44531-2.7617 2.082-5.1875 4.4805-6.6289 39.012-23.426 57.309-75.973 60.574-86.055v0.003906c-5.8281-33.441-2.043-67.844 10.918-99.215 9.0039-19.527 21.246-37.387 36.215-52.828zm-193.57 6.1562c14.352-13.715 33.441-21.371 53.293-21.371s38.941 7.6562 53.293 21.371c3.6406 3.668 3.6406 9.5859 0 13.254-3.6797 3.6094-9.5742 3.6094-13.254 0-11.004-9.9453-25.211-15.605-40.039-15.961-14.844 0.27344-29.078 5.9492-40.039 15.961-1.7578 1.7695-4.1445 2.7656-6.6367 2.7734-2.4922 0.003906-4.8828-0.98438-6.6445-2.7461-1.7617-1.7617-2.75-4.1523-2.7461-6.6445 0.007812-2.4922 1.0039-4.8789 2.7734-6.6367zm-168 0c14.562-13.387 33.516-20.988 53.293-21.371 19.777 0.38281 38.73 7.9844 53.293 21.371 3.6406 3.668 3.6406 9.5859 0 13.254-3.6797 3.6094-9.5742 3.6094-13.254 0-11.004-9.9453-25.211-15.605-40.039-15.961-14.844 0.27344-29.078 5.9492-40.039 15.961-1.7578 1.7695-4.1445 2.7656-6.6367 2.7734-2.4922 0.003906-4.8828-0.98438-6.6445-2.7461-1.7617-1.7617-2.75-4.1523-2.7461-6.6445 0.007812-2.4922 1.0039-4.8789 2.7734-6.6367zm-10.453 87.734c-4.1445-4.2773-6.6094-9.9023-6.9531-15.848-0.34375-5.9453 1.4609-11.812 5.0859-16.539 11.012-14.652 33.602-39.387 60.945-39.387 27.348 0 49.934 24.734 60.945 39.387h0.003906c3.6211 4.7266 5.4297 10.594 5.0859 16.539-0.34375 5.9453-2.8125 11.57-6.9531 15.848-13.254 14.094-34.254 30.895-59.082 30.895-24.824 0-45.824-16.801-59.078-30.895zm247.98 130.48-36.121 39.574-5.9727 15.586h0.003907c-1.5508 4.0625-4.4688 7.457-8.25 9.6016-3.7812 2.1484-8.1914 2.9102-12.473 2.1562l-29.398-5.1328c-5.3125-0.93359-10.742-0.93359-16.055 0l-29.398 5.1328c-1.082 0.18359-2.1719 0.27734-3.2656 0.28125-3.7891 0.003906-7.4883-1.1445-10.609-3.2969-3.1172-2.1484-5.5039-5.1992-6.8477-8.7422l-5.9727-15.586-36.121-39.574h0.003907c-2.7422-2.9961-3.2266-7.4258-1.1992-10.945 2.0234-3.5195 6.0977-5.3203 10.062-4.457l35.746 7.8398 46.199-6.7188h0.003907c6.25-0.93359 12.602-0.93359 18.852 0l46.199 6.7188 35.746-7.8398h0.003906c3.9648-0.86328 8.0391 0.9375 10.062 4.457 2.0273 3.5195 1.543 7.9492-1.1992 10.945zm37.055-83.625v-0.003906c-14.562 13.387-33.516 20.988-53.293 21.375-8.7383-0.0625-17.398-1.6719-25.574-4.7617-0.23047 4.3047-2.0586 8.3672-5.1328 11.387-8.6836 6.2812-18.844 10.203-29.492 11.387-5.25 0.9375-10.402 2.3438-15.402 4.2031-2.6094 1.293-5.4844 1.9648-8.3984 1.957-2.9414-0.003906-5.8477-0.67188-8.4922-1.957-4.9609-1.875-10.086-3.2812-15.309-4.2031-10.648-1.1836-20.809-5.1055-29.492-11.387-3.0742-3.0195-4.9023-7.082-5.1328-11.387-8.1758 3.0898-16.836 4.6992-25.574 4.7617-19.777-0.38672-38.73-7.9883-53.293-21.375-3.6328-3.6641-3.6211-9.5742 0.027344-13.227 3.6484-3.6484 9.5625-3.6602 13.227-0.023438 11.012 9.9297 25.215 15.59 40.039 15.957 14.844-0.26953 29.078-5.9453 40.039-15.957 1.7578-1.7695 4.1445-2.7695 6.6367-2.7734 2.4922-0.003906 4.8828 0.98438 6.6445 2.7461 1.7617 1.7617 2.75 4.1523 2.7461 6.6445-0.007812 2.4922-1.0039 4.8789-2.7734 6.6328-4.4883 3.9961-7.7031 9.2188-9.2383 15.027 6.3906 3.0039 13.18 5.0781 20.16 6.1602 6.6797 1.1758 13.219 3.0508 19.504 5.6016 6.5078-2.4727 13.223-4.3477 20.066-5.6016 7.0547-1.0391 13.895-3.2148 20.254-6.4375-1.7422-5.6602-4.9648-10.75-9.332-14.75-3.6406-3.668-3.6406-9.582 0-13.25 1.7734-1.7266 4.1484-2.6992 6.625-2.707 0.1875 0 0.375 0.09375 0.55859 0.09375h0.003906c0.98828 0.03125 1.9648 0.21875 2.8906 0.55859 0.53516 0.28906 1.0352 0.63281 1.4961 1.0273 0.59766 0.27344 1.1641 0.61719 1.6797 1.0273 11.012 9.9297 25.215 15.59 40.039 15.957 14.844-0.26953 29.078-5.9453 40.039-15.957 1.7578-1.7695 4.1445-2.7695 6.6367-2.7734 2.4922-0.003906 4.8828 0.98438 6.6445 2.7461 1.7617 1.7617 2.75 4.1523 2.7461 6.6445-0.007812 2.4922-1.0039 4.8789-2.7734 6.6328zm10.453-46.852c-13.254 14.09-34.254 30.891-59.078 30.891-24.828 0-45.828-16.801-59.078-30.895h-0.003906c-4.1406-4.2773-6.6094-9.9023-6.9531-15.848-0.34375-5.9453 1.4648-11.812 5.0859-16.539 11.016-14.652 33.602-39.387 60.949-39.387 27.348 0 49.934 24.734 60.945 39.387 3.625 4.7266 5.4297 10.594 5.0859 16.539-0.34375 5.9453-2.8086 11.57-6.9531 15.848zm-13.066-21.188c-7.1875-9.6172-26.133-31.922-46.012-31.922-10.395 0.86719-20.191 5.207-27.816 12.32-6.7461 5.8633-12.848 12.434-18.199 19.598-2.0625 2.4922-1.8594 6.1523 0.46875 8.4023 8.7734 9.332 26.414 25.012 45.547 25.012 19.133 0 36.773-15.68 45.547-25.012 2.3242-2.25 2.5273-5.9102 0.46484-8.4023zm0 0c-7.1875-9.6172-26.133-31.922-46.012-31.922-10.395 0.86719-20.191 5.207-27.816 12.32-6.7461 5.8633-12.848 12.434-18.199 19.598-2.0625 2.4922-1.8594 6.1523 0.46875 8.4023 8.7734 9.332 26.414 25.012 45.547 25.012 19.133 0 36.773-15.68 45.547-25.012 2.3242-2.25 2.5273-5.9102 0.46484-8.4023zm-177.33 0c-7.1875-9.6172-26.133-31.922-46.016-31.922-19.879 0-38.828 22.309-46.012 31.922v-0.003906c-2.0625 2.4922-1.8594 6.1523 0.46484 8.4023 8.7734 9.332 26.414 25.012 45.547 25.012 19.133 0 36.773-15.68 45.547-25.012 2.3008-2.2617 2.5-5.8984 0.46875-8.4023zm131.32-31.922c-10.395 0.86719-20.191 5.207-27.816 12.32-6.7461 5.8633-12.848 12.434-18.199 19.598-2.0625 2.4922-1.8594 6.1523 0.46875 8.4023 8.7734 9.332 26.414 25.012 45.547 25.012 19.133 0 36.773-15.68 45.547-25.012 2.3242-2.25 2.5273-5.9102 0.46484-8.4023-7.1875-9.6133-26.133-31.918-46.012-31.918zm-35.746 194.5-46.199-6.7188h-0.003906c-4.4531-0.65234-8.9805-0.65234-13.438 0l-46.293 6.7188c-2.2383 0.32812-4.5195 0.23438-6.7227-0.27734l-6.9062-1.4922 16.332 17.828 0.003906-0.003907c1.5742 1.7109 2.8125 3.707 3.6367 5.8789l5.9727 15.68 29.398-5.1328h0.003906c7.4766-1.2422 15.109-1.2422 22.586 0l29.398 5.1328 5.9766-15.586c0.80469-2.2109 2.0391-4.2422 3.6406-5.9727l16.332-17.828-7 1.4922v0.003906c-2.1953 0.5625-4.4844 0.65625-6.7188 0.27734zm-96.043-154.18c2.3008-2.2617 2.5-5.8984 0.46875-8.4023-7.1875-9.6133-26.133-31.918-46.016-31.918-19.879 0-38.828 22.309-46.012 31.922v-0.003906c-2.0625 2.4922-1.8594 6.1523 0.46484 8.4023 8.7734 9.332 26.414 25.012 45.547 25.012 19.133 0 36.773-15.68 45.547-25.012zm267.4-81.105 0.003906-0.003906c-12.426 2.1641-25.004 3.3203-37.613 3.4531-4.8438 0.015625-8.8945-3.668-9.3359-8.4922-7.1875-79.801-37.801-124.04-71.586-148.68 5.0625 6.5039 8.8359 13.918 11.105 21.84l0.375 1.4922c2.1094 7.9102 6.4102 15.062 12.414 20.629 12.426 11.641 19.543 27.863 19.691 44.891v4.1094c0 5.1523-4.1758 9.332-9.332 9.332s-9.332-4.1797-9.332-9.332v-4.1094c-0.070313-11.906-5.1094-23.242-13.906-31.266-8.4766-8.0273-14.578-18.23-17.641-29.492l-0.375-1.3984v-0.003907c-2.8789-10.395-9.4062-19.406-18.387-25.387l-40.039-26.879 2.1484 9.8008h-0.003906c2.0273 9.3477 8.4141 17.156 17.176 21 14.441 6.6758 24.77 19.922 27.719 35.559l4.0117 22.867h0.003906c0.92969 5.043 3.1875 9.7422 6.5312 13.629l21.465 27.441 0.003906-0.003906c3.1562 4.082 2.4492 9.9453-1.5898 13.16-1.6641 1.2656-3.6953 1.9531-5.7852 1.9609-2.8711 0.011719-5.5898-1.2969-7.375-3.5469l-21.188-27.16h0.003906c-5.3906-6.3828-8.9961-14.078-10.453-22.305l-3.9219-22.773c-1.9414-9.6992-8.4375-17.867-17.453-21.934-13.984-6.375-24.148-18.965-27.441-33.973l-3.7344-17.828c-3.6406-0.1875-6.9062-0.28125-9.707-0.28125-0.74609 7.4648-1.3086 15.121-1.3086 22.961l-0.089844 3.3594c-0.09375 17.828 0.55859 30.055 10.734 37.148 1.4922 1.0273 3.0781 2.0547 4.668 2.9883v-0.003906c5.1133 2.9492 9.793 6.5938 13.906 10.828 7.5664 9.6523 11.379 21.723 10.734 33.973-0.66016 8.0742 1.5898 16.121 6.3438 22.68 1.7461 1.7773 2.707 4.1758 2.6719 6.668-0.035156 2.4883-1.0625 4.8594-2.8555 6.5859-1.7148 1.6953-4.0312 2.6367-6.4414 2.6133-2.5312 0.035156-4.9648-0.98047-6.7188-2.8008-8.1211-9.6484-12.262-22.031-11.574-34.625 0.58203-8-1.5547-15.957-6.0664-22.586-2.9492-2.9883-6.3125-5.5352-9.9883-7.5625-1.7734-1.1211-3.5469-2.2422-5.3203-3.4531-3.6289-2.5742-6.8164-5.7266-9.4258-9.332-2.6094 3.6055-5.7969 6.7578-9.4258 9.332-1.7734 1.2109-3.5469 2.332-5.3203 3.4531-3.6758 2.0273-7.0391 4.5742-9.9883 7.5625-4.5117 6.6289-6.6484 14.586-6.0664 22.586 0.6875 12.594-3.4531 24.977-11.574 34.625-1.7539 1.8203-4.1875 2.8359-6.7188 2.8008-2.4102 0.023438-4.7266-0.91797-6.4414-2.6133-1.793-1.7266-2.8203-4.0977-2.8555-6.5859-0.035156-2.4922 0.92578-4.8906 2.6719-6.668 4.7539-6.5586 7.0039-14.605 6.3438-22.68-0.64453-12.25 3.168-24.32 10.734-33.973 4.1133-4.2344 8.793-7.8789 13.906-10.828 1.5859-0.93359 3.1719-1.9609 4.668-2.9883 10.172-7.0938 10.828-19.32 10.734-37.148l-0.09375-3.3594c0-7.8398-0.55859-15.492-1.3086-22.961-2.8008 0-6.0664 0.09375-9.707 0.28125l-3.7344 17.828 0.003906 0.003906c-3.293 15.008-13.457 27.598-27.441 33.973-9.0156 4.0664-15.512 12.234-17.453 21.934l-4.0117 22.867v-0.003906c-1.4375 8.3281-5.1172 16.102-10.641 22.496l-20.906 26.879c-1.7852 2.25-4.5039 3.5586-7.375 3.5469-2.0898-0.007812-4.1211-0.69531-5.7852-1.9609-4.0391-3.2148-4.7461-9.0781-1.5898-13.16l21.188-27.066c3.4844-3.9609 5.8086-8.8047 6.7227-14l4.1055-22.867c2.9492-15.637 13.277-28.883 27.719-35.559 8.7617-3.8438 15.148-11.652 17.176-21l2.1484-9.8008-39.949 26.879c-9.0547 5.9648-15.625 15.023-18.48 25.48l-0.375 1.3086c-3.0625 11.262-9.1641 21.465-17.641 29.492-8.7969 8.0234-13.836 19.359-13.906 31.266v4.1094c0 5.1523-4.1758 9.332-9.332 9.332s-9.332-4.1797-9.332-9.332v-4.1094c0.14844-17.027 7.2656-33.25 19.691-44.891 6.0039-5.5664 10.305-12.719 12.414-20.629l0.375-1.3984c2.25-7.9609 6.0234-15.406 11.105-21.934-33.785 24.547-64.398 68.879-71.586 148.68-0.44141 4.8242-4.4922 8.5078-9.3359 8.4922-12.609-0.13281-25.188-1.2891-37.613-3.4531 14.969 15.441 27.211 33.301 36.215 52.828 12.961 31.371 16.746 65.773 10.918 99.215 3.2656 9.9883 21.746 62.719 60.574 86.055v-0.003906c2.3789 1.4609 4.0117 3.875 4.4805 6.6289 0.55859 3.4531 14.465 85.773 112.09 94.734 97.625-8.9609 111.54-91.281 112.09-94.734 0.44531-2.7617 2.082-5.1875 4.4805-6.6289 39.012-23.426 57.309-75.973 60.574-86.055v0.003906c-5.8281-33.441-2.043-67.844 10.918-99.215 9.0039-19.527 21.246-37.387 36.215-52.828zm-193.57 6.1562c14.352-13.715 33.441-21.371 53.293-21.371s38.941 7.6562 53.293 21.371c3.6406 3.668 3.6406 9.5859 0 13.254-3.6797 3.6094-9.5742 3.6094-13.254 0-11.004-9.9453-25.211-15.605-40.039-15.961-14.844 0.27344-29.078 5.9492-40.039 15.961-1.7578 1.7695-4.1445 2.7656-6.6367 2.7734-2.4922 0.003906-4.8828-0.98438-6.6445-2.7461-1.7617-1.7617-2.75-4.1523-2.7461-6.6445 0.007812-2.4922 1.0039-4.8789 2.7734-6.6367zm-168 0c14.562-13.387 33.516-20.988 53.293-21.371 19.777 0.38281 38.73 7.9844 53.293 21.371 3.6406 3.668 3.6406 9.5859 0 13.254-3.6797 3.6094-9.5742 3.6094-13.254 0-11.004-9.9453-25.211-15.605-40.039-15.961-14.844 0.27344-29.078 5.9492-40.039 15.961-1.7578 1.7695-4.1445 2.7656-6.6367 2.7734-2.4922 0.003906-4.8828-0.98438-6.6445-2.7461-1.7617-1.7617-2.75-4.1523-2.7461-6.6445 0.007812-2.4922 1.0039-4.8789 2.7734-6.6367zm-10.453 87.734c-4.1445-4.2773-6.6094-9.9023-6.9531-15.848-0.34375-5.9453 1.4609-11.812 5.0859-16.539 11.012-14.652 33.602-39.387 60.945-39.387 27.348 0 49.934 24.734 60.945 39.387h0.003906c3.6211 4.7266 5.4297 10.594 5.0859 16.539-0.34375 5.9453-2.8125 11.57-6.9531 15.848-13.254 14.094-34.254 30.895-59.082 30.895-24.824 0-45.824-16.801-59.078-30.895zm247.98 130.48-36.121 39.574-5.9727 15.586h0.003907c-1.5508 4.0625-4.4688 7.457-8.25 9.6016-3.7812 2.1484-8.1914 2.9102-12.473 2.1562l-29.398-5.1328c-5.3125-0.93359-10.742-0.93359-16.055 0l-29.398 5.1328c-1.082 0.18359-2.1719 0.27734-3.2656 0.28125-3.7891 0.003906-7.4883-1.1445-10.609-3.2969-3.1172-2.1484-5.5039-5.1992-6.8477-8.7422l-5.9727-15.586-36.121-39.574h0.003907c-2.7422-2.9961-3.2266-7.4258-1.1992-10.945 2.0234-3.5195 6.0977-5.3203 10.062-4.457l35.746 7.8398 46.199-6.7188h0.003907c6.25-0.93359 12.602-0.93359 18.852 0l46.199 6.7188 35.746-7.8398h0.003906c3.9648-0.86328 8.0391 0.9375 10.062 4.457 2.0273 3.5195 1.543 7.9492-1.1992 10.945zm37.055-83.625v-0.003906c-14.562 13.387-33.516 20.988-53.293 21.375-8.7383-0.0625-17.398-1.6719-25.574-4.7617-0.23047 4.3047-2.0586 8.3672-5.1328 11.387-8.6836 6.2812-18.844 10.203-29.492 11.387-5.25 0.9375-10.402 2.3438-15.402 4.2031-2.6094 1.293-5.4844 1.9648-8.3984 1.957-2.9414-0.003906-5.8477-0.67188-8.4922-1.957-4.9609-1.875-10.086-3.2812-15.309-4.2031-10.648-1.1836-20.809-5.1055-29.492-11.387-3.0742-3.0195-4.9023-7.082-5.1328-11.387-8.1758 3.0898-16.836 4.6992-25.574 4.7617-19.777-0.38672-38.73-7.9883-53.293-21.375-3.6328-3.6641-3.6211-9.5742 0.027344-13.227 3.6484-3.6484 9.5625-3.6602 13.227-0.023438 11.012 9.9297 25.215 15.59 40.039 15.957 14.844-0.26953 29.078-5.9453 40.039-15.957 1.7578-1.7695 4.1445-2.7695 6.6367-2.7734 2.4922-0.003906 4.8828 0.98438 6.6445 2.7461 1.7617 1.7617 2.75 4.1523 2.7461 6.6445-0.007812 2.4922-1.0039 4.8789-2.7734 6.6328-4.4883 3.9961-7.7031 9.2188-9.2383 15.027 6.3906 3.0039 13.18 5.0781 20.16 6.1602 6.6797 1.1758 13.219 3.0508 19.504 5.6016 6.5078-2.4727 13.223-4.3477 20.066-5.6016 7.0547-1.0391 13.895-3.2148 20.254-6.4375-1.7422-5.6602-4.9648-10.75-9.332-14.75-3.6406-3.668-3.6406-9.582 0-13.25 1.7734-1.7266 4.1484-2.6992 6.625-2.707 0.1875 0 0.375 0.09375 0.55859 0.09375h0.003906c0.98828 0.03125 1.9648 0.21875 2.8906 0.55859 0.53516 0.28906 1.0352 0.63281 1.4961 1.0273 0.59766 0.27344 1.1641 0.61719 1.6797 1.0273 11.012 9.9297 25.215 15.59 40.039 15.957 14.844-0.26953 29.078-5.9453 40.039-15.957 1.7578-1.7695 4.1445-2.7695 6.6367-2.7734 2.4922-0.003906 4.8828 0.98438 6.6445 2.7461 1.7617 1.7617 2.75 4.1523 2.7461 6.6445-0.007812 2.4922-1.0039 4.8789-2.7734 6.6328zm10.453-46.852c-13.254 14.09-34.254 30.891-59.078 30.891-24.828 0-45.828-16.801-59.078-30.895h-0.003906c-4.1406-4.2773-6.6094-9.9023-6.9531-15.848-0.34375-5.9453 1.4648-11.812 5.0859-16.539 11.016-14.652 33.602-39.387 60.949-39.387 27.348 0 49.934 24.734 60.945 39.387 3.625 4.7266 5.4297 10.594 5.0859 16.539-0.34375 5.9453-2.8086 11.57-6.9531 15.848zm-190.4-21.188c-7.1875-9.6172-26.133-31.922-46.016-31.922-19.879 0-38.828 22.309-46.012 31.922v-0.003906c-2.0625 2.4922-1.8594 6.1523 0.46484 8.4023 8.7734 9.332 26.414 25.012 45.547 25.012 19.133 0 36.773-15.68 45.547-25.012 2.3008-2.2617 2.5-5.8984 0.46875-8.4023zm177.33 0c-7.1875-9.6172-26.133-31.922-46.012-31.922-10.395 0.86719-20.191 5.207-27.816 12.32-6.7461 5.8633-12.848 12.434-18.199 19.598-2.0625 2.4922-1.8594 6.1523 0.46875 8.4023 8.7734 9.332 26.414 25.012 45.547 25.012 19.133 0 36.773-15.68 45.547-25.012 2.3242-2.25 2.5273-5.9102 0.46484-8.4023zm-177.33 0c-7.1875-9.6172-26.133-31.922-46.016-31.922-19.879 0-38.828 22.309-46.012 31.922v-0.003906c-2.0625 2.4922-1.8594 6.1523 0.46484 8.4023 8.7734 9.332 26.414 25.012 45.547 25.012 19.133 0 36.773-15.68 45.547-25.012 2.3008-2.2617 2.5-5.8984 0.46875-8.4023zm102.29 162.3c-2.1953 0.5625-4.4844 0.65625-6.7188 0.27734l-46.199-6.7188h-0.003906c-4.4531-0.65234-8.9805-0.65234-13.438 0l-46.293 6.7188c-2.2383 0.32812-4.5195 0.23438-6.7227-0.27734l-6.9062-1.4922 16.332 17.828 0.003906-0.003907c1.5742 1.7109 2.8125 3.707 3.6367 5.8789l5.9727 15.68 29.398-5.1328h0.003906c7.4766-1.2422 15.109-1.2422 22.586 0l29.398 5.1328 5.9766-15.586c0.80469-2.2109 2.0391-4.2422 3.6406-5.9727l16.332-17.828zm75.039-162.31c-7.1875-9.6133-26.133-31.918-46.012-31.918-10.395 0.86719-20.191 5.207-27.816 12.32-6.7461 5.8633-12.848 12.434-18.199 19.598-2.0625 2.4922-1.8594 6.1523 0.46875 8.4023 8.7734 9.332 26.414 25.012 45.547 25.012 19.133 0 36.773-15.68 45.547-25.012 2.3242-2.25 2.5273-5.9102 0.46484-8.4023zm-177.33 0c-7.1875-9.6133-26.133-31.918-46.016-31.918-19.879 0-38.828 22.309-46.012 31.922v-0.003906c-2.0625 2.4922-1.8594 6.1523 0.46484 8.4023 8.7734 9.332 26.414 25.012 45.547 25.012 19.133 0 36.773-15.68 45.547-25.012 2.3008-2.2617 2.5-5.8984 0.46875-8.4023zm177.33 0c-7.1875-9.6133-26.133-31.918-46.012-31.918-10.395 0.86719-20.191 5.207-27.816 12.32-6.7461 5.8633-12.848 12.434-18.199 19.598-2.0625 2.4922-1.8594 6.1523 0.46875 8.4023 8.7734 9.332 26.414 25.012 45.547 25.012 19.133 0 36.773-15.68 45.547-25.012 2.3242-2.25 2.5273-5.9102 0.46484-8.4023zm-177.33 0c-7.1875-9.6133-26.133-31.918-46.016-31.918-19.879 0-38.828 22.309-46.012 31.922v-0.003906c-2.0625 2.4922-1.8594 6.1523 0.46484 8.4023 8.7734 9.332 26.414 25.012 45.547 25.012 19.133 0 36.773-15.68 45.547-25.012 2.3008-2.2617 2.5-5.8984 0.46875-8.4023zm177.33 0c-7.1875-9.6133-26.133-31.918-46.012-31.918-10.395 0.86719-20.191 5.207-27.816 12.32-6.7461 5.8633-12.848 12.434-18.199 19.598-2.0625 2.4922-1.8594 6.1523 0.46875 8.4023 8.7734 9.332 26.414 25.012 45.547 25.012 19.133 0 36.773-15.68 45.547-25.012 2.3242-2.25 2.5273-5.9102 0.46484-8.4023zm-177.33 0c-7.1875-9.6133-26.133-31.918-46.016-31.918-19.879 0-38.828 22.309-46.012 31.922v-0.003906c-2.0625 2.4922-1.8594 6.1523 0.46484 8.4023 8.7734 9.332 26.414 25.012 45.547 25.012 19.133 0 36.773-15.68 45.547-25.012 2.3008-2.2617 2.5-5.8984 0.46875-8.4023zm131.32-31.918c-10.395 0.86719-20.191 5.207-27.816 12.32-6.7461 5.8633-12.848 12.434-18.199 19.598-2.0625 2.4922-1.8594 6.1523 0.46875 8.4023 8.7734 9.332 26.414 25.012 45.547 25.012 19.133 0 36.773-15.68 45.547-25.012 2.3242-2.25 2.5273-5.9102 0.46484-8.4023-7.1875-9.6133-26.133-31.918-46.012-31.918zm-35.746 194.5-46.199-6.7188h-0.003906c-4.4531-0.65234-8.9805-0.65234-13.438 0l-46.293 6.7188c-2.2383 0.32812-4.5195 0.23438-6.7227-0.27734l-6.9062-1.4922 16.332 17.828 0.003906-0.003907c1.5742 1.7109 2.8125 3.707 3.6367 5.8789l5.9727 15.68 29.398-5.1328h0.003906c7.4766-1.2422 15.109-1.2422 22.586 0l29.398 5.1328 5.9766-15.586c0.80469-2.2109 2.0391-4.2422 3.6406-5.9727l16.332-17.828-7 1.4922v0.003906c-2.1953 0.5625-4.4844 0.65625-6.7188 0.27734zm-96.043-154.18c2.3008-2.2617 2.5-5.8984 0.46875-8.4023-7.1875-9.6133-26.133-31.918-46.016-31.918-19.879 0-38.828 22.309-46.012 31.922v-0.003906c-2.0625 2.4922-1.8594 6.1523 0.46484 8.4023 8.7734 9.332 26.414 25.012 45.547 25.012 19.133 0 36.773-15.68 45.547-25.012zm267.4-81.105 0.003906-0.003906c-12.426 2.1641-25.004 3.3203-37.613 3.4531-4.8438 0.015625-8.8945-3.668-9.3359-8.4922-7.1875-79.801-37.801-124.04-71.586-148.68 5.0625 6.5039 8.8359 13.918 11.105 21.84l0.375 1.4922c2.1094 7.9102 6.4102 15.062 12.414 20.629 12.426 11.641 19.543 27.863 19.691 44.891v4.1094c0 5.1523-4.1758 9.332-9.332 9.332s-9.332-4.1797-9.332-9.332v-4.1094c-0.070313-11.906-5.1094-23.242-13.906-31.266-8.4766-8.0273-14.578-18.23-17.641-29.492l-0.375-1.3984v-0.003907c-2.8789-10.395-9.4062-19.406-18.387-25.387l-40.039-26.879 2.1484 9.8008h-0.003906c2.0273 9.3477 8.4141 17.156 17.176 21 14.441 6.6758 24.77 19.922 27.719 35.559l4.0117 22.867h0.003906c0.92969 5.043 3.1875 9.7422 6.5312 13.629l21.465 27.441 0.003906-0.003906c3.1562 4.082 2.4492 9.9453-1.5898 13.16-1.6641 1.2656-3.6953 1.9531-5.7852 1.9609-2.8711 0.011719-5.5898-1.2969-7.375-3.5469l-21.188-27.16h0.003906c-5.3906-6.3828-8.9961-14.078-10.453-22.305l-3.9219-22.773c-1.9414-9.6992-8.4375-17.867-17.453-21.934-13.984-6.375-24.148-18.965-27.441-33.973l-3.7344-17.828c-3.6406-0.1875-6.9062-0.28125-9.707-0.28125-0.74609 7.4648-1.3086 15.121-1.3086 22.961l-0.089844 3.3594c-0.09375 17.828 0.55859 30.055 10.734 37.148 1.4922 1.0273 3.0781 2.0547 4.668 2.9883v-0.003906c5.1133 2.9492 9.793 6.5938 13.906 10.828 7.5664 9.6523 11.379 21.723 10.734 33.973-0.66016 8.0742 1.5898 16.121 6.3438 22.68 1.7461 1.7773 2.707 4.1758 2.6719 6.668-0.035156 2.4883-1.0625 4.8594-2.8555 6.5859-1.7148 1.6953-4.0312 2.6367-6.4414 2.6133-2.5312 0.035156-4.9648-0.98047-6.7188-2.8008-8.1211-9.6484-12.262-22.031-11.574-34.625 0.58203-8-1.5547-15.957-6.0664-22.586-2.9492-2.9883-6.3125-5.5352-9.9883-7.5625-1.7734-1.1211-3.5469-2.2422-5.3203-3.4531-3.6289-2.5742-6.8164-5.7266-9.4258-9.332-2.6094 3.6055-5.7969 6.7578-9.4258 9.332-1.7734 1.2109-3.5469 2.332-5.3203 3.4531-3.6758 2.0273-7.0391 4.5742-9.9883 7.5625-4.5117 6.6289-6.6484 14.586-6.0664 22.586 0.6875 12.594-3.4531 24.977-11.574 34.625-1.7539 1.8203-4.1875 2.8359-6.7188 2.8008-2.4102 0.023438-4.7266-0.91797-6.4414-2.6133-1.793-1.7266-2.8203-4.0977-2.8555-6.5859-0.035156-2.4922 0.92578-4.8906 2.6719-6.668 4.7539-6.5586 7.0039-14.605 6.3438-22.68-0.64453-12.25 3.168-24.32 10.734-33.973 4.1133-4.2344 8.793-7.8789 13.906-10.828 1.5859-0.93359 3.1719-1.9609 4.668-2.9883 10.172-7.0938 10.828-19.32 10.734-37.148l-0.09375-3.3594c0-7.8398-0.55859-15.492-1.3086-22.961-2.8008 0-6.0664 0.09375-9.707 0.28125l-3.7344 17.828 0.003906 0.003906c-3.293 15.008-13.457 27.598-27.441 33.973-9.0156 4.0664-15.512 12.234-17.453 21.934l-4.0117 22.867v-0.003906c-1.4375 8.3281-5.1172 16.102-10.641 22.496l-20.906 26.879c-1.7852 2.25-4.5039 3.5586-7.375 3.5469-2.0898-0.007812-4.1211-0.69531-5.7852-1.9609-4.0391-3.2148-4.7461-9.0781-1.5898-13.16l21.188-27.066c3.4844-3.9609 5.8086-8.8047 6.7227-14l4.1055-22.867c2.9492-15.637 13.277-28.883 27.719-35.559 8.7617-3.8438 15.148-11.652 17.176-21l2.1484-9.8008-39.949 26.879c-9.0547 5.9648-15.625 15.023-18.48 25.48l-0.375 1.3086c-3.0625 11.262-9.1641 21.465-17.641 29.492-8.7969 8.0234-13.836 19.359-13.906 31.266v4.1094c0 5.1523-4.1758 9.332-9.332 9.332s-9.332-4.1797-9.332-9.332v-4.1094c0.14844-17.027 7.2656-33.25 19.691-44.891 6.0039-5.5664 10.305-12.719 12.414-20.629l0.375-1.3984c2.25-7.9609 6.0234-15.406 11.105-21.934-33.785 24.547-64.398 68.879-71.586 148.68-0.44141 4.8242-4.4922 8.5078-9.3359 8.4922-12.609-0.13281-25.188-1.2891-37.613-3.4531 14.969 15.441 27.211 33.301 36.215 52.828 12.961 31.371 16.746 65.773 10.918 99.215 3.2656 9.9883 21.746 62.719 60.574 86.055v-0.003906c2.3789 1.4609 4.0117 3.875 4.4805 6.6289 0.55859 3.4531 14.465 85.773 112.09 94.734 97.625-8.9609 111.54-91.281 112.09-94.734 0.44531-2.7617 2.082-5.1875 4.4805-6.6289 39.012-23.426 57.309-75.973 60.574-86.055v0.003906c-5.8281-33.441-2.043-67.844 10.918-99.215 9.0039-19.527 21.246-37.387 36.215-52.828zm-193.57 6.1562c14.352-13.715 33.441-21.371 53.293-21.371s38.941 7.6562 53.293 21.371c3.6406 3.668 3.6406 9.5859 0 13.254-3.6797 3.6094-9.5742 3.6094-13.254 0-11.004-9.9453-25.211-15.605-40.039-15.961-14.844 0.27344-29.078 5.9492-40.039 15.961-1.7578 1.7695-4.1445 2.7656-6.6367 2.7734-2.4922 0.003906-4.8828-0.98438-6.6445-2.7461-1.7617-1.7617-2.75-4.1523-2.7461-6.6445 0.007812-2.4922 1.0039-4.8789 2.7734-6.6367zm-168 0c14.562-13.387 33.516-20.988 53.293-21.371 19.777 0.38281 38.73 7.9844 53.293 21.371 3.6406 3.668 3.6406 9.5859 0 13.254-3.6797 3.6094-9.5742 3.6094-13.254 0-11.004-9.9453-25.211-15.605-40.039-15.961-14.844 0.27344-29.078 5.9492-40.039 15.961-1.7578 1.7695-4.1445 2.7656-6.6367 2.7734-2.4922 0.003906-4.8828-0.98438-6.6445-2.7461-1.7617-1.7617-2.75-4.1523-2.7461-6.6445 0.007812-2.4922 1.0039-4.8789 2.7734-6.6367zm-10.453 87.734c-4.1445-4.2773-6.6094-9.9023-6.9531-15.848-0.34375-5.9453 1.4609-11.812 5.0859-16.539 11.012-14.652 33.602-39.387 60.945-39.387 27.348 0 49.934 24.734 60.945 39.387h0.003906c3.6211 4.7266 5.4297 10.594 5.0859 16.539-0.34375 5.9453-2.8125 11.57-6.9531 15.848-13.254 14.094-34.254 30.895-59.082 30.895-24.824 0-45.824-16.801-59.078-30.895zm247.98 130.48-36.121 39.574-5.9727 15.586h0.003907c-1.5508 4.0625-4.4688 7.457-8.25 9.6016-3.7812 2.1484-8.1914 2.9102-12.473 2.1562l-29.398-5.1328c-5.3125-0.93359-10.742-0.93359-16.055 0l-29.398 5.1328c-1.082 0.18359-2.1719 0.27734-3.2656 0.28125-3.7891 0.003906-7.4883-1.1445-10.609-3.2969-3.1172-2.1484-5.5039-5.1992-6.8477-8.7422l-5.9727-15.586-36.121-39.574h0.003907c-2.7422-2.9961-3.2266-7.4258-1.1992-10.945 2.0234-3.5195 6.0977-5.3203 10.062-4.457l35.746 7.8398 46.199-6.7188h0.003907c6.25-0.93359 12.602-0.93359 18.852 0l46.199 6.7188 35.746-7.8398h0.003906c3.9648-0.86328 8.0391 0.9375 10.062 4.457 2.0273 3.5195 1.543 7.9492-1.1992 10.945zm37.055-83.625v-0.003906c-14.562 13.387-33.516 20.988-53.293 21.375-8.7383-0.0625-17.398-1.6719-25.574-4.7617-0.23047 4.3047-2.0586 8.3672-5.1328 11.387-8.6836 6.2812-18.844 10.203-29.492 11.387-5.25 0.9375-10.402 2.3438-15.402 4.2031-2.6094 1.293-5.4844 1.9648-8.3984 1.957-2.9414-0.003906-5.8477-0.67188-8.4922-1.957-4.9609-1.875-10.086-3.2812-15.309-4.2031-10.648-1.1836-20.809-5.1055-29.492-11.387-3.0742-3.0195-4.9023-7.082-5.1328-11.387-8.1758 3.0898-16.836 4.6992-25.574 4.7617-19.777-0.38672-38.73-7.9883-53.293-21.375-3.6328-3.6641-3.6211-9.5742 0.027344-13.227 3.6484-3.6484 9.5625-3.6602 13.227-0.023438 11.012 9.9297 25.215 15.59 40.039 15.957 14.844-0.26953 29.078-5.9453 40.039-15.957 1.7578-1.7695 4.1445-2.7695 6.6367-2.7734 2.4922-0.003906 4.8828 0.98438 6.6445 2.7461 1.7617 1.7617 2.75 4.1523 2.7461 6.6445-0.007812 2.4922-1.0039 4.8789-2.7734 6.6328-4.4883 3.9961-7.7031 9.2188-9.2383 15.027 6.3906 3.0039 13.18 5.0781 20.16 6.1602 6.6797 1.1758 13.219 3.0508 19.504 5.6016 6.5078-2.4727 13.223-4.3477 20.066-5.6016 7.0547-1.0391 13.895-3.2148 20.254-6.4375-1.7422-5.6602-4.9648-10.75-9.332-14.75-3.6406-3.668-3.6406-9.582 0-13.25 1.7734-1.7266 4.1484-2.6992 6.625-2.707 0.1875 0 0.375 0.09375 0.55859 0.09375h0.003906c0.98828 0.03125 1.9648 0.21875 2.8906 0.55859 0.53516 0.28906 1.0352 0.63281 1.4961 1.0273 0.59766 0.27344 1.1641 0.61719 1.6797 1.0273 11.012 9.9297 25.215 15.59 40.039 15.957 14.844-0.26953 29.078-5.9453 40.039-15.957 1.7578-1.7695 4.1445-2.7695 6.6367-2.7734 2.4922-0.003906 4.8828 0.98438 6.6445 2.7461 1.7617 1.7617 2.75 4.1523 2.7461 6.6445-0.007812 2.4922-1.0039 4.8789-2.7734 6.6328zm10.453-46.852c-13.254 14.09-34.254 30.891-59.078 30.891-24.828 0-45.828-16.801-59.078-30.895h-0.003906c-4.1406-4.2773-6.6094-9.9023-6.9531-15.848-0.34375-5.9453 1.4648-11.812 5.0859-16.539 11.016-14.652 33.602-39.387 60.949-39.387 27.348 0 49.934 24.734 60.945 39.387 3.625 4.7266 5.4297 10.594 5.0859 16.539-0.34375 5.9453-2.8086 11.57-6.9531 15.848zm-190.4-21.188c-7.1875-9.6172-26.133-31.922-46.016-31.922-19.879 0-38.828 22.309-46.012 31.922v-0.003906c-2.0625 2.4922-1.8594 6.1523 0.46484 8.4023 8.7734 9.332 26.414 25.012 45.547 25.012 19.133 0 36.773-15.68 45.547-25.012 2.3008-2.2617 2.5-5.8984 0.46875-8.4023zm177.33 0c-7.1875-9.6172-26.133-31.922-46.012-31.922-10.395 0.86719-20.191 5.207-27.816 12.32-6.7461 5.8633-12.848 12.434-18.199 19.598-2.0625 2.4922-1.8594 6.1523 0.46875 8.4023 8.7734 9.332 26.414 25.012 45.547 25.012 19.133 0 36.773-15.68 45.547-25.012 2.3242-2.25 2.5273-5.9102 0.46484-8.4023zm-177.33 0c-7.1875-9.6172-26.133-31.922-46.016-31.922-19.879 0-38.828 22.309-46.012 31.922v-0.003906c-2.0625 2.4922-1.8594 6.1523 0.46484 8.4023 8.7734 9.332 26.414 25.012 45.547 25.012 19.133 0 36.773-15.68 45.547-25.012 2.3008-2.2617 2.5-5.8984 0.46875-8.4023zm177.33 0c-7.1875-9.6172-26.133-31.922-46.012-31.922-10.395 0.86719-20.191 5.207-27.816 12.32-6.7461 5.8633-12.848 12.434-18.199 19.598-2.0625 2.4922-1.8594 6.1523 0.46875 8.4023 8.7734 9.332 26.414 25.012 45.547 25.012 19.133 0 36.773-15.68 45.547-25.012 2.3242-2.25 2.5273-5.9102 0.46484-8.4023zm-177.33 0c-7.1875-9.6172-26.133-31.922-46.016-31.922-19.879 0-38.828 22.309-46.012 31.922v-0.003906c-2.0625 2.4922-1.8594 6.1523 0.46484 8.4023 8.7734 9.332 26.414 25.012 45.547 25.012 19.133 0 36.773-15.68 45.547-25.012 2.3008-2.2617 2.5-5.8984 0.46875-8.4023zm0 0c-7.1875-9.6172-26.133-31.922-46.016-31.922-19.879 0-38.828 22.309-46.012 31.922v-0.003906c-2.0625 2.4922-1.8594 6.1523 0.46484 8.4023 8.7734 9.332 26.414 25.012 45.547 25.012 19.133 0 36.773-15.68 45.547-25.012 2.3008-2.2617 2.5-5.8984 0.46875-8.4023zm102.29 162.3c-2.1953 0.5625-4.4844 0.65625-6.7188 0.27734l-46.199-6.7188h-0.003906c-4.4531-0.65234-8.9805-0.65234-13.438 0l-46.293 6.7188c-2.2383 0.32812-4.5195 0.23438-6.7227-0.27734l-6.9062-1.4922 16.332 17.828 0.003906-0.003907c1.5742 1.7109 2.8125 3.707 3.6367 5.8789l5.9727 15.68 29.398-5.1328h0.003906c7.4766-1.2422 15.109-1.2422 22.586 0l29.398 5.1328 5.9766-15.586c0.80469-2.2109 2.0391-4.2422 3.6406-5.9727l16.332-17.828z"/>

 </g>
</svg>
