<?xml version="1.0" encoding="UTF-8"?>
<svg width="700pt" height="700pt" version="1.1" viewBox="0 0 700 700" xmlns="http://www.w3.org/2000/svg" xmlns:xlink="http://www.w3.org/1999/xlink">
 <defs>
  <symbol id="p" overflow="visible">
   <path d="m31.266-1.875c-1.6172 0.84375-3.2969 1.4766-5.0469 1.8906-1.7422 0.42578-3.5586 0.64062-5.4531 0.64062-5.668 0-10.156-1.582-13.469-4.75-3.3125-3.1641-4.9688-7.4609-4.9688-12.891 0-5.4375 1.6562-9.7383 4.9688-12.906 3.3125-3.1641 7.8008-4.75 13.469-4.75 1.8945 0 3.7109 0.21484 5.4531 0.64062 1.75 0.42969 3.4297 1.0586 5.0469 1.8906v7.0469c-1.625-1.1133-3.2305-1.9258-4.8125-2.4375-1.5742-0.51953-3.2344-0.78125-4.9844-0.78125-3.1367 0-5.6016 1.0078-7.3906 3.0156-1.793 2-2.6875 4.7617-2.6875 8.2812 0 3.5117 0.89453 6.2734 2.6875 8.2812 1.7891 2 4.2539 3 7.3906 3 1.75 0 3.4102-0.25391 4.9844-0.76562 1.582-0.51953 3.1875-1.332 4.8125-2.4375z"/>
  </symbol>
  <symbol id="i" overflow="visible">
   <path d="m22.875-18.578c-0.71094-0.33203-1.418-0.57812-2.125-0.73438-0.71094-0.15625-1.418-0.23438-2.125-0.23438-2.1055 0-3.7266 0.67188-4.8594 2.0156-1.125 1.3438-1.6875 3.2656-1.6875 5.7656v11.766h-8.1562v-25.531h8.1562v4.2031c1.0508-1.6758 2.2539-2.8945 3.6094-3.6562 1.3633-0.76953 2.9922-1.1562 4.8906-1.1562 0.26953 0 0.56641 0.011719 0.89062 0.03125 0.32031 0.023437 0.78516 0.074219 1.3906 0.15625z"/>
  </symbol>
  <symbol id="b" overflow="visible">
   <path d="m29.391-12.828v2.3281h-19.062c0.19531 1.9062 0.88281 3.3398 2.0625 4.2969 1.1875 0.96094 2.8438 1.4375 4.9688 1.4375 1.7188 0 3.4766-0.25391 5.2812-0.76562 1.8008-0.50781 3.6484-1.2812 5.5469-2.3125v6.2969c-1.9297 0.73047-3.8594 1.2773-5.7969 1.6406-1.9297 0.375-3.8555 0.5625-5.7812 0.5625-4.6172 0-8.2031-1.1719-10.766-3.5156s-3.8438-5.6328-3.8438-9.875c0-4.1641 1.2539-7.4414 3.7656-9.8281 2.5195-2.3828 5.9844-3.5781 10.391-3.5781 4.0078 0 7.2188 1.2109 9.625 3.625 2.4062 2.418 3.6094 5.6484 3.6094 9.6875zm-8.375-2.7188c0-1.5391-0.45312-2.7852-1.3594-3.7344-0.90625-0.95703-2.0898-1.4375-3.5469-1.4375-1.5859 0-2.8711 0.44922-3.8594 1.3438-0.98047 0.88672-1.5898 2.1641-1.8281 3.8281z"/>
  </symbol>
  <symbol id="a" overflow="visible">
   <path d="m15.359-11.484c-1.6992 0-2.9805 0.29297-3.8438 0.875-0.85547 0.57422-1.2812 1.4219-1.2812 2.5469 0 1.0312 0.34375 1.8398 1.0312 2.4219 0.69531 0.58594 1.6602 0.875 2.8906 0.875 1.5312 0 2.8164-0.54688 3.8594-1.6406 1.0508-1.1016 1.5781-2.4844 1.5781-4.1406v-0.9375zm12.469-3.0781v14.562h-8.2344v-3.7812c-1.0938 1.5547-2.3242 2.6836-3.6875 3.3906-1.3672 0.69531-3.0273 1.0469-4.9844 1.0469-2.6484 0-4.7969-0.76953-6.4531-2.3125-1.6484-1.5391-2.4688-3.5391-2.4688-6 0-2.9883 1.0312-5.1797 3.0938-6.5781 2.0625-1.4062 5.2969-2.1094 9.7031-2.1094h4.7969v-0.64062c0-1.2891-0.51172-2.2344-1.5312-2.8281-1.0117-0.60156-2.5938-0.90625-4.75-0.90625-1.75 0-3.3828 0.17969-4.8906 0.53125-1.5 0.34375-2.8984 0.86719-4.1875 1.5625v-6.2188c1.75-0.42578 3.5039-0.75 5.2656-0.96875 1.7578-0.21875 3.5234-0.32812 5.2969-0.32812 4.5938 0 7.9102 0.91406 9.9531 2.7344 2.0508 1.8125 3.0781 4.7617 3.0781 8.8438z"/>
  </symbol>
  <symbol id="h" overflow="visible">
   <path d="m12.828-32.766v7.2344h8.4062v5.8438h-8.4062v10.828c0 1.1797 0.23438 1.9805 0.70312 2.4062 0.47656 0.41797 1.4141 0.625 2.8125 0.625h4.1875v5.8281h-7c-3.2188 0-5.5-0.67188-6.8438-2.0156s-2.0156-3.625-2.0156-6.8438v-10.828h-4.0625v-5.8438h4.0625v-7.2344z"/>
  </symbol>
  <symbol id="g" overflow="visible">
   <path d="m21.281-21.781v-13.672h8.2031v35.453h-8.2031v-3.6875c-1.125 1.5-2.3672 2.6016-3.7188 3.2969-1.3438 0.69531-2.9062 1.0469-4.6875 1.0469-3.1484 0-5.7305-1.25-7.75-3.75-2.0234-2.5-3.0312-5.7109-3.0312-9.6406 0-3.9375 1.0078-7.1562 3.0312-9.6562 2.0195-2.5 4.6016-3.75 7.75-3.75 1.7578 0 3.3164 0.35547 4.6719 1.0625 1.3633 0.71094 2.6094 1.8086 3.7344 3.2969zm-5.375 16.516c1.75 0 3.082-0.63281 4-1.9062 0.91406-1.2812 1.375-3.1328 1.375-5.5625 0-2.4375-0.46094-4.2891-1.375-5.5625-0.91797-1.2812-2.25-1.9219-4-1.9219-1.7305 0-3.0586 0.64062-3.9844 1.9219-0.91797 1.2734-1.375 3.125-1.375 5.5625 0 2.4297 0.45703 4.2812 1.375 5.5625 0.92578 1.2734 2.2539 1.9062 3.9844 1.9062z"/>
  </symbol>
  <symbol id="f" overflow="visible">
   <path d="m17.5-5.2656c1.75 0 3.082-0.63281 4-1.9062 0.91406-1.2812 1.375-3.1328 1.375-5.5625 0-2.4375-0.46094-4.2891-1.375-5.5625-0.91797-1.2812-2.25-1.9219-4-1.9219s-3.0938 0.64844-4.0312 1.9375c-0.92969 1.2812-1.3906 3.1328-1.3906 5.5469 0 2.418 0.46094 4.2656 1.3906 5.5469 0.9375 1.2812 2.2812 1.9219 4.0312 1.9219zm-5.4219-16.516c1.125-1.4883 2.3672-2.5859 3.7344-3.2969 1.3633-0.70703 2.9375-1.0625 4.7188-1.0625 3.1445 0 5.7266 1.25 7.75 3.75 2.0195 2.5 3.0312 5.7188 3.0312 9.6562 0 3.9297-1.0117 7.1406-3.0312 9.6406-2.0234 2.5-4.6055 3.75-7.75 3.75-1.7812 0-3.3555-0.35156-4.7188-1.0469-1.3672-0.70703-2.6094-1.8047-3.7344-3.2969v3.6875h-8.1562v-35.453h8.1562z"/>
  </symbol>
  <symbol id="e" overflow="visible">
   <path d="m0.5625-25.531h8.1719l6.8594 17.328 5.8281-17.328h8.1562l-10.734 27.953c-1.0742 2.832-2.3281 4.8164-3.7656 5.9531-1.4375 1.1328-3.3359 1.7031-5.6875 1.7031h-4.7188v-5.3594h2.5469c1.3828 0 2.3906-0.22656 3.0156-0.67188 0.63281-0.4375 1.1289-1.2266 1.4844-2.3594l0.21875-0.70312z"/>
  </symbol>
  <symbol id="d" overflow="visible">
   <path d="m27.969-32.953v7.2031c-1.875-0.83203-3.7031-1.4609-5.4844-1.8906-1.7734-0.42578-3.4492-0.64062-5.0312-0.64062-2.0938 0-3.6484 0.29297-4.6562 0.875-1 0.57422-1.5 1.4688-1.5 2.6875 0 0.90625 0.33594 1.6172 1.0156 2.125 0.67578 0.51172 1.9062 0.94922 3.6875 1.3125l3.7344 0.75c3.7812 0.76172 6.4688 1.918 8.0625 3.4688 1.6016 1.543 2.4062 3.7461 2.4062 6.6094 0 3.75-1.1172 6.543-3.3438 8.375-2.2305 1.8242-5.6328 2.7344-10.203 2.7344-2.1562 0-4.3242-0.20312-6.5-0.60938-2.168-0.40625-4.3398-1.0156-6.5156-1.8281v-7.4062c2.1758 1.1562 4.2734 2.0273 6.2969 2.6094 2.0312 0.58594 3.9883 0.875 5.875 0.875 1.9141 0 3.3789-0.31641 4.3906-0.95312 1.0195-0.63281 1.5312-1.5469 1.5312-2.7344 0-1.0625-0.34375-1.8789-1.0312-2.4531-0.6875-0.58203-2.0703-1.1016-4.1406-1.5625l-3.3906-0.75c-3.4062-0.72656-5.8984-1.8906-7.4688-3.4844-1.5742-1.5938-2.3594-3.7422-2.3594-6.4531 0-3.3828 1.0938-5.9883 3.2812-7.8125 2.1875-1.8203 5.332-2.7344 9.4375-2.7344 1.875 0 3.7969 0.14062 5.7656 0.42188 1.9766 0.28125 4.0234 0.70312 6.1406 1.2656z"/>
  </symbol>
  <symbol id="o" overflow="visible">
   <path d="m27.578-21.281c1.0312-1.582 2.2539-2.7852 3.6719-3.6094 1.4258-0.83203 2.9883-1.25 4.6875-1.25 2.9375 0 5.1719 0.90625 6.7031 2.7188 1.5312 1.8047 2.2969 4.4297 2.2969 7.875v15.547h-8.2031v-13.312c0.019531-0.19531 0.03125-0.39844 0.03125-0.60938 0.007813-0.21875 0.015625-0.51953 0.015625-0.90625 0-1.8125-0.26562-3.125-0.79688-3.9375s-1.3906-1.2188-2.5781-1.2188c-1.5547 0-2.75 0.64062-3.5938 1.9219-0.84375 1.2734-1.2773 3.1172-1.2969 5.5312v12.531h-8.2031v-13.312c0-2.8203-0.24609-4.6406-0.73438-5.4531-0.49219-0.8125-1.3555-1.2188-2.5938-1.2188-1.5742 0-2.7891 0.64062-3.6406 1.9219-0.84375 1.2812-1.2656 3.1172-1.2656 5.5v12.562h-8.2031v-25.531h8.2031v3.75c1-1.4453 2.1484-2.5352 3.4531-3.2656 1.3008-0.72656 2.7344-1.0938 4.2969-1.0938 1.7578 0 3.3164 0.42969 4.6719 1.2812 1.3516 0.84375 2.3789 2.0391 3.0781 3.5781z"/>
  </symbol>
  <symbol id="c" overflow="visible">
   <path d="m23.859-24.719v6.1875c-1.75-0.72656-3.4375-1.2734-5.0625-1.6406-1.625-0.36328-3.1562-0.54688-4.5938-0.54688-1.5547 0-2.7109 0.19922-3.4688 0.59375-0.75 0.38672-1.125 0.98047-1.125 1.7812 0 0.65625 0.28516 1.1641 0.85938 1.5156 0.57031 0.34375 1.5938 0.60156 3.0625 0.76562l1.4375 0.20312c4.1758 0.53125 6.9844 1.4062 8.4219 2.625 1.4453 1.2109 2.1719 3.1172 2.1719 5.7188 0 2.7188-1.0078 4.7617-3.0156 6.125-2 1.3672-4.9922 2.0469-8.9688 2.0469-1.6875 0-3.4336-0.13672-5.2344-0.40625-1.793-0.25781-3.6406-0.65625-5.5469-1.1875v-6.2031c1.625 0.79297 3.2891 1.3867 5 1.7812 1.7188 0.39844 3.457 0.59375 5.2188 0.59375 1.5938 0 2.7891-0.21875 3.5938-0.65625 0.8125-0.4375 1.2188-1.0938 1.2188-1.9688 0-0.72656-0.28125-1.2695-0.84375-1.625-0.55469-0.35156-1.6562-0.62891-3.3125-0.82812l-1.4375-0.1875c-3.625-0.44531-6.168-1.2852-7.625-2.5156-1.4609-1.2383-2.1875-3.1094-2.1875-5.6094 0-2.707 0.92188-4.7109 2.7656-6.0156 1.8516-1.3125 4.6953-1.9688 8.5312-1.9688 1.5 0 3.0781 0.11719 4.7344 0.34375 1.6562 0.23047 3.457 0.58984 5.4062 1.0781z"/>
  </symbol>
  <symbol id="n" overflow="visible">
   <path d="m29.578-15.547v15.547h-8.2031v-11.844c0-2.2383-0.054688-3.7734-0.15625-4.6094-0.09375-0.83203-0.26172-1.4453-0.5-1.8438-0.32422-0.53125-0.76172-0.94141-1.3125-1.2344-0.54297-0.30078-1.1641-0.45312-1.8594-0.45312-1.6992 0-3.0391 0.65625-4.0156 1.9688-0.96875 1.3125-1.4531 3.1328-1.4531 5.4531v12.562h-8.1562v-35.453h8.1562v13.672c1.2266-1.4883 2.5352-2.5859 3.9219-3.2969 1.3828-0.70703 2.9102-1.0625 4.5781-1.0625 2.9453 0 5.1797 0.90625 6.7031 2.7188 1.5312 1.8047 2.2969 4.4297 2.2969 7.875z"/>
  </symbol>
  <symbol id="m" overflow="visible">
   <path d="m3.9219-25.531h8.1562v25.531h-8.1562zm0-9.9219h8.1562v6.6406h-8.1562z"/>
  </symbol>
  <symbol id="l" overflow="visible">
   <path d="m24.547-24.719v6.6406c-1.1172-0.75781-2.2305-1.3203-3.3438-1.6875-1.1172-0.36328-2.2734-0.54688-3.4688-0.54688-2.2812 0-4.0586 0.66797-5.3281 2-1.2734 1.3359-1.9062 3.1953-1.9062 5.5781 0 2.3867 0.63281 4.2461 1.9062 5.5781 1.2695 1.3242 3.0469 1.9844 5.3281 1.9844 1.2695 0 2.4766-0.1875 3.625-0.5625 1.1445-0.38281 2.207-0.94531 3.1875-1.6875v6.6719c-1.2812 0.46875-2.5781 0.81641-3.8906 1.0469-1.3125 0.23828-2.6328 0.35938-3.9531 0.35938-4.6055 0-8.2109-1.1758-10.812-3.5312-2.5938-2.3633-3.8906-5.6484-3.8906-9.8594 0-4.207 1.2969-7.4922 3.8906-9.8594 2.6016-2.3633 6.207-3.5469 10.812-3.5469 1.332 0 2.6484 0.12109 3.9531 0.35938 1.3008 0.23047 2.5977 0.58594 3.8906 1.0625z"/>
  </symbol>
  <symbol id="k" overflow="visible">
   <path d="m16.062-20.312c-1.8047 0-3.1836 0.65234-4.1406 1.9531-0.94922 1.3047-1.4219 3.1797-1.4219 5.625 0 2.4492 0.47266 4.3242 1.4219 5.625 0.95703 1.293 2.3359 1.9375 4.1406 1.9375 1.7812 0 3.1406-0.64453 4.0781-1.9375 0.94531-1.3008 1.4219-3.1758 1.4219-5.625 0-2.4453-0.47656-4.3203-1.4219-5.625-0.9375-1.3008-2.2969-1.9531-4.0781-1.9531zm0-5.8281c4.3945 0 7.8281 1.1875 10.297 3.5625 2.4688 2.3672 3.7031 5.6484 3.7031 9.8438 0 4.1875-1.2344 7.4688-3.7031 9.8438-2.4688 2.3672-5.9023 3.5469-10.297 3.5469-4.4062 0-7.8555-1.1797-10.344-3.5469-2.4805-2.375-3.7188-5.6562-3.7188-9.8438 0-4.1953 1.2383-7.4766 3.7188-9.8438 2.4883-2.375 5.9375-3.5625 10.344-3.5625z"/>
  </symbol>
  <symbol id="j" overflow="visible">
   <path d="m29.578-15.547v15.547h-8.2031v-11.891c0-2.207-0.054688-3.7266-0.15625-4.5625-0.09375-0.83203-0.26172-1.4453-0.5-1.8438-0.32422-0.53125-0.76172-0.94141-1.3125-1.2344-0.54297-0.30078-1.1641-0.45312-1.8594-0.45312-1.6992 0-3.0391 0.65625-4.0156 1.9688-0.96875 1.3125-1.4531 3.1328-1.4531 5.4531v12.562h-8.1562v-25.531h8.1562v3.75c1.2266-1.4883 2.5352-2.5859 3.9219-3.2969 1.3828-0.70703 2.9102-1.0625 4.5781-1.0625 2.9453 0 5.1797 0.90625 6.7031 2.7188 1.5312 1.8047 2.2969 4.4297 2.2969 7.875z"/>
  </symbol>
 </defs>
 <g>
  <path d="m461.11 141.62c18.09-35.348 22.75-61.82 12.379-72.195-4.5039-3.7812-10.32-5.6289-16.18-5.1406-21.605 2.1055-42.469 9.0273-61.047 20.262-50.102 28.637-95.902 64.211-136.05 105.66-98.43 98.438-142.66 191.4-120.79 213.27 10.023 10.02 37.551 5.0312 72.352-12.688 28.488-52.32 64.742-100.02 107.54-141.47 41.527-42.887 89.336-79.203 141.79-107.71z"/>
  <path d="m601.14 106.5-71.035-71.039c-13.34-11.852-30.867-17.867-48.668-16.699-24.832 0.88281-49.281 6.3633-72.109 16.168-58.023 23.059-121.7 67.484-179.31 125.09-115.09 115.09-172.13 252.51-124.56 300.09l71.039 71.031c17.07 17.062 56.176 12.68 107.3-12.059 54.828-26.516 116.83-72.934 174.59-130.7 57.758-57.758 104.17-119.77 130.69-174.59 24.73-51.125 29.129-90.234 12.062-107.3zm-445.44 320.87c-10.867 0.60547-21.512-3.2539-29.473-10.68-38.609-38.609 33.414-152.3 120.79-239.67 41.445-42.754 88.734-79.43 140.45-108.94 47.383-25.266 81.684-29.375 99.211-11.848 38.609 38.609-33.414 152.3-120.79 239.67v-0.003907c-41.445 42.754-88.734 79.43-140.45 108.94-28.105 14.984-51.613 22.531-69.742 22.531zm391.33-187.38c0.25781 5.1445-3.7031 9.5273-8.8516 9.7891-0.16016 0.007812-0.32031 0.007812-0.48047 0.007812h0.003906c-4.9727 0-9.0703-3.9023-9.3125-8.8672-0.21484-4.2695-5.7656-8.1016-10.891-10.566-15.965 23.676-33.328 46.383-52 67.988 4.1016 4.4219 6.9336 9.8672 8.1953 15.766 1.2617 5.8984 0.90625 12.027-1.0273 17.738-1.0078 2.2656-2.875 4.0352-5.1914 4.918-2.3164 0.88672-4.8867 0.8125-7.1484-0.20312-2.2617-1.0117-4.0273-2.8867-4.9062-5.2031-0.87891-2.3203-0.80078-4.8906 0.21875-7.1484 0.85547-4.0469-0.19141-8.2578-2.832-11.438-10.785 12.016-22.141 24.008-34.066 35.973-19.887 19.883-40.184 38.355-60.305 55.059 4.1797 3.8789 7.2539 8.8008 8.9141 14.258 1.6562 5.457 1.8359 11.258 0.52344 16.809-1.2422 3.8555-4.832 6.4688-8.8828 6.4688-0.97266 0-1.9375-0.15234-2.8633-0.44531-4.9062-1.582-7.6016-6.8438-6.0195-11.75 1.3086-4.0547-2.4883-9.5117-6.2578-13.531-26.949 21.727-55.832 40.934-86.285 57.387 2.2305 5.4141 2.9727 11.324 2.1523 17.121-0.82031 5.7969-3.1758 11.27-6.8203 15.852-3.5547 3.7344-9.4609 3.8789-13.195 0.32422-3.7305-3.5547-3.875-9.4609-0.32031-13.195 2.1797-3.5391 2.6094-7.8906 1.168-11.789-14.254 6.7734-29.336 11.656-44.859 14.516-0.48438 0.070312-0.97266 0.10938-1.4648 0.10938-4.8711-0.007813-8.9141-3.7617-9.2891-8.6172-0.375-4.8555 3.043-9.1836 7.8555-9.9414 3.8789-0.64453 7.7188-1.4961 11.508-2.5469-2.0078-10.039-1.0664-20.441 2.7109-29.953 1.6289-4.8906 6.918-7.5352 11.805-5.9023 4.8906 1.6289 7.5352 6.918 5.9023 11.809-2.2812 5.7305-3.1797 11.922-2.6289 18.066 12.023-4.8477 23.715-10.48 34.996-16.867-1.9297-9.9805-0.96875-20.305 2.7695-29.758 1.6328-4.8906 6.918-7.5312 11.809-5.9023 4.8906 1.6328 7.5352 6.918 5.9023 11.809-1.5508 4.3516-2.5078 8.8945-2.8359 13.504 9.7812-6.0664 19.855-12.812 30.113-20.129-3.5703-8.0781-5.2539-16.859-4.9297-25.684 0-5.1562 4.1797-9.3359 9.3359-9.3359 5.1523 0 9.332 4.1797 9.332 9.3359-0.11719 4.8164 0.47266 9.6289 1.7578 14.273 15.961-12.082 32.215-25.48 48.414-39.906h0.003906c-3.9922-8.3086-5.8828-17.473-5.5039-26.688 0-5.1523 4.1758-9.332 9.332-9.332s9.332 4.1797 9.332 9.332c-0.085938 4.4883 0.42188 8.9648 1.5156 13.316 7.418-6.9141 14.809-13.969 22.109-21.27 3.1055-3.1055 6.0938-6.2344 9.125-9.3555-4.4727-8.6289-6.582-18.285-6.1172-27.988 0-5.1562 4.1797-9.3359 9.3359-9.3359 5.1523 0 9.332 4.1797 9.332 9.3359-0.082031 4.4531 0.41406 8.8984 1.4727 13.227 15.125-16.289 29.168-32.625 41.938-48.715-6.9141-9.3359-10.199-20.871-9.2344-32.453 0-5.1562 4.1758-9.332 9.332-9.332s9.332 4.1758 9.332 9.332c-0.24219 5.7227 0.66406 11.434 2.6602 16.801 18.359-23.918 34.465-49.484 48.105-76.375-7.5547-5.9609-13.434-13.781-17.062-22.695-2.1602-4.6758-0.12109-10.219 4.5547-12.383 4.6758-2.1641 10.223-0.12891 12.391 4.5469 1.9922 4.6523 4.7227 8.9531 8.0859 12.734 5.9141-13.395 9.1328-27.82 9.4727-42.457-0.089844-2.4844 0.8125-4.8984 2.5078-6.7109 1.6953-1.8164 4.0469-2.8789 6.5273-2.957s4.8906 0.83984 6.6992 2.543c1.8047 1.7031 2.8555 4.0586 2.9219 6.5391 0.80859 26.172-13.535 63.086-39.242 104.68h0.003906c5.1758 2.1719 9.6875 5.668 13.086 10.137 3.3984 4.4727 5.5547 9.7578 6.2617 15.328z"/>

 </g>
</svg>
