<svg xmlns="http://www.w3.org/2000/svg" xmlns:xlink="http://www.w3.org/1999/xlink" xmlns:lucid="lucid" width="3294" height="2940"><g transform="translate(1193 -3687)" lucid:page-tab-id="0_0"><path d="M0 3808a8 8 0 0 1 8-8h424a8 8 0 0 1 8 8v124a8 8 0 0 1-8 8H8a8 8 0 0 1-8-8z" stroke="#fff" stroke-width="5" fill-opacity="0"/><use xlink:href="#a" transform="matrix(1,0,0,1,12,3812) translate(79.23333333333352 78.70833333333326)"/><path d="M-1120 4168a8 8 0 0 1 8-8h424a8 8 0 0 1 8 8v124a8 8 0 0 1-8 8h-424a8 8 0 0 1-8-8z" stroke="#fff" stroke-width="5" fill-opacity="0"/><use xlink:href="#b" transform="matrix(1,0,0,1,-1108,4172) translate(112.60000000000005 71.80555555555554)"/><path d="M-580 4168a8 8 0 0 1 8-8h424a8 8 0 0 1 8 8v124a8 8 0 0 1-8 8h-424a8 8 0 0 1-8-8z" stroke="#fff" stroke-width="5" fill-opacity="0"/><use xlink:href="#c" transform="matrix(1,0,0,1,-568,4172) translate(38.28888888888895 71.80555555555554)"/><path d="M0 4168a8 8 0 0 1 8-8h424a8 8 0 0 1 8 8v124a8 8 0 0 1-8 8H8a8 8 0 0 1-8-8z" stroke="#fff" stroke-width="5" fill-opacity="0"/><use xlink:href="#d" transform="matrix(1,0,0,1,12,4172) translate(35.17777777777789 71.80555555555554)"/><path d="M700 4168a8 8 0 0 1 8-8h424a8 8 0 0 1 8 8v124a8 8 0 0 1-8 8H708a8 8 0 0 1-8-8z" stroke="#fff" stroke-width="5" fill-opacity="0"/><use xlink:href="#e" transform="matrix(1,0,0,1,712,4172) translate(77.51111111111118 71.80555555555554)"/><path d="M1240 4168a8 8 0 0 1 8-8h424a8 8 0 0 1 8 8v124a8 8 0 0 1-8 8h-424a8 8 0 0 1-8-8z" stroke="#fff" stroke-width="5" fill-opacity="0"/><use xlink:href="#f" transform="matrix(1,0,0,1,1252,4172) translate(32.15555555555562 71.80555555555554)"/><path d="M-1020 4448a8 8 0 0 1 8-8h364a8 8 0 0 1 8 8v104a8 8 0 0 1-8 8h-364a8 8 0 0 1-8-8z" stroke="#fff" stroke-width="5" fill-opacity="0"/><use xlink:href="#g" transform="matrix(1,0,0,1,-1008,4452) translate(29.15555555555565 38.55555555555554)"/><use xlink:href="#h" transform="matrix(1,0,0,1,-1008,4452) translate(25.75555555555559 82.99999999999997)"/><path d="M-1020 4628a8 8 0 0 1 8-8h364a8 8 0 0 1 8 8v104a8 8 0 0 1-8 8h-364a8 8 0 0 1-8-8z" stroke="#fff" stroke-width="5" fill-opacity="0"/><use xlink:href="#i" transform="matrix(1,0,0,1,-1008,4632) translate(6.866666666666731 62.55555555555554)"/><path d="M-480 4448a8 8 0 0 1 8-8h384a8 8 0 0 1 8 8v104a8 8 0 0 1-8 8h-384a8 8 0 0 1-8-8z" stroke="#fff" stroke-width="5" fill-opacity="0"/><use xlink:href="#j" transform="matrix(1,0,0,1,-468,4452) translate(54.62222222222229 62.55555555555554)"/><path d="M-480 4628a8 8 0 0 1 8-8h384a8 8 0 0 1 8 8v104a8 8 0 0 1-8 8h-384a8 8 0 0 1-8-8z" stroke="#fff" stroke-width="5" fill-opacity="0"/><use xlink:href="#k" transform="matrix(1,0,0,1,-468,4632) translate(4.977777777777874 62.55555555555554)"/><use xlink:href="#l" transform="matrix(1,0,0,1,-468,4632) translate(320.62222222222215 62.55555555555554)"/><path d="M-480 4808a8 8 0 0 1 8-8h384a8 8 0 0 1 8 8v104a8 8 0 0 1-8 8h-384a8 8 0 0 1-8-8z" stroke="#fff" stroke-width="5" fill-opacity="0"/><use xlink:href="#m" transform="matrix(1,0,0,1,-468,4812) translate(63.48888888888894 62.55555555555554)"/><path d="M100 4808a8 8 0 0 1 8-8h424a8 8 0 0 1 8 8v104a8 8 0 0 1-8 8H108a8 8 0 0 1-8-8z" stroke="#fff" stroke-width="5" fill-opacity="0"/><use xlink:href="#n" transform="matrix(1,0,0,1,112,4812) translate(31.022222222222297 62.55555555555554)"/><use xlink:href="#o" transform="matrix(1,0,0,1,112,4812) translate(138.4888888888889 62.55555555555554)"/><path d="M100 4988a8 8 0 0 1 8-8h424a8 8 0 0 1 8 8v104a8 8 0 0 1-8 8H108a8 8 0 0 1-8-8z" stroke="#fff" stroke-width="5" fill-opacity="0"/><use xlink:href="#p" transform="matrix(1,0,0,1,112,4992) translate(151.73333333333335 38.55555555555554)"/><use xlink:href="#q" transform="matrix(1,0,0,1,112,4992) translate(16.244444444444525 82.99999999999997)"/><path d="M100 5168a8 8 0 0 1 8-8h424a8 8 0 0 1 8 8v104a8 8 0 0 1-8 8H108a8 8 0 0 1-8-8z" stroke="#fff" stroke-width="5" fill-opacity="0"/><use xlink:href="#r" transform="matrix(1,0,0,1,112,5172) translate(11.91111111111124 38.55555555555554)"/><use xlink:href="#s" transform="matrix(1,0,0,1,112,5172) translate(148.00000000000006 38.55555555555554)"/><use xlink:href="#t" transform="matrix(1,0,0,1,112,5172) translate(337.6444444444444 38.55555555555554)"/><use xlink:href="#u" transform="matrix(1,0,0,1,112,5172) translate(71.17777777777786 82.99999999999997)"/><path d="M100 5348a8 8 0 0 1 8-8h424a8 8 0 0 1 8 8v184a8 8 0 0 1-8 8H108a8 8 0 0 1-8-8z" stroke="#fff" stroke-width="5" fill-opacity="0"/><use xlink:href="#v" transform="matrix(1,0,0,1,112,5352) translate(170.44444444444446 35.55555555555554)"/><use xlink:href="#w" transform="matrix(1,0,0,1,112,5352) translate(29.088888888889016 79.99999999999997)"/><use xlink:href="#x" transform="matrix(1,0,0,1,112,5352) translate(42.84444444444452 124.4444444444444)"/><use xlink:href="#y" transform="matrix(1,0,0,1,112,5352) translate(132.8444444444445 124.4444444444444)"/><use xlink:href="#z" transform="matrix(1,0,0,1,112,5352) translate(332.7555555555555 124.4444444444444)"/><use xlink:href="#A" transform="matrix(1,0,0,1,112,5352) translate(45.88888888888897 168.88888888888883)"/><path d="M100 5788a8 8 0 0 1 8-8h424a8 8 0 0 1 8 8v104a8 8 0 0 1-8 8H108a8 8 0 0 1-8-8z" stroke="#fff" stroke-width="5" fill-opacity="0"/><use xlink:href="#B" transform="matrix(1,0,0,1,112,5792) translate(26.488888888888937 62.55555555555554)"/><use xlink:href="#C" transform="matrix(1,0,0,1,112,5792) translate(204.79999999999998 62.55555555555554)"/><path d="M100 5968a8 8 0 0 1 8-8h424a8 8 0 0 1 8 8v185.78a8 8 0 0 1-8 8H108a8 8 0 0 1-8-8z" stroke="#fff" stroke-width="5" fill-opacity="0"/><use xlink:href="#D" transform="matrix(1,0,0,1,112,5972) translate(139.2666666666667 35.55555555555554)"/><use xlink:href="#E" transform="matrix(1,0,0,1,112,5972) translate(30.28888888888895 79.99999999999997)"/><use xlink:href="#x" transform="matrix(1,0,0,1,112,5972) translate(114.93333333333338 124.4444444444444)"/><use xlink:href="#F" transform="matrix(1,0,0,1,112,5972) translate(204.93333333333334 124.4444444444444)"/><use xlink:href="#A" transform="matrix(1,0,0,1,112,5972) translate(45.88888888888897 168.88888888888883)"/><path d="M100 6228a8 8 0 0 1 8-8h424a8 8 0 0 1 8 8v104a8 8 0 0 1-8 8H108a8 8 0 0 1-8-8z" stroke="#fff" stroke-width="5" fill-opacity="0"/><use xlink:href="#G" transform="matrix(1,0,0,1,112,6232) translate(72.17777777777783 38.55555555555554)"/><use xlink:href="#H" transform="matrix(1,0,0,1,112,6232) translate(131.20000000000005 82.99999999999997)"/><path d="M100 6408a8 8 0 0 1 8-8h424a8 8 0 0 1 8 8v104a8 8 0 0 1-8 8H108a8 8 0 0 1-8-8z" stroke="#fff" stroke-width="5" fill-opacity="0"/><use xlink:href="#n" transform="matrix(1,0,0,1,112,6412) translate(72.68888888888895 38.55555555555554)"/><use xlink:href="#I" transform="matrix(1,0,0,1,112,6412) translate(180.15555555555557 38.55555555555554)"/><use xlink:href="#J" transform="matrix(1,0,0,1,112,6412) translate(94.22222222222226 82.99999999999997)"/><path d="M100 5608a8 8 0 0 1 8-8h424a8 8 0 0 1 8 8v104a8 8 0 0 1-8 8H108a8 8 0 0 1-8-8z" stroke="#fff" stroke-width="5" fill-opacity="0"/><use xlink:href="#K" transform="matrix(1,0,0,1,112,5612) translate(24.955555555555634 62.55555555555554)"/><use xlink:href="#L" transform="matrix(1,0,0,1,112,5612) translate(157.97777777777782 62.55555555555554)"/><path d="M800 4448a8 8 0 0 1 8-8h364a8 8 0 0 1 8 8v104a8 8 0 0 1-8 8H808a8 8 0 0 1-8-8z" stroke="#fff" stroke-width="5" fill-opacity="0"/><use xlink:href="#M" transform="matrix(1,0,0,1,812,4452) translate(90.84444444444448 62.55555555555554)"/><path d="M1340 4628a8 8 0 0 1 8-8h424a8 8 0 0 1 8 8v104a8 8 0 0 1-8 8h-424a8 8 0 0 1-8-8z" stroke="#fff" stroke-width="5" fill-opacity="0"/><use xlink:href="#N" transform="matrix(1,0,0,1,1352,4632) translate(32.15555555555562 38.55555555555554)"/><use xlink:href="#O" transform="matrix(1,0,0,1,1352,4632) translate(65.9555555555556 82.99999999999997)"/><path d="M1340 4808a8 8 0 0 1 8-8h424a8 8 0 0 1 8 8v104a8 8 0 0 1-8 8h-424a8 8 0 0 1-8-8z" stroke="#fff" stroke-width="5" fill-opacity="0"/><use xlink:href="#N" transform="matrix(1,0,0,1,1352,4812) translate(32.15555555555562 38.55555555555554)"/><use xlink:href="#P" transform="matrix(1,0,0,1,1352,4812) translate(34.711111111111194 82.99999999999997)"/><path d="M1340 4448a8 8 0 0 1 8-8h424a8 8 0 0 1 8 8v104a8 8 0 0 1-8 8h-424a8 8 0 0 1-8-8z" stroke="#fff" stroke-width="5" fill-opacity="0"/><use xlink:href="#Q" transform="matrix(1,0,0,1,1352,4452) translate(49.444444444444514 38.55555555555554)"/><use xlink:href="#t" transform="matrix(1,0,0,1,1352,4452) translate(300.1111111111111 38.55555555555554)"/><use xlink:href="#R" transform="matrix(1,0,0,1,1352,4452) translate(39.955555555555634 82.99999999999997)"/><path d="M100 4448a8 8 0 0 1 8-8h344a8 8 0 0 1 8 8v104a8 8 0 0 1-8 8H108a8 8 0 0 1-8-8z" stroke="#fff" stroke-width="5" fill-opacity="0"/><use xlink:href="#S" transform="matrix(1,0,0,1,112,4452) translate(78.48888888888891 62.55555555555554)"/><path d="M1310.57 4500h-32.64a6 6 0 0 1-6-6v-188.5" stroke="#fff" stroke-width="6" fill="none"/><path d="M1327.84 4500l-14.27 4.64v-9.28z" stroke="#fff" stroke-width="6" fill="#fff"/><path d="M1274.93 4305.57h-6v-3.07h6z" stroke="#fff" stroke-width=".05" fill="#fff"/><path d="M1310.57 4680h-32.64a6 6 0 0 1-6-6v-368.5" stroke="#fff" stroke-width="6" fill="none"/><path d="M1327.84 4680l-14.27 4.64v-9.28z" stroke="#fff" stroke-width="6" fill="#fff"/><path d="M1274.93 4305.57h-6v-3.07h6z" stroke="#fff" stroke-width=".05" fill="#fff"/><path d="M1310.57 4860h-32.64a6 6 0 0 1-6-6v-548.5" stroke="#fff" stroke-width="6" fill="none"/><path d="M1327.84 4860l-14.27 4.64v-9.28z" stroke="#fff" stroke-width="6" fill="#fff"/><path d="M1274.93 4305.57h-6v-3.07h6z" stroke="#fff" stroke-width=".05" fill="#fff"/><path d="M770.57 4500H745.6a6 6 0 0 1-6-6v-188.5" stroke="#fff" stroke-width="6" fill="none"/><path d="M787.84 4500l-14.27 4.64v-9.28z" stroke="#fff" stroke-width="6" fill="#fff"/><path d="M742.6 4305.57h-6v-3.08h6z" stroke="#fff" stroke-width=".05" fill="#fff"/><path d="M100 4628a8 8 0 0 1 8-8h424a8 8 0 0 1 8 8v104a8 8 0 0 1-8 8H108a8 8 0 0 1-8-8z" stroke="#fff" stroke-width="5" fill-opacity="0"/><use xlink:href="#T" transform="matrix(1,0,0,1,112,4632) translate(4.511111111111177 62.55555555555554)"/><use xlink:href="#U" transform="matrix(1,0,0,1,112,4632) translate(111.97777777777779 62.55555555555554)"/><path d="M70.57 4500H48.85a6 6 0 0 1-6-6v-188.5" stroke="#fff" stroke-width="6" fill="none"/><path d="M87.84 4500l-14.27 4.64v-9.28z" stroke="#fff" stroke-width="6" fill="#fff"/><path d="M45.85 4305.57h-6v-3.08h6z" stroke="#fff" stroke-width=".05" fill="#fff"/><path d="M70.57 4680H48.85a6 6 0 0 1-6-6v-368.5" stroke="#fff" stroke-width="6" fill="none"/><path d="M87.84 4680l-14.27 4.64v-9.28z" stroke="#fff" stroke-width="6" fill="#fff"/><path d="M45.85 4305.57h-6v-3.08h6z" stroke="#fff" stroke-width=".05" fill="#fff"/><path d="M70.57 4860H48.85a6 6 0 0 1-6-6v-548.5" stroke="#fff" stroke-width="6" fill="none"/><path d="M87.84 4860l-14.27 4.64v-9.28z" stroke="#fff" stroke-width="6" fill="#fff"/><path d="M45.85 4305.57h-6v-3.08h6z" stroke="#fff" stroke-width=".05" fill="#fff"/><path d="M70.57 5040H48.85a6 6 0 0 1-6-6v-728.5" stroke="#fff" stroke-width="6" fill="none"/><path d="M87.84 5040l-14.27 4.64v-9.28z" stroke="#fff" stroke-width="6" fill="#fff"/><path d="M45.85 4305.57h-6v-3.08h6z" stroke="#fff" stroke-width=".05" fill="#fff"/><path d="M70.57 5220H48.85a6 6 0 0 1-6-6v-908.5" stroke="#fff" stroke-width="6" fill="none"/><path d="M87.84 5220l-14.27 4.64v-9.28z" stroke="#fff" stroke-width="6" fill="#fff"/><path d="M45.85 4305.57h-6v-3.08h6z" stroke="#fff" stroke-width=".05" fill="#fff"/><path d="M70.57 5440H48.85a6 6 0 0 1-6-6V4305.5" stroke="#fff" stroke-width="6" fill="none"/><path d="M87.84 5440l-14.27 4.64v-9.28z" stroke="#fff" stroke-width="6" fill="#fff"/><path d="M45.85 4305.57h-6v-3.08h6z" stroke="#fff" stroke-width=".05" fill="#fff"/><path d="M70.57 5660H48.85a6 6 0 0 1-6-6V4305.5" stroke="#fff" stroke-width="6" fill="none"/><path d="M87.84 5660l-14.27 4.64v-9.28z" stroke="#fff" stroke-width="6" fill="#fff"/><path d="M45.85 4305.57h-6v-3.08h6z" stroke="#fff" stroke-width=".05" fill="#fff"/><path d="M70.57 5840H48.85a6 6 0 0 1-6-6V4305.5" stroke="#fff" stroke-width="6" fill="none"/><path d="M87.84 5840l-14.27 4.64v-9.28z" stroke="#fff" stroke-width="6" fill="#fff"/><path d="M45.85 4305.57h-6v-3.08h6z" stroke="#fff" stroke-width=".05" fill="#fff"/><path d="M70.57 6060.9H48.85a6 6 0 0 1-6-6V4305.5" stroke="#fff" stroke-width="6" fill="none"/><path d="M87.84 6060.9l-14.27 4.62v-9.27z" stroke="#fff" stroke-width="6" fill="#fff"/><path d="M45.85 4305.57h-6v-3.08h6z" stroke="#fff" stroke-width=".05" fill="#fff"/><path d="M70.57 6280H48.85a6 6 0 0 1-6-6V4305.5" stroke="#fff" stroke-width="6" fill="none"/><path d="M87.84 6280l-14.27 4.64v-9.28z" stroke="#fff" stroke-width="6" fill="#fff"/><path d="M45.85 4305.57h-6v-3.08h6z" stroke="#fff" stroke-width=".05" fill="#fff"/><path d="M70.57 6460H48.85a6 6 0 0 1-6-6V4305.5" stroke="#fff" stroke-width="6" fill="none"/><path d="M87.84 6460l-14.27 4.64v-9.28z" stroke="#fff" stroke-width="6" fill="#fff"/><path d="M45.85 4305.57h-6v-3.08h6z" stroke="#fff" stroke-width=".05" fill="#fff"/><path d="M-509.43 4500h-17.4a6 6 0 0 1-6-6v-188.5" stroke="#fff" stroke-width="6" fill="none"/><path d="M-492.16 4500l-14.27 4.64v-9.28z" stroke="#fff" stroke-width="6" fill="#fff"/><path d="M-529.84 4305.57h-6v-3.08h6z" stroke="#fff" stroke-width=".05" fill="#fff"/><path d="M-509.43 4680h-17.4a6 6 0 0 1-6-6v-368.5" stroke="#fff" stroke-width="6" fill="none"/><path d="M-492.16 4680l-14.27 4.64v-9.28z" stroke="#fff" stroke-width="6" fill="#fff"/><path d="M-529.84 4305.57h-6v-3.08h6z" stroke="#fff" stroke-width=".05" fill="#fff"/><path d="M-509.43 4860h-17.4a6 6 0 0 1-6-6v-548.5" stroke="#fff" stroke-width="6" fill="none"/><path d="M-492.16 4860l-14.27 4.64v-9.28z" stroke="#fff" stroke-width="6" fill="#fff"/><path d="M-529.84 4305.57h-6v-3.08h6z" stroke="#fff" stroke-width=".05" fill="#fff"/><path d="M-1049.43 4500h-17.4a6 6 0 0 1-6-6v-188.5" stroke="#fff" stroke-width="6" fill="none"/><path d="M-1032.16 4500l-14.27 4.64v-9.28z" stroke="#fff" stroke-width="6" fill="#fff"/><path d="M-1069.84 4305.57h-6v-3.08h6z" stroke="#fff" stroke-width=".05" fill="#fff"/><path d="M-1049.43 4680h-17.4a6 6 0 0 1-6-6v-368.5" stroke="#fff" stroke-width="6" fill="none"/><path d="M-1032.16 4680l-14.27 4.64v-9.28z" stroke="#fff" stroke-width="6" fill="#fff"/><path d="M-1069.84 4305.57h-6v-3.08h6z" stroke="#fff" stroke-width=".05" fill="#fff"/><path d="M465.45 4500H624a6 6 0 0 1 6 6v168a6 6 0 0 1-6 6h-54.57" stroke="#fcce14" stroke-width="6" fill="none"/><path d="M465.53 4503h-3.08v-6h3.08z" stroke="#fcce14" stroke-width=".05" fill="#fcce14"/><path d="M552.16 4680l14.27-4.64v9.28z" stroke="#fcce14" stroke-width="6" fill="#fcce14"/><path d="M465.45 4500H624a6 6 0 0 1 6 6v348a6 6 0 0 1-6 6h-54.57" stroke="#fcce14" stroke-width="6" fill="none"/><path d="M465.53 4503h-3.08v-6h3.08z" stroke="#fcce14" stroke-width=".05" fill="#fcce14"/><path d="M552.16 4860l14.27-4.64v9.28z" stroke="#fcce14" stroke-width="6" fill="#fcce14"/><path d="M465.45 4500H624a6 6 0 0 1 6 6v528a6 6 0 0 1-6 6h-54.57" stroke="#fcce14" stroke-width="6" fill="none"/><path d="M465.53 4503h-3.08v-6h3.08z" stroke="#fcce14" stroke-width=".05" fill="#fcce14"/><path d="M552.16 5040l14.27-4.64v9.28z" stroke="#fcce14" stroke-width="6" fill="#fcce14"/><path d="M465.45 4500H624a6 6 0 0 1 6 6v708a6 6 0 0 1-6 6h-54.57" stroke="#fcce14" stroke-width="6" fill="none"/><path d="M465.53 4503h-3.08v-6h3.08z" stroke="#fcce14" stroke-width=".05" fill="#fcce14"/><path d="M552.16 5220l14.27-4.64v9.28z" stroke="#fcce14" stroke-width="6" fill="#fcce14"/><path d="M465.45 4500H624a6 6 0 0 1 6 6v928a6 6 0 0 1-6 6h-54.57" stroke="#fcce14" stroke-width="6" fill="none"/><path d="M465.53 4503h-3.08v-6h3.08z" stroke="#fcce14" stroke-width=".05" fill="#fcce14"/><path d="M552.16 5440l14.27-4.64v9.28z" stroke="#fcce14" stroke-width="6" fill="#fcce14"/><path d="M465.45 4500H624a6 6 0 0 1 6 6v1148a6 6 0 0 1-6 6h-54.57" stroke="#fcce14" stroke-width="6" fill="none"/><path d="M465.53 4503h-3.08v-6h3.08z" stroke="#fcce14" stroke-width=".05" fill="#fcce14"/><path d="M552.16 5660l14.27-4.64v9.28z" stroke="#fcce14" stroke-width="6" fill="#fcce14"/><path d="M465.45 4500H624a6 6 0 0 1 6 6v1328a6 6 0 0 1-6 6h-54.57" stroke="#fcce14" stroke-width="6" fill="none"/><path d="M465.53 4503h-3.08v-6h3.08z" stroke="#fcce14" stroke-width=".05" fill="#fcce14"/><path d="M552.16 5840l14.27-4.64v9.28z" stroke="#fcce14" stroke-width="6" fill="#fcce14"/><path d="M465.45 4500H624a6 6 0 0 1 6 6v1548.9a6 6 0 0 1-6 6h-54.57" stroke="#fcce14" stroke-width="6" fill="none"/><path d="M465.53 4503h-3.08v-6h3.08z" stroke="#fcce14" stroke-width=".05" fill="#fcce14"/><path d="M552.16 6060.9l14.27-4.65v9.27z" stroke="#fcce14" stroke-width="6" fill="#fcce14"/><path d="M465.45 4500H624a6 6 0 0 1 6 6v1768a6 6 0 0 1-6 6h-54.57" stroke="#fcce14" stroke-width="6" fill="none"/><path d="M465.53 4503h-3.08v-6h3.08z" stroke="#fcce14" stroke-width=".05" fill="#fcce14"/><path d="M552.16 6280l14.27-4.64v9.28z" stroke="#fcce14" stroke-width="6" fill="#fcce14"/><path d="M465.45 4500H624a6 6 0 0 1 6 6v1948a6 6 0 0 1-6 6h-54.57" stroke="#fcce14" stroke-width="6" fill="none"/><path d="M465.53 4503h-3.08v-6h3.08z" stroke="#fcce14" stroke-width=".05" fill="#fcce14"/><path d="M552.16 6460l14.27-4.64v9.28z" stroke="#fcce14" stroke-width="6" fill="#fcce14"/><path d="M83.37 3945.48V4004a6 6 0 0 1-6 6H-894a6 6 0 0 0-6 6v114.58" stroke="#fff" stroke-width="6" fill="none"/><path d="M86.37 3945.56h-6v-3.08h6z" stroke="#fff" stroke-width=".05" fill="#fff"/><path d="M-900 4147.84l-4.64-14.26h9.28z" stroke="#fff" stroke-width="6" fill="#fff"/><path d="M153.38 3945.47V4044a6 6 0 0 1-6 6H-354a6 6 0 0 0-6 6v74.58" stroke="#fff" stroke-width="6" fill="none"/><path d="M156.38 3945.54h-6v-3.07h6z" stroke="#fff" stroke-width=".05" fill="#fff"/><path d="M-360 4147.84l-4.64-14.26h9.28z" stroke="#fff" stroke-width="6" fill="#fff"/><path d="M220 3945.45v185.12" stroke="#fff" stroke-width="6" fill="none"/><path d="M223 3945.53h-6v-3.08h6z" stroke="#fff" stroke-width=".05" fill="#fff"/><path d="M220 4147.84l-4.64-14.27h9.28z" stroke="#fff" stroke-width="6" fill="#fff"/><path d="M291.38 3945.43V4044a6 6 0 0 0 6 6H914a6 6 0 0 1 6 6v74.58" stroke="#fff" stroke-width="6" fill="none"/><path d="M294.38 3945.5h-6v-3.06h6z" stroke="#fff" stroke-width=".05" fill="#fff"/><path d="M920 4147.84l-4.64-14.26h9.28z" stroke="#fff" stroke-width="6" fill="#fff"/><path d="M357.38 3945.42V4004a6 6 0 0 0 6 6H1454a6 6 0 0 1 6 6v114.58" stroke="#fff" stroke-width="6" fill="none"/><path d="M360.38 3945.5h-6v-3.08h6z" stroke="#fff" stroke-width=".05" fill="#fff"/><path d="M1460 4147.84l-4.64-14.26h9.28z" stroke="#fff" stroke-width="6" fill="#fff"/><path d="M940 5128a8 8 0 0 1 8-8h704a8 8 0 0 1 8 8v144a8 8 0 0 1-8 8H948a8 8 0 0 1-8-8z" stroke="#fff" stroke-width="5" fill-opacity="0"/><g><use xlink:href="#V" transform="matrix(1,0,0,1,952,5132) translate(2.55000000000058 91.97222222222213)"/></g><path d="M940 5348a8 8 0 0 1 8-8h704a8 8 0 0 1 8 8v144a8 8 0 0 1-8 8H948a8 8 0 0 1-8-8z" stroke="#fff" stroke-width="5" fill-opacity="0"/><g><use xlink:href="#W" transform="matrix(1,0,0,1,952,5352) translate(20.322222222222763 91.97222222222213)"/><use xlink:href="#X" transform="matrix(1,0,0,1,952,5352) translate(391.3222222222222 91.97222222222213)"/><use xlink:href="#Y" transform="matrix(1,0,0,1,952,5352) translate(475.63333333333316 91.97222222222213)"/></g><path d="M1725 5200h219.55M1725.13 5200H1720" stroke="#fff" stroke-width="10" fill="none"/><path d="M1963.82 5200l-14.27 4.64v-9.28z" stroke="#fff" stroke-width="10" fill="#fff"/><path d="M1725 5420h219.55M1725.13 5420H1720" stroke="#ffe342" stroke-width="10" fill="none"/><path d="M1963.82 5420l-14.27 4.64v-9.28z" stroke="#ffe342" stroke-width="10" fill="#ffe342"/><defs><path fill="#fcce14" d="M335-897c0 229-7 440-5 669 11 25 11 61 10 98-1 18 15 85 31 81 15 0 38 2 69 5 27 17-19 40-37 42-45 5-137 14-191 18-18 1-53-12-57-25-19-71-10-154-10-238 0-88 10-180 10-270 0-89 5-175-2-259-9-106-17-97-122-108-55-6-75-26-28-38 83-21 226-20 232-21 30-2 100 20 100 46" id="Z"/><path fill="#fcce14" d="M15-11c-5-169 22-313 22-471 0-53-18-84-55-94v-15c67-23 109-34 127-34 19 0 34 6 44 20 29 40 82 103 145 199 34 52 278 230 351 238 17 1 25-13 25-44 0-78-10-198-31-361-1-7-11-23-29-48 35-24 122-5 143 17 48 111 51 296 53 488 0 47 17 73 29 96-8 25-60 23-97 23-26 0-63-15-63-38 0-13-1-30-6-53-10-19-61-27-88-37-106-38-240-102-317-155-19-13-39-33-64-50-11-1-17 8-17 25v220c0 59-47 88-140 88-16 0-27-5-32-14" id="aa"/><path fill="#fcce14" d="M233-412c3 95-13 204 4 285-2 33 0 81 20 94 11 1 26 2 47 4 13 13-1 26-25 28-30 4-93 7-127 12-40 6-44-29-45-51-5-166 13-319 5-478-4-71-11-65-81-72-50-5-46-26 1-29 77-7 122-10 135-10 19-1 66 13 66 31v186" id="ab"/><path fill="#fcce14" d="M478-49C311 46-3 31 7-197c7-166 87-272 205-347 77-48 159-72 246-72 62 0 93 21 93 64 1 43-39 91-84 88-13 0-19-3-19-10 7-14 41-30 42-46 2-23-47-40-73-38-166 14-283 114-292 287C116-99 306-6 464-88c22-11 37-15 42-15 13 0 19 5 19 16 0 9-16 21-47 38" id="ac"/><path fill="#fcce14" d="M379-641c173-7 326 165 326 334 0 55-9 96-25 123C601-53 484 13 325 13 148 13 42-79-3-230c-7-23-8-47-8-70 0-233 157-331 390-341zm-56 51c-136 0-207 112-214 249-1 31 6 58 17 80C146-151 255-41 377-36c87 4 172-73 199-166 1 0 1-106 0-104-36-131-79-215-181-266-25-12-49-18-72-18" id="ad"/><g id="a"><use transform="matrix(0.06666666666666657,0,0,0.06666666666666657,0,0)" xlink:href="#Z"/><use transform="matrix(0.06666666666666657,0,0,0.06666666666666657,37.79999999999995,0)" xlink:href="#aa"/><use transform="matrix(0.06666666666666657,0,0,0.06666666666666657,102.13333333333318,0)" xlink:href="#ab"/><use transform="matrix(0.06666666666666657,0,0,0.06666666666666657,128.53333333333316,0)" xlink:href="#ac"/><use transform="matrix(0.06666666666666657,0,0,0.06666666666666657,175.4666666666664,0)" xlink:href="#ab"/><use transform="matrix(0.06666666666666657,0,0,0.06666666666666657,201.8666666666664,0)" xlink:href="#ad"/></g><path fill="#fcce14" d="M748-73c103 0 167-15 247-33 6 0 16 3 31 10 6 48-33 50-126 76C834-2 790 4 769 4H257c-44 2-66-64-66-113v-474c14-109 1-249 9-382 7-110 8-156-114-158-37-1-66-11-86-26v-23h352c35 0 60 23 60 70l10 974c2 38 55 43 103 43 72 0 146 12 223 12" id="ae"/><path fill="#fcce14" d="M562-40C488-11 365 9 308 10 122 12-9-115-9-286c0-104 43-139 96-223 11-17 14-40-30-28-10 2-10-10-6-16 37-29 154-55 216-63 32-4 32 22 13 33-52 28-86 70-103 125-21 69-32 122-32 159 0 193 148 281 344 234 88-21 98-26 89-109-13-114-2-278-32-370-9-29-77 11-83-21 10-40 121-36 163-49 27 0 43 17 47 51 22 185 25 276 44 456 2 19 6 63 37 61 10 1 20 3 29 4 2 15-12 20-19 22-78 26-123 37-134 37-25 0-41-19-46-56-1-7-21 1-22-1" id="af"/><path fill="#fcce14" d="M500-291c6-3-126 31-120 28-67-1-6-64 15-67 30-4 179-32 214-32 43 0 62 13 62 39l4 274c9 39-49 57-93 57-47 0-55-25-48-65-5-39-42-6-58 2C419-23 347 7 270 8 114 11-18-115-13-272c4-180 165-282 328-330 75-22 141-34 200-34 71 0 156 38 156 103 0 60-69 109-127 107-16-19 10-59-12-79-40-36-61-52-130-53-145-3-303 96-303 235C99-207 222-64 338-64c46 0 190-54 190-90 0-31 26-144-28-137" id="ag"/><path fill="#fcce14" d="M711-4c8 16-161 5-176 7-29-6-64-54-81-87-4-7-10-11-18-11-20-6-147 89-184 93C172 6 62 8 21-40 5-59-7-73-7-88c15-37 186-243 268-328 4-4 6-10 6-18 0-29-27-74-82-135-12-21-78-11-96-31-3-17 11-17 22-18 47-4 93-3 145-3 60 0 118 62 184 181 49 88 80 153 140 279 35 75 69 117 104 127 4 1 13 7 27 16v14zM135-133c-6 28 57 64 87 62 54-2 120-26 162-59 18-14 29-23 29-30 0-11-23-61-68-148-16-31-29-48-39-49-35 32-155 153-171 224" id="ah"/><path fill="#fcce14" d="M585-491c-2 109-133 177-200 239 5 25 177 175 201 190 14 9 62 2 72 19-3 12-124 52-143 48-27 0-78-35-153-106-72-67-108-107-108-118 72-91 301-147 214-294-16-27-37-38-62-38-75 0-240 152-240 220 0 107 2 202 4 307 0 21-31 32-94 32C32 8-6 7 20-23c20-23 24-95 24-128l2-399c-2-20-12-33-30-39-24-8-38-14-41-18 11-29 94-19 124-11 44-4 39 20 58 39 0 25 13 87 11 115 8 9 13 13 15 13 59-74 166-171 292-171 64 0 111 66 110 131" id="ai"/><g id="b"><use transform="matrix(0.044444444444444425,0,0,0.044444444444444425,0,0)" xlink:href="#ae"/><use transform="matrix(0.044444444444444425,0,0,0.044444444444444425,50.266666666666644,0)" xlink:href="#af"/><use transform="matrix(0.044444444444444425,0,0,0.044444444444444425,88.71111111111108,0)" xlink:href="#ag"/><use transform="matrix(0.044444444444444425,0,0,0.044444444444444425,124.97777777777772,0)" xlink:href="#ah"/><use transform="matrix(0.044444444444444425,0,0,0.044444444444444425,158.62222222222215,0)" xlink:href="#ai"/></g><path fill="#fcce14" d="M336-941c70-4 67 64 67 132 0 33 13 50 39 50 90-43 216-142 322-167 88-20 195-34 273-4 64 25 74 52 131 120 27 33 89 190 69 251-23 200-213 368-375 457-92 50-171 76-238 76-40 0-131-36-125-74-10-32 76-82 104-82-3-4 113 38 110 34 29-1 92-35 110-50 100-85 220-242 220-400 0-100-71-189-155-210-49-12-78-20-87-20-60-17-405 179-394 232-12 49 3 137 3 190 0 245 3 484 2 732 0 45-33 85-97 122-53 30-95 46-126 46-15 1-42-10-42-24 14-34 51-47 51-91 0-720-4-781-13-1148 0-13-15-24-45-33L38-785c-61-10-91-25-91-45 0-28 49-33 78-38 84-14 212-67 311-73" id="aj"/><path fill="#fcce14" d="M365-621c71-3 198 26 198 84 0 28-61 84-77 38s-83-62-137-62c-106 0-180 84-208 171-1 20 8 30 27 30 105-2 196 5 306 5 38 0 57 9 57 27 0 21-55 56-79 56-9 0-55-33-69-28-77 2-130 6-207 6-65 0-37 40-35 83 1 79 119 160 204 158 13 0 106-18 145-38 17-9 31-11 39-11 9 0 13 5 13 14 1 17-41 47-56 53-29 10-103 51-166 49-91-4-84-5-168-43C62-70-3-168-3-295c0-210 145-316 368-326" id="ak"/><path fill="#fcce14" d="M262-559c-81 0-175 37-175 122 0 32 34 48 102 48 79 0 174-2 240 20 91 30 134 73 134 119C544-165 376-26 281 1 205 22 146 16 80-17 21-47-11-63-11-73c-3-5 53-94 63-85 14 1 38 27 48 32 96 42 171 75 266 32 39-18 78-36 78-92 0-93-127-100-223-114C154-310 0-316 1-403c0-15 11-42 34-79 91-90 158-143 315-143 93 0 146 24 163 85-1 27-65 142-95 90 2-11 27-33 24-50 10-53-115-59-180-59" id="al"/><path fill="#fcce14" d="M91-544c0-42-27-38-61-35-33 2-43-16-25-29 41-11 136-32 188-8 26 24 18 94 18 149 0 167 12 335-8 489-13 28-41 72-71 86-13 6-94 49-108 47-39-5 3-41 19-48 44-50 60-45 60-114 0-182-12-356-12-537" id="am"/><g id="c"><use transform="matrix(0.044444444444444425,0,0,0.044444444444444425,0,0)" xlink:href="#aj"/><use transform="matrix(0.044444444444444425,0,0,0.044444444444444425,61.33333333333331,0)" xlink:href="#ak"/><use transform="matrix(0.044444444444444425,0,0,0.044444444444444425,92.04444444444441,0)" xlink:href="#ai"/><use transform="matrix(0.044444444444444425,0,0,0.044444444444444425,124.22222222222217,0)" xlink:href="#al"/><use transform="matrix(0.044444444444444425,0,0,0.044444444444444425,150.39999999999995,0)" xlink:href="#ad"/><use transform="matrix(0.044444444444444425,0,0,0.044444444444444425,187.51111111111103,0)" xlink:href="#aa"/><use transform="matrix(0.044444444444444425,0,0,0.044444444444444425,230.3999999999999,0)" xlink:href="#ah"/><use transform="matrix(0.044444444444444425,0,0,0.044444444444444425,264.04444444444437,0)" xlink:href="#am"/><use transform="matrix(0.044444444444444425,0,0,0.044444444444444425,280.0888888888888,0)" xlink:href="#ak"/><use transform="matrix(0.044444444444444425,0,0,0.044444444444444425,310.7999999999999,0)" xlink:href="#al"/></g><path fill="#fcce14" d="M248-816c-37 0-153 12-222 27-88-12 44-72 65-79 123-44 143-59 291-58l495 3c41-5 71-7 88-7 86 5-2 79-28 77-91 15-209 21-320 20 17 1-65 10-76 27-7 7-10 31-10 72v559c2 28 70 17 70 49C569-78 462-7 390 0c-9 2-27-12-29-18-34-178-22-448-24-669 0-9 11-52 9-64-6-56-26-65-98-65" id="an"/><path fill="#fcce14" d="M244-971c13 28-48 29-40 60-5 28 113 174 136 195 69 64 157 144 222 215 59 64 97 96 97 200 0 121-138 235-264 280C325 4 274 16 186-1c-41-19-78-28-118-69-48-49-68-75-68-154 0-40 4-76 23-101 23-64 110-167 187-203 48-23 72-41 72-52 3-9-40-43-39-45-11-12-31-28-52-54C104-788 65-852 65-863c0-22 23-48 71-74 58-31 66-43 108-34zm31 874c97 28 294-72 279-162-18-112-119-179-188-242-5-5-15-7-29-7-106 0-208 131-226 227 11 94 62 177 164 184" id="ao"/><g id="d"><use transform="matrix(0.044444444444444425,0,0,0.044444444444444425,0,0)" xlink:href="#an"/><use transform="matrix(0.044444444444444425,0,0,0.044444444444444425,42.66666666666665,0)" xlink:href="#ai"/><use transform="matrix(0.044444444444444425,0,0,0.044444444444444425,74.8444444444444,0)" xlink:href="#ah"/><use transform="matrix(0.044444444444444425,0,0,0.044444444444444425,108.48888888888884,0)" xlink:href="#ao"/><use transform="matrix(0.044444444444444425,0,0,0.044444444444444425,142.2666666666666,0)" xlink:href="#ab"/><use transform="matrix(0.044444444444444425,0,0,0.044444444444444425,159.86666666666656,0)" xlink:href="#ac"/><use transform="matrix(0.044444444444444425,0,0,0.044444444444444425,191.15555555555542,0)" xlink:href="#ab"/><use transform="matrix(0.044444444444444425,0,0,0.044444444444444425,208.75555555555542,0)" xlink:href="#ad"/><use transform="matrix(0.044444444444444425,0,0,0.044444444444444425,245.86666666666653,0)" xlink:href="#aa"/><use transform="matrix(0.044444444444444425,0,0,0.044444444444444425,286.3111111111109,0)" xlink:href="#ak"/><use transform="matrix(0.044444444444444425,0,0,0.044444444444444425,317.022222222222,0)" xlink:href="#al"/></g><path fill="#fcce14" d="M870-912c237 0 337 284 280 532-3 0-41 136-79 186-15 18-24 30-28 37C992-72 926 4 845 72c-35 30-65 44-88 42-19-22 34-82 46-97 163-205 223-385 131-643-40-112-100-167-176-167-63 0-148 37-254 111-110 77-181 144-181 206 0 187-4 168-4 314 0 63 5 75 31 110 1 3 1 9 1 18 4 11-201 91-214 91-23 0-52-19-51-43 12-370 15-728 12-1103-2 0 0-69-22-58-10 1-90 46-109 39-13 1-41-10-41-22 0-18 32-45 100-73 38-16 189-96 256-117 29 0 41 13 41 39l-4 571c5 4 3 58 24 48 57-29 215-158 276-185 88-38 170-65 251-65" id="ap"/><path fill="#fcce14" d="M201-543c-50-6-120 4-184 17-59-8 31-48 43-53 142-63 386-41 583-41 17 0 25 5 25 15-24 57-116 43-189 50-55 6-74-7-119 17-4 4-6 21-6 48v373c1 18 45 13 46 33C377-49 289 8 260 0c-12 0-19-4-20-12-24-145-14-286-16-446 1-2 11-51 4-60-3-13-12-23-27-25" id="aq"/><g id="e"><use transform="matrix(0.044444444444444425,0,0,0.044444444444444425,0,0)" xlink:href="#ap"/><use transform="matrix(0.044444444444444425,0,0,0.044444444444444425,59.111111111111086,0)" xlink:href="#ab"/><use transform="matrix(0.044444444444444425,0,0,0.044444444444444425,79.15555555555552,0)" xlink:href="#al"/><use transform="matrix(0.044444444444444425,0,0,0.044444444444444425,107.77777777777773,0)" xlink:href="#aq"/><use transform="matrix(0.044444444444444425,0,0,0.044444444444444425,137.99999999999994,0)" xlink:href="#ad"/><use transform="matrix(0.044444444444444425,0,0,0.044444444444444425,175.11111111111103,0)" xlink:href="#ai"/><use transform="matrix(0.044444444444444425,0,0,0.044444444444444425,207.28888888888875,0)" xlink:href="#ab"/><use transform="matrix(0.044444444444444425,0,0,0.044444444444444425,227.3333333333332,0)" xlink:href="#ah"/></g><path fill="#fcce14" d="M712-933c96 0 169 97 164 196-7 132-115 217-221 294-52 38-78 60-78 65 8 37 266 264 302 286 21 12 94 3 107 28-3 17-187 78-214 72-27 0-74-28-142-82-62-49-212-191-249-254 0-12 30-38 91-79 83-57 140-98 169-123 94-85 124-138 61-240-64-102-158-54-253 10-54 37-101 83-141 136s-60 95-60 128v313c12 38 7 96 7 146 0 32-47 48-142 48-51 0-84-6-98-17-3-8 29-50 29-55 12-31 21-140 21-166l3-598c-7-44-22-52-67-65-19-5-32-12-39-21 14-41 142-30 186-15 65-6 61 30 87 58 0 13 9 34 2 42 0 5 21 121 15 130 11 13 19 19 23 19 89-110 248-256 437-256" id="ar"/><path fill="#fcce14" d="M47-14c1-18-9-54 0-66 1-97 3-334 3-451 0-18-4-42-26-44-20-7-35-3-33-21 33-10 142-28 157 7 3 8 3 25 4 50 1 3 6 5 15 5 65-40 125-84 221-84 76 0 131 17 165 51 0-3-3 3-10 16-26 20-52 29-77 26-32-20-77-46-137-39-62 7-131 65-168 109-15 30-5 59-7 110 0 13 8 20 25 20 44 0 143-14 191-4 33 7-6 32-16 33-41 25-100 17-159 25-29 4-38 3-38 32 4 141 4 290 4 437 0 68-86 137-145 153-44-11 20-54 19-68 20-89 5-193 12-297" id="as"/><g id="f"><use transform="matrix(0.044444444444444425,0,0,0.044444444444444425,0,0)" xlink:href="#ar"/><use transform="matrix(0.044444444444444425,0,0,0.044444444444444425,49.555555555555536,0)" xlink:href="#ak"/><use transform="matrix(0.044444444444444425,0,0,0.044444444444444425,80.26666666666664,0)" xlink:href="#as"/><use transform="matrix(0.044444444444444425,0,0,0.044444444444444425,106.48888888888884,0)" xlink:href="#ak"/><use transform="matrix(0.044444444444444425,0,0,0.044444444444444425,137.19999999999996,0)" xlink:href="#ai"/><use transform="matrix(0.044444444444444425,0,0,0.044444444444444425,166.93333333333328,0)" xlink:href="#ak"/><use transform="matrix(0.044444444444444425,0,0,0.044444444444444425,197.6444444444444,0)" xlink:href="#aa"/><use transform="matrix(0.044444444444444425,0,0,0.044444444444444425,238.0888888888888,0)" xlink:href="#ac"/><use transform="matrix(0.044444444444444425,0,0,0.044444444444444425,269.3777777777777,0)" xlink:href="#ab"/><use transform="matrix(0.044444444444444425,0,0,0.044444444444444425,289.4222222222221,0)" xlink:href="#ah"/><use transform="matrix(0.044444444444444425,0,0,0.044444444444444425,323.06666666666655,0)" xlink:href="#al"/></g><path fill="#fff" d="M818-816c-20-41-111 15-124-32 0-10 20-29 29-32 28-8 178-40 215-40 43 0 67 34 71 76 34 282 45 438 70 716 5 52 44 62 96 65 3 23-18 29-29 33-117 39-185 56-202 56-37 0-60-28-68-85-1-10-34 2-34-1-87 36-282 70-342 70-192 0-372-73-441-196-48-86-73-129-73-244 0-153 61-211 144-333 0-4 10-22 11-33-5-20-29-15-56-10-17 3-13-15-9-24 55-44 232-79 325-94 14-2 39 8 39 21 0 11-7 21-21 28-77 42-129 105-154 188-32 103-48 183-48 238-2 225 127 369 350 369 83 0 299-28 301-84 5-129-16-281-16-408 0-70-10-194-34-244" id="at"/><path fill="#fff" d="M69-265c1-111 2-152 2-275 0-51-76 15-90 10-11 0-17-4-17-12 0-19 31-38 92-59 52-17 87-26 104-26 51-1 20 62 27 109-1 11 2 16 9 16 51-24 125-116 196-116 53 0 93 33 118 98 4 8 3 49 3 67-12 29-48 66-71 95 0 5 4 8 12 11 41 11 96 79 96 147C550-82 375 1 252 16c-30 4-63 7-98 7-77-1-82-3-83-77zm123-53c7 17 36 4 52 4 11-1 43-6 92-23 45-15 87-30 87-88 0-79-69-127-134-86-12 2-109 73-100 88-1 37 0 71 3 105zm36 54c-60 1-30 83-35 131 7 50-22 98 51 94 77-4 204-34 208-99 4-79-64-156-152-136-31 7-47 3-72 10" id="au"/><path fill="#fff" d="M233-412c3 95-13 204 4 285-2 33 0 81 20 94 11 1 26 2 47 4 13 13-1 26-25 28-30 4-93 7-127 12-40 6-44-29-45-51-5-166 13-319 5-478-4-71-11-65-81-72-50-5-46-26 1-29 77-7 122-10 135-10 19-1 66 13 66 31v186" id="av"/><path fill="#fff" d="M478-49C311 46-3 31 7-197c7-166 87-272 205-347 77-48 159-72 246-72 62 0 93 21 93 64 1 43-39 91-84 88-13 0-19-3-19-10 7-14 41-30 42-46 2-23-47-40-73-38-166 14-283 114-292 287C116-99 306-6 464-88c22-11 37-15 42-15 13 0 19 5 19 16 0 9-16 21-47 38" id="aw"/><path fill="#fff" d="M711-4c8 16-161 5-176 7-29-6-64-54-81-87-4-7-10-11-18-11-20-6-147 89-184 93C172 6 62 8 21-40 5-59-7-73-7-88c15-37 186-243 268-328 4-4 6-10 6-18 0-29-27-74-82-135-12-21-78-11-96-31-3-17 11-17 22-18 47-4 93-3 145-3 60 0 118 62 184 181 49 88 80 153 140 279 35 75 69 117 104 127 4 1 13 7 27 16v14zM135-133c-6 28 57 64 87 62 54-2 120-26 162-59 18-14 29-23 29-30 0-11-23-61-68-148-16-31-29-48-39-49-35 32-155 153-171 224" id="ax"/><path fill="#fff" d="M379-641c173-7 326 165 326 334 0 55-9 96-25 123C601-53 484 13 325 13 148 13 42-79-3-230c-7-23-8-47-8-70 0-233 157-331 390-341zm-56 51c-135 0-208 112-214 249-1 31 6 58 17 80C146-151 255-41 377-36c87 4 172-73 199-166 1 0 1-106 0-104-36-131-79-215-181-266-25-12-49-18-72-18zm30-228L232-674h28l133-103c19-15 29-27 29-38 0-44-44-32-69-3" id="ay"/><path fill="#fff" d="M15-11c-5-169 22-313 22-471 0-53-18-84-55-94v-15c67-23 109-34 127-34 19 0 34 6 44 20 29 40 82 103 145 199 34 52 278 230 351 238 17 1 25-13 25-44 0-78-10-198-31-361-1-7-11-23-29-48 35-24 122-5 143 17 48 111 51 296 53 488 0 47 17 73 29 96-8 25-60 23-97 23-26 0-63-15-63-38 0-13-1-30-6-53-10-19-61-27-88-37-106-38-240-102-317-155-19-13-39-33-64-50-11-1-17 8-17 25v220c0 59-47 88-140 88-16 0-27-5-32-14" id="az"/><g id="g"><use transform="matrix(0.044444444444444425,0,0,0.044444444444444425,0,0)" xlink:href="#at"/><use transform="matrix(0.044444444444444425,0,0,0.044444444444444425,55.91111111111109,0)" xlink:href="#au"/><use transform="matrix(0.044444444444444425,0,0,0.044444444444444425,87.37777777777774,0)" xlink:href="#av"/><use transform="matrix(0.044444444444444425,0,0,0.044444444444444425,104.97777777777773,0)" xlink:href="#aw"/><use transform="matrix(0.044444444444444425,0,0,0.044444444444444425,136.2666666666666,0)" xlink:href="#ax"/><use transform="matrix(0.044444444444444425,0,0,0.044444444444444425,168.7999999999999,0)" xlink:href="#aw"/><use transform="matrix(0.044444444444444425,0,0,0.044444444444444425,200.0888888888888,0)" xlink:href="#av"/><use transform="matrix(0.044444444444444425,0,0,0.044444444444444425,217.68888888888875,0)" xlink:href="#ay"/><use transform="matrix(0.044444444444444425,0,0,0.044444444444444425,254.79999999999984,0)" xlink:href="#az"/></g><path fill="#fff" d="M569-395c-17 1-45-11-45-28 0-24 46-68 68-72 44-8 270-48 320-48 66 0 94 20 94 59 0 141 2 284 7 424 2 49-83 71-141 71-70 0-71-35-71-96 0-21-10-31-31-31C679-59 543 11 404 11 171 11-20-174-20-408c0-125 55-230 158-323 127-114 404-219 635-223 104-2 233 58 233 155 0 88-102 163-191 160-22-31 15-88-18-118-61-54-90-78-195-80-216-3-454 144-454 353 0 173 184 389 358 389 70 0 277-84 285-136 8-16 10-100 10-139 0-44-17-66-51-66 8-4-189 45-181 41" id="aA"/><path fill="#fff" d="M365-621c71-3 198 26 198 84 0 28-61 84-77 38s-83-62-137-62c-106 0-180 84-208 171-1 20 8 30 27 30 105-2 196 5 306 5 38 0 57 9 57 27 0 21-55 56-79 56-9 0-55-33-69-28-77 2-130 6-207 6-65 0-37 40-35 83 1 79 119 160 204 158 13 0 106-18 145-38 17-9 31-11 39-11 9 0 13 5 13 14 1 17-41 47-56 53-29 10-103 51-166 49-91-4-84-5-168-43C62-70-3-168-3-295c0-210 145-316 368-326" id="aB"/><path fill="#fff" d="M379-641c173-7 326 165 326 334 0 55-9 96-25 123C601-53 484 13 325 13 148 13 42-79-3-230c-7-23-8-47-8-70 0-233 157-331 390-341zm-56 51c-136 0-207 112-214 249-1 31 6 58 17 80C146-151 255-41 377-36c87 4 172-73 199-166 1 0 1-106 0-104-36-131-79-215-181-266-25-12-49-18-72-18" id="aC"/><path fill="#fff" d="M500-291c6-3-126 31-120 28-67-1-6-64 15-67 30-4 179-32 214-32 43 0 62 13 62 39l4 274c9 39-49 57-93 57-47 0-55-25-48-65-5-39-42-6-58 2C419-23 347 7 270 8 114 11-18-115-13-272c4-180 165-282 328-330 75-22 141-34 200-34 71 0 156 38 156 103 0 60-69 109-127 107-16-19 10-59-12-79-40-36-61-52-130-53-145-3-303 96-303 235C99-207 222-64 338-64c46 0 190-54 190-90 0-31 26-144-28-137" id="aD"/><path fill="#fff" d="M585-491c-2 109-133 177-200 239 5 25 177 175 201 190 14 9 62 2 72 19-3 12-124 52-143 48-27 0-78-35-153-106-72-67-108-107-108-118 72-91 301-147 214-294-16-27-37-38-62-38-75 0-240 152-240 220 0 107 2 202 4 307 0 21-31 32-94 32C32 8-6 7 20-23c20-23 24-95 24-128l2-399c-2-20-12-33-30-39-24-8-38-14-41-18 11-29 94-19 124-11 44-4 39 20 58 39 0 25 13 87 11 115 8 9 13 13 15 13 59-74 166-171 292-171 64 0 111 66 110 131" id="aE"/><path fill="#fff" d="M47-14c1-18-9-54 0-66 1-97 3-334 3-451 0-18-4-42-26-44-20-7-35-3-33-21 33-10 142-28 157 7 3 8 3 25 4 50 1 3 6 5 15 5 65-40 125-84 221-84 76 0 131 17 165 51 0-3-3 3-10 16-26 20-52 29-77 26-32-20-77-46-137-39-62 7-131 65-168 109-15 30-5 59-7 110 0 13 8 20 25 20 44 0 143-14 191-4 33 7-6 32-16 33-41 25-100 17-159 25-29 4-38 3-38 32 4 141 4 290 4 437 0 68-86 137-145 153-44-11 20-54 19-68 20-89 5-193 12-297" id="aF"/><g id="h"><use transform="matrix(0.044444444444444425,0,0,0.044444444444444425,0,0)" xlink:href="#aA"/><use transform="matrix(0.044444444444444425,0,0,0.044444444444444425,52.2222222222222,0)" xlink:href="#aB"/><use transform="matrix(0.044444444444444425,0,0,0.044444444444444425,82.9333333333333,0)" xlink:href="#aC"/><use transform="matrix(0.044444444444444425,0,0,0.044444444444444425,120.0444444444444,0)" xlink:href="#aD"/><use transform="matrix(0.044444444444444425,0,0,0.044444444444444425,156.31111111111105,0)" xlink:href="#aE"/><use transform="matrix(0.044444444444444425,0,0,0.044444444444444425,188.4888888888888,0)" xlink:href="#ax"/><use transform="matrix(0.044444444444444425,0,0,0.044444444444444425,222.13333333333327,0)" xlink:href="#aF"/><use transform="matrix(0.044444444444444425,0,0,0.044444444444444425,250.79999999999993,0)" xlink:href="#av"/><use transform="matrix(0.044444444444444425,0,0,0.044444444444444425,270.8444444444444,0)" xlink:href="#ax"/></g><path fill="#fff" d="M677-408c-12 0-83-48-103-41-116 3-193 8-311 8-96 0-54 60-52 124 3 117 178 244 305 238 83-4 149-26 219-57 27-11 46-17 58-17 13 0 19 7 19 21 0 56-134 99-167 115-78 37-206 47-304 24-9-2-46-19-113-50C78-111-33-280-2-500c38-269 240-432 549-432 51 0 104 7 161 21 91 23 137 58 137 106 0 41-88 123-116 57-24-55-46-59-111-79-205-61-357 89-407 242 1 34 4 45 40 45 80 0 159 7 229 7h231c34-1 88 14 85 42-3 31-81 85-119 83" id="aG"/><path fill="#fff" d="M262-559c-81 0-175 37-175 122 0 32 34 48 102 48 79 0 174-2 240 20 91 30 134 73 134 119C544-165 376-26 281 1 205 22 146 16 80-17 21-47-11-63-11-73c-3-5 53-94 63-85 14 1 38 27 48 32 96 42 171 75 266 32 39-18 78-36 78-92 0-93-127-100-223-114C154-310 0-316 1-403c0-15 11-42 34-79 91-90 158-143 315-143 93 0 146 24 163 85-1 27-65 142-95 90 2-11 27-33 24-50 10-53-115-59-180-59" id="aH"/><path fill="#fff" d="M201-543c-50-6-120 4-184 17-59-8 31-48 43-53 142-63 386-41 583-41 17 0 25 5 25 15-24 57-116 43-189 50-55 6-74-7-119 17-4 4-6 21-6 48v373c1 18 45 13 46 33C377-49 289 8 260 0c-12 0-19-4-20-12-24-145-14-286-16-446 1-2 11-51 4-60-3-13-12-23-27-25" id="aI"/><path fill="#fff" d="M562-40C488-11 365 9 308 10 122 12-9-115-9-286c0-104 43-139 96-223 11-17 14-40-30-28-10 2-10-10-6-16 37-29 154-55 216-63 32-4 32 22 13 33-52 28-86 70-103 125-21 69-32 122-32 159 0 193 148 281 344 234 88-21 98-26 89-109-13-114-2-278-32-370-9-29-77 11-83-21 10-40 121-36 163-49 27 0 43 17 47 51 22 185 25 276 44 456 2 19 6 63 37 61 10 1 20 3 29 4 2 15-12 20-19 22-78 26-123 37-134 37-25 0-41-19-46-56-1-7-21 1-22-1" id="aJ"/><g id="i"><use transform="matrix(0.044444444444444425,0,0,0.044444444444444425,0,0)" xlink:href="#aG"/><use transform="matrix(0.044444444444444425,0,0,0.044444444444444425,42.26666666666665,0)" xlink:href="#aH"/><use transform="matrix(0.044444444444444425,0,0,0.044444444444444425,70.88888888888886,0)" xlink:href="#aI"/><use transform="matrix(0.044444444444444425,0,0,0.044444444444444425,104.4444444444444,0)" xlink:href="#aE"/><use transform="matrix(0.044444444444444425,0,0,0.044444444444444425,136.62222222222215,0)" xlink:href="#aJ"/><use transform="matrix(0.044444444444444425,0,0,0.044444444444444425,175.06666666666658,0)" xlink:href="#aw"/><use transform="matrix(0.044444444444444425,0,0,0.044444444444444425,204.44444444444434,0)" xlink:href="#aI"/><use transform="matrix(0.044444444444444425,0,0,0.044444444444444425,237.9999999999999,0)" xlink:href="#aJ"/><use transform="matrix(0.044444444444444425,0,0,0.044444444444444425,276.44444444444434,0)" xlink:href="#aE"/><use transform="matrix(0.044444444444444425,0,0,0.044444444444444425,308.6222222222221,0)" xlink:href="#ax"/></g><path fill="#fff" d="M166-926c68-6 146-5 218-5 89 0 177 93 276 271 73 131 121 230 209 418 31 67 97 170 157 191 6 2 19 10 40 25v20c-24 21-49 11-140 11H801c-38-10-95-79-118-129-34-35-37-16-95 11C475-60 428 14 270 5 157-2 94-1 33-59c-29-27-44-51-44-72-23 9 200-270 285-363 3-3 42-46 118-131 5-6 8-14 8-25 0-43-40-112-124-203-20-21-33-21-83-26-27-3-47-10-60-21v-16c9-6 20-9 33-10zm36 726c0 45 87 99 131 94 104-12 172-33 243-89 72-58 47-30 6-133-22-56-47-100-65-134-24-47-43-71-58-73-82 64-151 162-213 244-31 41-44 72-44 91" id="aK"/><g id="j"><use transform="matrix(0.044444444444444425,0,0,0.044444444444444425,0,0)" xlink:href="#aK"/><use transform="matrix(0.044444444444444425,0,0,0.044444444444444425,52.488888888888866,0)" xlink:href="#aE"/><use transform="matrix(0.044444444444444425,0,0,0.044444444444444425,84.66666666666663,0)" xlink:href="#ax"/><use transform="matrix(0.044444444444444425,0,0,0.044444444444444425,118.31111111111106,0)" xlink:href="#aD"/><use transform="matrix(0.044444444444444425,0,0,0.044444444444444425,154.57777777777773,0)" xlink:href="#aC"/><use transform="matrix(0.044444444444444425,0,0,0.044444444444444425,191.6888888888888,0)" xlink:href="#aE"/><use transform="matrix(0.044444444444444425,0,0,0.044444444444444425,223.86666666666656,0)" xlink:href="#az"/></g><path fill="#fff" d="M366-1457c18 43-72 44-61 91-8 43 169 260 204 292 106 97 230 219 335 323 63 62 110 126 131 194 77 243-142 418-345 515-9 1-21 5-37 11C492 14 412 23 279-1c-61-31-116-45-177-105C30-177 0-220 0-336c0-40 4-78 13-114 36-60 40-94 115-187 33-41 122-123 187-155 72-35 108-61 108-77 5-15-59-66-58-68-17-19-47-43-78-82-130-164-189-259-189-276 0-32 34-71 107-111 86-47 99-65 161-51zM675-198c144-78 199-162 115-299-64-104-155-179-241-254-9-7-23-10-44-10-124 1-276 161-311 261-16 47-27 72-27 78-2 107 81 212 156 254 14 8 90 22 127 33 67 0 143-19 225-63" id="aL"/><path fill="#fff" d="M580-608c159 0 222 187 187 355-3 8-15 41-38 99C682-84 634-8 563 48c-24 19-43 29-58 28-11-20 4-33 30-65 75-93 116-185 116-280 0-99-55-272-146-260-75-8-292 145-290 212 3 125-2 111-2 209 0 42 3 50 20 73 1 2 1 6 1 13 2 6-134 60-143 60-15 0-35-12-34-29 6-254 17-505 6-759-2-41-62 22-85 12-18 0-27-5-27-15 0-12 21-30 66-49 25-11 126-64 171-78 19 0 27 9 27 26l-3 381c4 1 2 36 17 31 92-63 209-166 351-166" id="aM"/><g id="k"><use transform="matrix(0.044444444444444425,0,0,0.044444444444444425,0,0)" xlink:href="#aL"/><use transform="matrix(0.044444444444444425,0,0,0.044444444444444425,50.6222222222222,0)" xlink:href="#aB"/><use transform="matrix(0.044444444444444425,0,0,0.044444444444444425,81.3333333333333,0)" xlink:href="#az"/><use transform="matrix(0.044444444444444425,0,0,0.044444444444444425,121.77777777777773,0)" xlink:href="#aB"/><use transform="matrix(0.044444444444444425,0,0,0.044444444444444425,150.57777777777773,0)" xlink:href="#aI"/><use transform="matrix(0.044444444444444425,0,0,0.044444444444444425,184.13333333333324,0)" xlink:href="#aM"/><use transform="matrix(0.044444444444444425,0,0,0.044444444444444425,222.7999999999999,0)" xlink:href="#aC"/><use transform="matrix(0.044444444444444425,0,0,0.044444444444444425,259.911111111111,0)" xlink:href="#aE"/></g><path fill="#fff" d="M335-897c0 229-7 440-5 669 11 25 11 61 10 98-1 18 15 85 31 81 15 0 38 2 69 5 27 17-19 40-37 42-45 5-137 14-191 18-18 1-53-12-57-25-19-71-10-154-10-238 0-88 10-180 10-270 0-89 5-175-2-259-9-106-17-97-122-108-55-6-75-26-28-38 83-21 226-20 232-21 30-2 100 20 100 46" id="aN"/><g id="l"><use transform="matrix(0.044444444444444425,0,0,0.044444444444444425,0,0)" xlink:href="#aN"/><use transform="matrix(0.044444444444444425,0,0,0.044444444444444425,25.19999999999999,0)" xlink:href="#aN"/></g><path fill="#fff" d="M-13-894c27-18 108-14 150-21 92 6 91 15 92 106 2 5 9 8 22 8 95-57 186-126 331-126 114 0 197 25 248 76-12 39-85 64-131 63-3 5-94-53-96-49-102-16-158-14-239 45-44 32-85 67-122 109-23 43-11 89-11 165 0 20 13 30 38 30 67 0 214-17 287-5 26 4 24 28 2 36-66 45-163 41-264 51-45 5-59 3-58 48 6 211 6 435 6 655 0 77-104 178-164 205-16 7-36 24-54 24-36 0-24-34-4-55 34-36 48-66 48-128 0-146 11-294-3-446 12-44 6-109 7-272l3-421c-3-27-6-64-39-66-30-11-52-4-49-32" id="aO"/><path fill="#fff" d="M978-560c-1 11-58 90-57 91l378 456V2c-56 19-127 5-173-18 9-36-5-78-19-100-41-64-73-124-142-203-45-51-69-78-78-78-15 0-46 60-93 181-21 54-48 122-92 196-24 40-105-6-106-40-3-3 34-59 30-63 0-20-37-71-112-152-72-79-112-118-120-118-22-1-63 95-78 125-45 87-99 206-160 265-7 11-66 14-81 3-34-26-52-41-96-69 13-16 67 8 81-18 21-40 58-106 104-200 106-215 181-323 228-323 19 0 89 28 86 48 5 2-48 81-43 83-13 13 211 234 224 243 20-7 33-50 44-73 28-63 55-126 84-189 45-98 77-146 95-146 16-4 104 65 96 84" id="aP"/><g id="m"><use transform="matrix(0.044444444444444425,0,0,0.044444444444444425,0,0)" xlink:href="#aO"/><use transform="matrix(0.044444444444444425,0,0,0.044444444444444425,35.33333333333332,0)" xlink:href="#ax"/><use transform="matrix(0.044444444444444425,0,0,0.044444444444444425,68.97777777777776,0)" xlink:href="#aE"/><use transform="matrix(0.044444444444444425,0,0,0.044444444444444425,101.15555555555554,0)" xlink:href="#ax"/><use transform="matrix(0.044444444444444425,0,0,0.044444444444444425,134.79999999999995,0)" xlink:href="#aP"/><use transform="matrix(0.044444444444444425,0,0,0.044444444444444425,196.79999999999993,0)" xlink:href="#av"/><use transform="matrix(0.044444444444444425,0,0,0.044444444444444425,216.84444444444438,0)" xlink:href="#aE"/></g><path fill="#fff" d="M748-73c103 0 167-15 247-33 6 0 16 3 31 10 6 48-33 50-126 76C834-2 790 4 769 4H257c-44 2-66-64-66-113v-474c14-109 1-249 9-382 7-110 8-156-114-158-37-1-66-11-86-26v-23h352c35 0 60 23 60 70l10 974c2 38 55 43 103 43 72 0 146 12 223 12" id="aQ"/><g id="n"><use transform="matrix(0.044444444444444425,0,0,0.044444444444444425,0,0)" xlink:href="#aQ"/><use transform="matrix(0.044444444444444425,0,0,0.044444444444444425,50.266666666666644,0)" xlink:href="#ax"/></g><path fill="#fff" d="M248-816c-37 0-153 12-222 27-88-12 44-72 65-79 123-44 143-59 291-58l495 3c41-5 71-7 88-7 86 5-2 79-28 77-91 15-209 21-320 20 17 1-65 10-76 27-7 7-10 31-10 72v559c2 28 70 17 70 49C569-78 462-7 390 0c-9 2-27-12-29-18-34-178-22-448-24-669 0-9 11-52 9-64-6-56-26-65-98-65" id="aR"/><g id="o"><use transform="matrix(0.044444444444444425,0,0,0.044444444444444425,0,0)" xlink:href="#aR"/><use transform="matrix(0.044444444444444425,0,0,0.044444444444444425,42.66666666666665,0)" xlink:href="#aE"/><use transform="matrix(0.044444444444444425,0,0,0.044444444444444425,72.39999999999998,0)" xlink:href="#aC"/><use transform="matrix(0.044444444444444425,0,0,0.044444444444444425,109.51111111111106,0)" xlink:href="#az"/><use transform="matrix(0.044444444444444425,0,0,0.044444444444444425,149.9555555555555,0)" xlink:href="#aB"/><use transform="matrix(0.044444444444444425,0,0,0.044444444444444425,180.6666666666666,0)" xlink:href="#aE"/><use transform="matrix(0.044444444444444425,0,0,0.044444444444444425,212.8444444444444,0)" xlink:href="#ax"/></g><g id="p"><use transform="matrix(0.044444444444444425,0,0,0.044444444444444425,0,0)" xlink:href="#aQ"/><use transform="matrix(0.044444444444444425,0,0,0.044444444444444425,50.266666666666644,0)" xlink:href="#ax"/><use transform="matrix(0.044444444444444425,0,0,0.044444444444444425,83.91111111111107,0)" xlink:href="#aH"/></g><path fill="#fff" d="M186-406c0 188 131 314 321 322 13 1 118-18 129-21 27-13 102-50 122-50 46 0 32 44-3 63C615-16 458 39 275-1 143-30 62-77 27-201-2-302 11-362 40-465c70-252 337-459 646-459 93 0 140 32 140 96 0 65-58 132-126 132-19 0-29-5-29-15 13-21 60-45 64-70 5-33-74-57-110-57-1 0-30 4-86 16-203 43-353 192-353 416" id="aS"/><path fill="#fff" d="M133-709c-7-32-30-38-76-40-25-1-44-7-57-17v-15h234c23 0 41 15 41 46l6 650c3 16 17 26 39 27 115 9 250 20 344-13 3 1 25 2 20 18 0 13-28 27-84 40C470 20 322-6 171 3c-29 2-43-44-43-76 0-224 4-410 5-636" id="aT"/><path fill="#fff" d="M355-548c-64 3-206 10-288 31-9 0-13-5-13-15 0-28 75-60 107-66 5-1 25-9 59-10l394-10c13 0 24 4 33 13 0 9-2 15-7 20-57 57-148 150-273 279-1 1-54 65-158 190-10 13-15 22-15 27-1 29 68 11 94 13l213 13c35 6 101-26 121-31 27 8 23 26-5 43-51 33-149 70-231 64C275 4 139 9 12 7-24-8 54-64 50-69c108-140 241-289 374-423 42-42 14-60-69-56" id="aU"/><g id="q"><use transform="matrix(0.044444444444444425,0,0,0.044444444444444425,0,0)" xlink:href="#aS"/><use transform="matrix(0.044444444444444425,0,0,0.044444444444444425,41.555555555555536,0)" xlink:href="#ax"/><use transform="matrix(0.044444444444444425,0,0,0.044444444444444425,75.19999999999996,0)" xlink:href="#au"/><use transform="matrix(0.044444444444444425,0,0,0.044444444444444425,106.66666666666661,0)" xlink:href="#ax"/><use transform="matrix(0.044444444444444425,0,0,0.044444444444444425,140.31111111111105,0)" xlink:href="#aT"/><use transform="matrix(0.044444444444444425,0,0,0.044444444444444425,173.15555555555548,0)" xlink:href="#aT"/><use transform="matrix(0.044444444444444425,0,0,0.044444444444444425,203.55555555555546,0)" xlink:href="#aB"/><use transform="matrix(0.044444444444444425,0,0,0.044444444444444425,234.26666666666657,0)" xlink:href="#aE"/><use transform="matrix(0.044444444444444425,0,0,0.044444444444444425,266.44444444444434,0)" xlink:href="#av"/><use transform="matrix(0.044444444444444425,0,0,0.044444444444444425,286.48888888888877,0)" xlink:href="#aU"/><use transform="matrix(0.044444444444444425,0,0,0.044444444444444425,321.2444444444443,0)" xlink:href="#ax"/><use transform="matrix(0.044444444444444425,0,0,0.044444444444444425,354.88888888888874,0)" xlink:href="#aH"/></g><g id="r"><use transform="matrix(0.044444444444444425,0,0,0.044444444444444425,0,0)" xlink:href="#aQ"/><use transform="matrix(0.044444444444444425,0,0,0.044444444444444425,50.266666666666644,0)" xlink:href="#ax"/><use transform="matrix(0.044444444444444425,0,0,0.044444444444444425,83.91111111111107,0)" xlink:href="#aH"/></g><g id="s"><use transform="matrix(0.044444444444444425,0,0,0.044444444444444425,0,0)" xlink:href="#aS"/><use transform="matrix(0.044444444444444425,0,0,0.044444444444444425,41.555555555555536,0)" xlink:href="#ax"/><use transform="matrix(0.044444444444444425,0,0,0.044444444444444425,75.19999999999996,0)" xlink:href="#aH"/><use transform="matrix(0.044444444444444425,0,0,0.044444444444444425,103.82222222222215,0)" xlink:href="#ax"/><use transform="matrix(0.044444444444444425,0,0,0.044444444444444425,137.46666666666658,0)" xlink:href="#aH"/></g><path fill="#fff" d="M244-971c13 28-48 29-40 60-5 28 113 174 136 195 69 64 157 144 222 215 59 64 97 96 97 200 0 121-138 235-264 280C325 4 274 16 186-1c-41-19-78-28-118-69-48-49-68-75-68-154 0-40 4-76 23-101 23-64 110-167 187-203 48-23 72-41 72-52 3-9-40-43-39-45-11-12-31-28-52-54C104-788 65-852 65-863c0-22 23-48 71-74 58-31 66-43 108-34zm31 874c97 28 294-72 279-162-18-112-119-179-188-242-5-5-15-7-29-7-106 0-208 131-226 227 11 94 62 177 164 184" id="aV"/><g id="t"><use transform="matrix(0.044444444444444425,0,0,0.044444444444444425,0,0)" xlink:href="#aV"/><use transform="matrix(0.044444444444444425,0,0,0.044444444444444425,35.73333333333332,0)" xlink:href="#aB"/></g><g id="u"><use transform="matrix(0.044444444444444425,0,0,0.044444444444444425,0,0)" xlink:href="#aS"/><use transform="matrix(0.044444444444444425,0,0,0.044444444444444425,41.59999999999998,0)" xlink:href="#aJ"/><use transform="matrix(0.044444444444444425,0,0,0.044444444444444425,80.04444444444441,0)" xlink:href="#aE"/><use transform="matrix(0.044444444444444425,0,0,0.044444444444444425,112.22222222222217,0)" xlink:href="#ax"/><use transform="matrix(0.044444444444444425,0,0,0.044444444444444425,144.75555555555547,0)" xlink:href="#aw"/><use transform="matrix(0.044444444444444425,0,0,0.044444444444444425,176.04444444444437,0)" xlink:href="#av"/><use transform="matrix(0.044444444444444425,0,0,0.044444444444444425,193.64444444444433,0)" xlink:href="#ay"/><use transform="matrix(0.044444444444444425,0,0,0.044444444444444425,230.75555555555542,0)" xlink:href="#az"/></g><g id="v"><use transform="matrix(0.044444444444444425,0,0,0.044444444444444425,0,0)" xlink:href="#aG"/><use transform="matrix(0.044444444444444425,0,0,0.044444444444444425,42.26666666666665,0)" xlink:href="#aT"/></g><g id="w"><use transform="matrix(0.044444444444444425,0,0,0.044444444444444425,0,0)" xlink:href="#aS"/><use transform="matrix(0.044444444444444425,0,0,0.044444444444444425,43.68888888888887,0)" xlink:href="#aB"/><use transform="matrix(0.044444444444444425,0,0,0.044444444444444425,74.39999999999996,0)" xlink:href="#aP"/><use transform="matrix(0.044444444444444425,0,0,0.044444444444444425,136.39999999999992,0)" xlink:href="#aB"/><use transform="matrix(0.044444444444444425,0,0,0.044444444444444425,167.11111111111103,0)" xlink:href="#az"/><use transform="matrix(0.044444444444444425,0,0,0.044444444444444425,209.99999999999986,0)" xlink:href="#aI"/><use transform="matrix(0.044444444444444425,0,0,0.044444444444444425,240.2222222222221,0)" xlink:href="#aB"/><use transform="matrix(0.044444444444444425,0,0,0.044444444444444425,270.93333333333317,0)" xlink:href="#aE"/><use transform="matrix(0.044444444444444425,0,0,0.044444444444444425,303.1111111111109,0)" xlink:href="#av"/><use transform="matrix(0.044444444444444425,0,0,0.044444444444444425,320.7111111111109,0)" xlink:href="#aC"/></g><g id="x"><use transform="matrix(0.044444444444444425,0,0,0.044444444444444425,0,0)" xlink:href="#aV"/><use transform="matrix(0.044444444444444425,0,0,0.044444444444444425,35.73333333333332,0)" xlink:href="#aB"/></g><path fill="#fff" d="M712-933c96 0 169 97 164 196-7 132-115 217-221 294-52 38-78 60-78 65 8 37 266 264 302 286 21 12 94 3 107 28-3 17-187 78-214 72-27 0-74-28-142-82-62-49-212-191-249-254 0-12 30-38 91-79 83-57 140-98 169-123 94-85 124-138 61-240-64-102-158-54-253 10-54 37-101 83-141 136s-60 95-60 128v313c12 38 7 96 7 146 0 32-47 48-142 48-51 0-84-6-98-17-3-8 29-50 29-55 12-31 21-140 21-166l3-598c-7-44-22-52-67-65-19-5-32-12-39-21 14-41 142-30 186-15 65-6 61 30 87 58 0 13 9 34 2 42 0 5 21 121 15 130 11 13 19 19 23 19 89-110 248-256 437-256" id="aW"/><path fill="#fff" d="M132 384c-53-1-153 15-116-49 82-90 201-208 267-300 55-76 45-75-5-167-62-112-93-188-173-340-6-13-15-30-31-48-22-25-63 2-92-5-42-40 52-72 95-83 21-5 83-40 113-9 15 16 39 51 70 110 28 55 68 138 129 247 22 40 32 24 63-12 28-33 97-179 115-208 63-101 126-153 191-153 57 0 58 30 21 49-57 28-67 47-114 129-61 108-127 212-172 323-40 98-115 194-187 300-18 27-123 109-66 151 13 10 36 11 42 27-5 34-84 39-150 38" id="aX"/><g id="y"><use transform="matrix(0.044444444444444425,0,0,0.044444444444444425,0,0)" xlink:href="#aW"/><use transform="matrix(0.044444444444444425,0,0,0.044444444444444425,49.555555555555536,0)" xlink:href="#aB"/><use transform="matrix(0.044444444444444425,0,0,0.044444444444444425,78.08888888888886,0)" xlink:href="#aX"/><use transform="matrix(0.044444444444444425,0,0,0.044444444444444425,117.0222222222222,0)" xlink:href="#aB"/><use transform="matrix(0.044444444444444425,0,0,0.044444444444444425,147.7333333333333,0)" xlink:href="#aH"/></g><use transform="matrix(0.044444444444444425,0,0,0.044444444444444425,0,0)" xlink:href="#aX" id="z"/><path fill="#fff" d="M130-656c9 85 164 72 269 72 62 0 195 11 244 30 134 52 202 110 202 179 0 109-259 294-369 353-48 26-142 38-214 38-62 0-160-49-219-76-41-19-60-36-60-49-5-8 79-142 95-129 20 3 56 45 72 50 44 23 172 63 228 70 113 15 221-38 273-101 34-67 8-142-61-174-123-57-275-53-437-85C87-491-1-537 1-604c0-24 17-64 52-119 136-135 236-209 472-215 137-4 214 32 245 129-2 39-98 211-143 134 2-16 41-49 35-75-1-56-85-77-150-80-7 1-111-8-119-8-126 2-237 60-263 182" id="aY"/><g id="A"><use transform="matrix(0.044444444444444425,0,0,0.044444444444444425,0,0)" xlink:href="#aY"/><use transform="matrix(0.044444444444444425,0,0,0.044444444444444425,41.51111111111109,0)" xlink:href="#aB"/><use transform="matrix(0.044444444444444425,0,0,0.044444444444444425,72.22222222222219,0)" xlink:href="#az"/><use transform="matrix(0.044444444444444425,0,0,0.044444444444444425,112.66666666666661,0)" xlink:href="#aB"/><use transform="matrix(0.044444444444444425,0,0,0.044444444444444425,143.3777777777777,0)" xlink:href="#aH"/><use transform="matrix(0.044444444444444425,0,0,0.044444444444444425,169.55555555555546,0)" xlink:href="#aw"/><use transform="matrix(0.044444444444444425,0,0,0.044444444444444425,200.84444444444432,0)" xlink:href="#ax"/><use transform="matrix(0.044444444444444425,0,0,0.044444444444444425,234.48888888888874,0)" xlink:href="#aT"/><use transform="matrix(0.044444444444444425,0,0,0.044444444444444425,264.88888888888874,0)" xlink:href="#aB"/><use transform="matrix(0.044444444444444425,0,0,0.044444444444444425,295.59999999999985,0)" xlink:href="#aH"/></g><g id="B"><use transform="matrix(0.044444444444444425,0,0,0.044444444444444425,0,0)" xlink:href="#aW"/><use transform="matrix(0.044444444444444425,0,0,0.044444444444444425,49.555555555555536,0)" xlink:href="#ax"/><use transform="matrix(0.044444444444444425,0,0,0.044444444444444425,80.08888888888886,0)" xlink:href="#aI"/><use transform="matrix(0.044444444444444425,0,0,0.044444444444444425,113.64444444444439,0)" xlink:href="#aM"/></g><path fill="#fff" d="M233-412c3 95-13 204 4 285-2 33 0 81 20 94 11 1 26 2 47 4 13 13-1 26-25 28-30 4-93 7-127 12-40 6-44-29-45-51-5-166 13-319 5-478-4-71-11-65-81-72-50-5-46-26 1-29 77-7 122-10 135-10 19-1 66 13 66 31v186zm10-406L122-674h28l133-103c19-15 29-27 29-38 0-44-44-32-69-3" id="aZ"/><g id="C"><use transform="matrix(0.044444444444444425,0,0,0.044444444444444425,0,0)" xlink:href="#aL"/><use transform="matrix(0.044444444444444425,0,0,0.044444444444444425,50.6222222222222,0)" xlink:href="#aZ"/><use transform="matrix(0.044444444444444425,0,0,0.044444444444444425,70.66666666666663,0)" xlink:href="#az"/><use transform="matrix(0.044444444444444425,0,0,0.044444444444444425,111.11111111111106,0)" xlink:href="#aB"/><use transform="matrix(0.044444444444444425,0,0,0.044444444444444425,141.82222222222217,0)" xlink:href="#az"/></g><g id="D"><use transform="matrix(0.044444444444444425,0,0,0.044444444444444425,0,0)" xlink:href="#aS"/><use transform="matrix(0.044444444444444425,0,0,0.044444444444444425,41.555555555555536,0)" xlink:href="#ax"/><use transform="matrix(0.044444444444444425,0,0,0.044444444444444425,75.19999999999996,0)" xlink:href="#aH"/><use transform="matrix(0.044444444444444425,0,0,0.044444444444444425,103.82222222222215,0)" xlink:href="#ax"/></g><path fill="#fff" d="M1466-840c0 18-86 133-84 137l566 683V3c-74 34-199-2-260-27-1-1 9-58 4-66-34-114-78-139-143-259-7-13-205-261-220-246-22 0-68 90-139 271-31 81-71 183-137 294-36 61-159-11-160-60-4-5 51-89 46-95 0-29-56-105-168-227-108-118-168-177-181-177-32-1-95 142-117 187C406-273 325-92 234-5c-11 18-99 22-122 4C61-41 33-62-32-104 0-126 69-92 90-131c33-59 86-159 156-300 160-321 272-483 341-483 31 0 136 43 130 71 7 1-72 123-65 124-19 19 316 353 336 365 28-12 51-75 66-109l126-284c68-147 116-220 143-220 23-6 155 99 143 127" id="ba"/><g id="E"><use transform="matrix(0.044444444444444425,0,0,0.044444444444444425,0,0)" xlink:href="#ba"/><use transform="matrix(0.044444444444444425,0,0,0.044444444444444425,91.15555555555552,0)" xlink:href="#aC"/><use transform="matrix(0.044444444444444425,0,0,0.044444444444444425,128.26666666666662,0)" xlink:href="#aE"/><use transform="matrix(0.044444444444444425,0,0,0.044444444444444425,160.4444444444444,0)" xlink:href="#aI"/><use transform="matrix(0.044444444444444425,0,0,0.044444444444444425,193.99999999999994,0)" xlink:href="#aJ"/><use transform="matrix(0.044444444444444425,0,0,0.044444444444444425,232.44444444444437,0)" xlink:href="#aC"/><use transform="matrix(0.044444444444444425,0,0,0.044444444444444425,269.5555555555555,0)" xlink:href="#aE"/><use transform="matrix(0.044444444444444425,0,0,0.044444444444444425,301.73333333333323,0)" xlink:href="#av"/><use transform="matrix(0.044444444444444425,0,0,0.044444444444444425,321.77777777777766,0)" xlink:href="#ax"/></g><g id="F"><use transform="matrix(0.044444444444444425,0,0,0.044444444444444425,0,0)" xlink:href="#aT"/><use transform="matrix(0.044444444444444425,0,0,0.044444444444444425,30.39999999999998,0)" xlink:href="#aC"/><use transform="matrix(0.044444444444444425,0,0,0.044444444444444425,67.51111111111108,0)" xlink:href="#aH"/></g><path fill="#fff" d="M870-912c237 0 337 284 280 532-3 0-41 136-79 186-15 18-24 30-28 37C992-72 926 4 845 72c-35 30-65 44-88 42-19-22 34-82 46-97 163-205 223-385 131-643-40-112-100-167-176-167-63 0-148 37-254 111-110 77-181 144-181 206 0 187-4 168-4 314 0 63 5 75 31 110 1 3 1 9 1 18 4 11-201 91-214 91-23 0-52-19-51-43 12-370 15-728 12-1103-2 0 0-69-22-58-10 1-90 46-109 39-13 1-41-10-41-22 0-18 32-45 100-73 38-16 189-96 256-117 29 0 41 13 41 39l-4 571c5 4 3 58 24 48 57-29 215-158 276-185 88-38 170-65 251-65" id="bb"/><g id="G"><use transform="matrix(0.044444444444444425,0,0,0.044444444444444425,0,0)" xlink:href="#bb"/><use transform="matrix(0.044444444444444425,0,0,0.044444444444444425,59.111111111111086,0)" xlink:href="#aC"/><use transform="matrix(0.044444444444444425,0,0,0.044444444444444425,96.22222222222219,0)" xlink:href="#aH"/><use transform="matrix(0.044444444444444425,0,0,0.044444444444444425,124.84444444444438,0)" xlink:href="#aI"/><use transform="matrix(0.044444444444444425,0,0,0.044444444444444425,155.0666666666666,0)" xlink:href="#aB"/><use transform="matrix(0.044444444444444425,0,0,0.044444444444444425,185.7777777777777,0)" xlink:href="#aE"/><use transform="matrix(0.044444444444444425,0,0,0.044444444444444425,217.95555555555546,0)" xlink:href="#aZ"/><use transform="matrix(0.044444444444444425,0,0,0.044444444444444425,237.9999999999999,0)" xlink:href="#ax"/></g><path fill="#fff" d="M116-779c-23-29-56-45-91-34-22 0-33-8-33-25s30-37 90-62c54-22 88-33 102-33 30 0 62 29 96 86 105 171 147 321 231 540 40 104 71 153 87 143 62-42 93-114 131-180 31-52 96-202 139-312 20-53 33-89 33-110 0-39-29-43-59-49-13-3-19-11-19-23 0-18 33-39 98-63 57-21 93-32 108-32 26 0 39 21 39 62 0 230-101 415-196 566-39 62-267 337-334 323-48-10-52-33-89-78-127-155-186-411-289-638-21-46-37-72-44-81" id="bc"/><path fill="#fff" d="M91-544c0-42-27-38-61-35-33 2-43-16-25-29 41-11 136-32 188-8 26 24 18 94 18 149 0 167 12 335-8 489-13 28-41 72-71 86-13 6-94 49-108 47-39-5 3-41 19-48 44-50 60-45 60-114 0-182-12-356-12-537" id="bd"/><g id="H"><use transform="matrix(0.044444444444444425,0,0,0.044444444444444425,0,0)" xlink:href="#bc"/><use transform="matrix(0.044444444444444425,0,0,0.044444444444444425,53.15555555555553,0)" xlink:href="#av"/><use transform="matrix(0.044444444444444425,0,0,0.044444444444444425,70.75555555555553,0)" xlink:href="#aB"/><use transform="matrix(0.044444444444444425,0,0,0.044444444444444425,101.46666666666663,0)" xlink:href="#bd"/><use transform="matrix(0.044444444444444425,0,0,0.044444444444444425,119.9555555555555,0)" xlink:href="#ax"/></g><g id="I"><use transform="matrix(0.044444444444444425,0,0,0.044444444444444425,0,0)" xlink:href="#aA"/><use transform="matrix(0.044444444444444425,0,0,0.044444444444444425,52.2222222222222,0)" xlink:href="#aE"/><use transform="matrix(0.044444444444444425,0,0,0.044444444444444425,84.39999999999996,0)" xlink:href="#ax"/><use transform="matrix(0.044444444444444425,0,0,0.044444444444444425,120.26666666666661,0)" xlink:href="#az"/></g><path fill="#fff" d="M336-941c70-4 67 64 67 132 0 33 13 50 39 50 90-43 216-142 322-167 88-20 195-34 273-4 64 25 74 52 131 120 27 33 89 190 69 251-23 200-213 368-375 457-92 50-171 76-238 76-40 0-131-36-125-74-10-32 76-82 104-82-3-4 113 38 110 34 29-1 92-35 110-50 100-85 220-242 220-400 0-100-71-189-155-210-49-12-78-20-87-20-60-17-405 179-394 232-12 49 3 137 3 190 0 245 3 484 2 732 0 45-33 85-97 122-53 30-95 46-126 46-15 1-42-10-42-24 14-34 51-47 51-91 0-720-4-781-13-1148 0-13-15-24-45-33L38-785c-61-10-91-25-91-45 0-28 49-33 78-38 84-14 212-67 311-73" id="be"/><g id="J"><use transform="matrix(0.044444444444444425,0,0,0.044444444444444425,0,0)" xlink:href="#be"/><use transform="matrix(0.044444444444444425,0,0,0.044444444444444425,61.33333333333331,0)" xlink:href="#aJ"/><use transform="matrix(0.044444444444444425,0,0,0.044444444444444425,99.77777777777773,0)" xlink:href="#aB"/><use transform="matrix(0.044444444444444425,0,0,0.044444444444444425,130.48888888888885,0)" xlink:href="#aE"/><use transform="matrix(0.044444444444444425,0,0,0.044444444444444425,162.66666666666663,0)" xlink:href="#aI"/><use transform="matrix(0.044444444444444425,0,0,0.044444444444444425,193.91111111111107,0)" xlink:href="#ax"/></g><g id="K"><use transform="matrix(0.044444444444444425,0,0,0.044444444444444425,0,0)" xlink:href="#aO"/><use transform="matrix(0.044444444444444425,0,0,0.044444444444444425,35.86666666666665,0)" xlink:href="#aB"/><use transform="matrix(0.044444444444444425,0,0,0.044444444444444425,66.57777777777775,0)" xlink:href="#az"/></g><g id="L"><use transform="matrix(0.044444444444444425,0,0,0.044444444444444425,0,0)" xlink:href="#bb"/><use transform="matrix(0.044444444444444425,0,0,0.044444444444444425,59.111111111111086,0)" xlink:href="#aC"/><use transform="matrix(0.044444444444444425,0,0,0.044444444444444425,96.22222222222219,0)" xlink:href="#aT"/><use transform="matrix(0.044444444444444425,0,0,0.044444444444444425,129.0666666666666,0)" xlink:href="#aT"/><use transform="matrix(0.044444444444444425,0,0,0.044444444444444425,159.46666666666658,0)" xlink:href="#aB"/><use transform="matrix(0.044444444444444425,0,0,0.044444444444444425,190.1777777777777,0)" xlink:href="#az"/></g><g id="M"><use transform="matrix(0.044444444444444425,0,0,0.044444444444444425,0,0)" xlink:href="#bc"/><use transform="matrix(0.044444444444444425,0,0,0.044444444444444425,53.15555555555553,0)" xlink:href="#av"/><use transform="matrix(0.044444444444444425,0,0,0.044444444444444425,70.75555555555553,0)" xlink:href="#aV"/><use transform="matrix(0.044444444444444425,0,0,0.044444444444444425,106.48888888888884,0)" xlink:href="#aB"/><use transform="matrix(0.044444444444444425,0,0,0.044444444444444425,137.19999999999996,0)" xlink:href="#aC"/></g><g id="N"><use transform="matrix(0.044444444444444425,0,0,0.044444444444444425,0,0)" xlink:href="#aW"/><use transform="matrix(0.044444444444444425,0,0,0.044444444444444425,49.555555555555536,0)" xlink:href="#aB"/><use transform="matrix(0.044444444444444425,0,0,0.044444444444444425,80.26666666666664,0)" xlink:href="#aF"/><use transform="matrix(0.044444444444444425,0,0,0.044444444444444425,106.48888888888884,0)" xlink:href="#aB"/><use transform="matrix(0.044444444444444425,0,0,0.044444444444444425,137.19999999999996,0)" xlink:href="#aE"/><use transform="matrix(0.044444444444444425,0,0,0.044444444444444425,166.93333333333328,0)" xlink:href="#aB"/><use transform="matrix(0.044444444444444425,0,0,0.044444444444444425,197.6444444444444,0)" xlink:href="#az"/><use transform="matrix(0.044444444444444425,0,0,0.044444444444444425,238.0888888888888,0)" xlink:href="#aw"/><use transform="matrix(0.044444444444444425,0,0,0.044444444444444425,269.3777777777777,0)" xlink:href="#av"/><use transform="matrix(0.044444444444444425,0,0,0.044444444444444425,289.4222222222221,0)" xlink:href="#ax"/><use transform="matrix(0.044444444444444425,0,0,0.044444444444444425,323.06666666666655,0)" xlink:href="#aH"/></g><path fill="#fff" d="M711-4c8 16-161 5-176 7-29-6-64-54-81-87-4-7-10-11-18-11-20-6-147 89-184 93C172 6 62 8 21-40 5-59-7-73-7-88c15-37 186-243 268-328 4-4 6-10 6-18 0-29-27-74-82-135-12-21-78-11-96-31-3-17 11-17 22-18 47-4 93-3 145-3 60 0 118 62 184 181 49 88 80 153 140 279 35 75 69 117 104 127 4 1 13 7 27 16v14zM135-133c-6 28 57 64 87 62 54-2 120-26 162-59 18-14 29-23 29-30 0-11-23-61-68-148-16-31-29-48-39-49-35 32-155 153-171 224zm178-685L192-674h28l133-103c19-15 29-27 29-38 0-44-44-32-69-3" id="bf"/><g id="O"><use transform="matrix(0.044444444444444425,0,0,0.044444444444444425,0,0)" xlink:href="#aN"/><use transform="matrix(0.044444444444444425,0,0,0.044444444444444425,21.68888888888888,0)" xlink:href="#aP"/><use transform="matrix(0.044444444444444425,0,0,0.044444444444444425,83.68888888888885,0)" xlink:href="#bf"/><use transform="matrix(0.044444444444444425,0,0,0.044444444444444425,117.33333333333329,0)" xlink:href="#aD"/><use transform="matrix(0.044444444444444425,0,0,0.044444444444444425,153.59999999999994,0)" xlink:href="#aB"/><use transform="matrix(0.044444444444444425,0,0,0.044444444444444425,184.31111111111102,0)" xlink:href="#az"/><use transform="matrix(0.044444444444444425,0,0,0.044444444444444425,224.75555555555545,0)" xlink:href="#aB"/><use transform="matrix(0.044444444444444425,0,0,0.044444444444444425,255.46666666666658,0)" xlink:href="#aH"/></g><g id="P"><use transform="matrix(0.044444444444444425,0,0,0.044444444444444425,0,0)" xlink:href="#aS"/><use transform="matrix(0.044444444444444425,0,0,0.044444444444444425,43.68888888888887,0)" xlink:href="#aC"/><use transform="matrix(0.044444444444444425,0,0,0.044444444444444425,80.79999999999995,0)" xlink:href="#az"/><use transform="matrix(0.044444444444444425,0,0,0.044444444444444425,123.68888888888884,0)" xlink:href="#aI"/><use transform="matrix(0.044444444444444425,0,0,0.044444444444444425,153.91111111111104,0)" xlink:href="#aB"/><use transform="matrix(0.044444444444444425,0,0,0.044444444444444425,184.62222222222215,0)" xlink:href="#az"/><use transform="matrix(0.044444444444444425,0,0,0.044444444444444425,227.511111111111,0)" xlink:href="#av"/><use transform="matrix(0.044444444444444425,0,0,0.044444444444444425,245.11111111111097,0)" xlink:href="#aV"/><use transform="matrix(0.044444444444444425,0,0,0.044444444444444425,280.8444444444443,0)" xlink:href="#aC"/><use transform="matrix(0.044444444444444425,0,0,0.044444444444444425,317.9555555555554,0)" xlink:href="#aH"/></g><path fill="#fff" d="M295-506c103-56 230-164 397-114 33 10 107 82 121 156 14 73 19 48 8 113-13 78-66 154-161 228C569-53 488-18 417-18c-27 1-88-23-84-49-7-21 52-54 69-55-1-3 75 27 74 24 92-23 137-96 178-166 29-49 41-95 41-135 0-93-83-141-161-153-42-6-268 120-263 155-7 33 3 92 3 126 0 163 2 323 1 488 12 48-104 113-149 112-19 0-28-5-28-16 9-23 34-30 34-60 0-480-3-521-8-766 0-9-10-16-30-22l-68 12c-41-7-61-17-61-30 0-20 32-23 52-26 55-10 141-44 207-48 47-3 45 42 45 88 0 22 9 33 26 33" id="bg"/><g id="Q"><use transform="matrix(0.044444444444444425,0,0,0.044444444444444425,0,0)" xlink:href="#ba"/><use transform="matrix(0.044444444444444425,0,0,0.044444444444444425,91.15555555555552,0)" xlink:href="#ax"/><use transform="matrix(0.044444444444444425,0,0,0.044444444444444425,124.79999999999994,0)" xlink:href="#bg"/><use transform="matrix(0.044444444444444425,0,0,0.044444444444444425,164.84444444444438,0)" xlink:href="#ax"/><use transform="matrix(0.044444444444444425,0,0,0.044444444444444425,198.4888888888888,0)" xlink:href="#aH"/></g><path fill="#fff" d="M545-559c-14-17 124-66 137-63 17 0 26 14 26 41 1 128-72 287-131 378-26 40-178 224-222 215-13 0-33-17-59-52-86-110-119-265-193-425-25-54-28-71-80-80-12 7-35 1-32-14-12-16 116-66 128-63 20 0 41 19 64 57 70 114 94 216 154 360 36 86 44 122 80 78 70-86 104-176 158-311 15-34 22-58 22-73 9-34-52-25-52-48" id="bh"/><g id="R"><use transform="matrix(0.044444444444444425,0,0,0.044444444444444425,0,0)" xlink:href="#az"/><use transform="matrix(0.044444444444444425,0,0,0.044444444444444425,42.88888888888887,0)" xlink:href="#ax"/><use transform="matrix(0.044444444444444425,0,0,0.044444444444444425,70.75555555555553,0)" xlink:href="#bh"/><use transform="matrix(0.044444444444444425,0,0,0.044444444444444425,107.68888888888884,0)" xlink:href="#aB"/><use transform="matrix(0.044444444444444425,0,0,0.044444444444444425,138.39999999999995,0)" xlink:href="#aD"/><use transform="matrix(0.044444444444444425,0,0,0.044444444444444425,174.6666666666666,0)" xlink:href="#ax"/><use transform="matrix(0.044444444444444425,0,0,0.044444444444444425,207.19999999999996,0)" xlink:href="#aw"/><use transform="matrix(0.044444444444444425,0,0,0.044444444444444425,238.48888888888882,0)" xlink:href="#av"/><use transform="matrix(0.044444444444444425,0,0,0.044444444444444425,256.0888888888888,0)" xlink:href="#ay"/><use transform="matrix(0.044444444444444425,0,0,0.044444444444444425,293.1999999999999,0)" xlink:href="#az"/></g><g id="S"><use transform="matrix(0.044444444444444425,0,0,0.044444444444444425,0,0)" xlink:href="#aN"/><use transform="matrix(0.044444444444444425,0,0,0.044444444444444425,25.19999999999999,0)" xlink:href="#az"/><use transform="matrix(0.044444444444444425,0,0,0.044444444444444425,65.64444444444442,0)" xlink:href="#aV"/><use transform="matrix(0.044444444444444425,0,0,0.044444444444444425,99.42222222222217,0)" xlink:href="#av"/><use transform="matrix(0.044444444444444425,0,0,0.044444444444444425,117.0222222222222,0)" xlink:href="#aw"/><use transform="matrix(0.044444444444444425,0,0,0.044444444444444425,148.31111111111107,0)" xlink:href="#aB"/></g><g id="T"><use transform="matrix(0.044444444444444425,0,0,0.044444444444444425,0,0)" xlink:href="#aQ"/><use transform="matrix(0.044444444444444425,0,0,0.044444444444444425,50.266666666666644,0)" xlink:href="#ax"/></g><g id="U"><use transform="matrix(0.044444444444444425,0,0,0.044444444444444425,0,0)" xlink:href="#aS"/><use transform="matrix(0.044444444444444425,0,0,0.044444444444444425,41.37777777777776,0)" xlink:href="#av"/><use transform="matrix(0.044444444444444425,0,0,0.044444444444444425,61.422222222222196,0)" xlink:href="#aJ"/><use transform="matrix(0.044444444444444425,0,0,0.044444444444444425,99.86666666666662,0)" xlink:href="#aV"/><use transform="matrix(0.044444444444444425,0,0,0.044444444444444425,135.59999999999994,0)" xlink:href="#ax"/><use transform="matrix(0.044444444444444425,0,0,0.044444444444444425,169.24444444444435,0)" xlink:href="#aV"/><use transform="matrix(0.044444444444444425,0,0,0.044444444444444425,204.9777777777777,0)" xlink:href="#aB"/><use transform="matrix(0.044444444444444425,0,0,0.044444444444444425,233.02222222222213,0)" xlink:href="#aT"/><use transform="matrix(0.044444444444444425,0,0,0.044444444444444425,265.86666666666656,0)" xlink:href="#ax"/></g><g id="V"><use transform="matrix(0.07777777777777765,0,0,0.07777777777777765,0,0)" xlink:href="#aM"/><use transform="matrix(0.07777777777777765,0,0,0.07777777777777765,71.94444444444433,0)" xlink:href="#av"/><use transform="matrix(0.07777777777777765,0,0,0.07777777777777765,102.74444444444427,0)" xlink:href="#bg"/><use transform="matrix(0.07777777777777765,0,0,0.07777777777777765,172.8999999999997,0)" xlink:href="#aB"/><use transform="matrix(0.07777777777777765,0,0,0.07777777777777765,226.64444444444405,0)" xlink:href="#aE"/><use transform="matrix(0.07777777777777765,0,0,0.07777777777777765,280.23333333333284,0)" xlink:href="#bh"/><use transform="matrix(0.07777777777777765,0,0,0.07777777777777765,344.86666666666605,0)" xlink:href="#aZ"/><use transform="matrix(0.07777777777777765,0,0,0.07777777777777765,379.9444444444438,0)" xlink:href="#az"/><use transform="matrix(0.07777777777777765,0,0,0.07777777777777765,450.72222222222143,0)" xlink:href="#aw"/><use transform="matrix(0.07777777777777765,0,0,0.07777777777777765,505.4777777777769,0)" xlink:href="#aJ"/><use transform="matrix(0.07777777777777765,0,0,0.07777777777777765,572.7555555555546,0)" xlink:href="#aT"/><use transform="matrix(0.07777777777777765,0,0,0.07777777777777765,625.9555555555545,0)" xlink:href="#aC"/></g><g id="W"><use transform="matrix(0.07777777777777765,0,0,0.07777777777777765,0,0)" xlink:href="#be"/><use transform="matrix(0.07777777777777765,0,0,0.07777777777777765,102.58888888888873,0)" xlink:href="#ax"/><use transform="matrix(0.07777777777777765,0,0,0.07777777777777765,161.4666666666664,0)" xlink:href="#aV"/><use transform="matrix(0.07777777777777765,0,0,0.07777777777777765,223.99999999999963,0)" xlink:href="#aE"/><use transform="matrix(0.07777777777777765,0,0,0.07777777777777765,276.0333333333329,0)" xlink:href="#aB"/></g><path fill="#fff" d="M23-341c7-16 37 15 49 11 120-8 291-79 355 29-11 9-43-13-55-9-99 3-311 85-349-31" id="bi"/><use transform="matrix(0.07777777777777765,0,0,0.07777777777777765,0,0)" xlink:href="#bi" id="X"/><g id="Y"><use transform="matrix(0.07777777777777765,0,0,0.07777777777777765,0,0)" xlink:href="#aM"/><use transform="matrix(0.07777777777777765,0,0,0.07777777777777765,71.94444444444433,0)" xlink:href="#av"/><use transform="matrix(0.07777777777777765,0,0,0.07777777777777765,107.02222222222204,0)" xlink:href="#bd"/><use transform="matrix(0.07777777777777765,0,0,0.07777777777777765,135.09999999999977,0)" xlink:href="#aC"/></g></defs></g></svg>